G04 #@! TF.GenerationSoftware,KiCad,Pcbnew,(5.1.9)-1*
G04 #@! TF.CreationDate,2021-04-11T14:47:46+02:00*
G04 #@! TF.ProjectId,Sunrise clock display board,53756e72-6973-4652-9063-6c6f636b2064,V1.0*
G04 #@! TF.SameCoordinates,Original*
G04 #@! TF.FileFunction,Copper,L1,Top*
G04 #@! TF.FilePolarity,Positive*
%FSLAX46Y46*%
G04 Gerber Fmt 4.6, Leading zero omitted, Abs format (unit mm)*
G04 Created by KiCad (PCBNEW (5.1.9)-1) date 2021-04-11 14:47:46*
%MOMM*%
%LPD*%
G01*
G04 APERTURE LIST*
G04 #@! TA.AperFunction,ComponentPad*
%ADD10R,1.500000X1.500000*%
G04 #@! TD*
G04 #@! TA.AperFunction,ComponentPad*
%ADD11C,1.700000*%
G04 #@! TD*
G04 #@! TA.AperFunction,ComponentPad*
%ADD12C,1.524000*%
G04 #@! TD*
G04 #@! TA.AperFunction,ComponentPad*
%ADD13R,1.524000X1.524000*%
G04 #@! TD*
G04 #@! TA.AperFunction,ViaPad*
%ADD14C,0.800000*%
G04 #@! TD*
G04 #@! TA.AperFunction,ViaPad*
%ADD15C,1.600000*%
G04 #@! TD*
G04 #@! TA.AperFunction,Conductor*
%ADD16C,0.400000*%
G04 #@! TD*
G04 #@! TA.AperFunction,Conductor*
%ADD17C,1.000000*%
G04 #@! TD*
G04 #@! TA.AperFunction,Conductor*
%ADD18C,0.254000*%
G04 #@! TD*
G04 #@! TA.AperFunction,Conductor*
%ADD19C,0.100000*%
G04 #@! TD*
G04 APERTURE END LIST*
D10*
X215900000Y-100330000D03*
X215900000Y-96520000D03*
X215900000Y-88900000D03*
X215900000Y-92710000D03*
X215900000Y-85090000D03*
X215900000Y-81280000D03*
X195580000Y-86360000D03*
X144780000Y-88900000D03*
X88900000Y-80010000D03*
X215900000Y-77470000D03*
D11*
X107950000Y-100330000D03*
X105410000Y-100330000D03*
X102870000Y-100330000D03*
X100330000Y-100330000D03*
X97790000Y-100330000D03*
X107950000Y-97790000D03*
X105410000Y-97790000D03*
X102870000Y-97790000D03*
X100330000Y-97790000D03*
G04 #@! TA.AperFunction,ComponentPad*
G36*
G01*
X97190000Y-96940000D02*
X98390000Y-96940000D01*
G75*
G02*
X98640000Y-97190000I0J-250000D01*
G01*
X98640000Y-98390000D01*
G75*
G02*
X98390000Y-98640000I-250000J0D01*
G01*
X97190000Y-98640000D01*
G75*
G02*
X96940000Y-98390000I0J250000D01*
G01*
X96940000Y-97190000D01*
G75*
G02*
X97190000Y-96940000I250000J0D01*
G01*
G37*
G04 #@! TD.AperFunction*
D12*
X205740000Y-114300000D03*
X208280000Y-114300000D03*
X203200000Y-114300000D03*
D13*
X190500000Y-114300000D03*
D12*
X200660000Y-114300000D03*
X198120000Y-114300000D03*
X193040000Y-114300000D03*
X195580000Y-114300000D03*
X208280000Y-73660000D03*
X205740000Y-73660000D03*
X203200000Y-73660000D03*
X200660000Y-73660000D03*
X198120000Y-73660000D03*
X195580000Y-73660000D03*
X193040000Y-73660000D03*
D13*
X190500000Y-73660000D03*
D12*
X157480000Y-114300000D03*
X160020000Y-114300000D03*
X154940000Y-114300000D03*
D13*
X142240000Y-114300000D03*
D12*
X152400000Y-114300000D03*
X149860000Y-114300000D03*
X144780000Y-114300000D03*
X147320000Y-114300000D03*
X160020000Y-73660000D03*
X157480000Y-73660000D03*
X154940000Y-73660000D03*
X152400000Y-73660000D03*
X149860000Y-73660000D03*
X147320000Y-73660000D03*
X144780000Y-73660000D03*
D13*
X142240000Y-73660000D03*
D12*
X109220000Y-114300000D03*
X111760000Y-114300000D03*
X106680000Y-114300000D03*
D13*
X93980000Y-114300000D03*
D12*
X104140000Y-114300000D03*
X101600000Y-114300000D03*
X96520000Y-114300000D03*
X99060000Y-114300000D03*
X111760000Y-73660000D03*
X109220000Y-73660000D03*
X106680000Y-73660000D03*
X104140000Y-73660000D03*
X101600000Y-73660000D03*
X99060000Y-73660000D03*
X96520000Y-73660000D03*
D13*
X93980000Y-73660000D03*
D14*
X109220000Y-82550000D03*
X205740000Y-82550000D03*
X157480000Y-82550000D03*
X162560000Y-82550000D03*
X212090000Y-91440000D03*
X93980000Y-77470000D03*
X190500000Y-77470000D03*
X142240000Y-77470000D03*
X105410000Y-83820000D03*
X170180000Y-83820000D03*
D15*
X106680000Y-76200000D03*
X203200000Y-76200000D03*
X154940000Y-76200000D03*
D14*
X200660000Y-81280000D03*
X104140000Y-81279988D03*
X152400000Y-81280000D03*
X101600000Y-80010000D03*
X198120000Y-80010000D03*
X149860000Y-80010000D03*
X195580000Y-78740000D03*
X99060000Y-78740000D03*
X147320000Y-78740000D03*
X96520000Y-80010000D03*
X144780000Y-85090000D03*
X97790000Y-85090000D03*
X193040000Y-86360000D03*
X99060000Y-86360000D03*
D16*
X162560000Y-82550000D02*
X205740000Y-82550000D01*
X109220000Y-82550000D02*
X162560000Y-82550000D01*
X212090000Y-88900000D02*
X212090000Y-91440000D01*
X205740000Y-82550000D02*
X212090000Y-88900000D01*
X93980000Y-77470000D02*
X190500000Y-77470000D01*
X190500000Y-77470000D02*
X215900000Y-77470000D01*
X105410000Y-83820000D02*
X170180000Y-83820000D01*
D17*
X106680000Y-76200000D02*
X203200000Y-76200000D01*
D16*
X200660000Y-81280000D02*
X104140000Y-81280000D01*
X104140000Y-81280000D02*
X104140000Y-81279988D01*
X200660000Y-81280000D02*
X207010000Y-81280000D01*
X207010000Y-81280000D02*
X213360000Y-87630000D01*
X213360000Y-87630000D02*
X213360000Y-91440000D01*
X213360000Y-91440000D02*
X214630000Y-92710000D01*
X214630000Y-92710000D02*
X215900000Y-92710000D01*
X101600000Y-80010000D02*
X198120000Y-80010000D01*
X214630000Y-85090000D02*
X215900000Y-85090000D01*
X209550000Y-80010000D02*
X214630000Y-85090000D01*
X198120000Y-80010000D02*
X209550000Y-80010000D01*
X195580000Y-78740000D02*
X99060000Y-78740000D01*
X214630000Y-81280000D02*
X215900000Y-81280000D01*
X212090000Y-78740000D02*
X214630000Y-81280000D01*
X195580000Y-78740000D02*
X212090000Y-78740000D01*
X88900000Y-80010000D02*
X96520000Y-80010000D01*
X144780000Y-85090000D02*
X97790000Y-85090000D01*
X193040000Y-86360000D02*
X99060000Y-86360000D01*
X193040000Y-86360000D02*
X195580000Y-86360000D01*
D18*
X81899335Y-71813596D02*
X81574485Y-71948153D01*
X81282129Y-72143500D01*
X81033500Y-72392129D01*
X80838153Y-72684485D01*
X80703596Y-73009335D01*
X80635000Y-73354193D01*
X80635000Y-73705807D01*
X80703596Y-74050665D01*
X80838153Y-74375515D01*
X81033500Y-74667871D01*
X81282129Y-74916500D01*
X81574485Y-75111847D01*
X81899335Y-75246404D01*
X82244193Y-75315000D01*
X82595807Y-75315000D01*
X82940665Y-75246404D01*
X83265515Y-75111847D01*
X83557871Y-74916500D01*
X83806500Y-74667871D01*
X84001847Y-74375515D01*
X84136404Y-74050665D01*
X84205000Y-73705807D01*
X84205000Y-73354193D01*
X84136404Y-73009335D01*
X84001847Y-72684485D01*
X83806500Y-72392129D01*
X83557871Y-72143500D01*
X83265515Y-71948153D01*
X82940665Y-71813596D01*
X82897450Y-71805000D01*
X122842550Y-71805000D01*
X122799335Y-71813596D01*
X122474485Y-71948153D01*
X122182129Y-72143500D01*
X121933500Y-72392129D01*
X121738153Y-72684485D01*
X121603596Y-73009335D01*
X121535000Y-73354193D01*
X121535000Y-73705807D01*
X121603596Y-74050665D01*
X121738153Y-74375515D01*
X121933500Y-74667871D01*
X122182129Y-74916500D01*
X122404374Y-75065000D01*
X107564284Y-75065000D01*
X107359727Y-74928320D01*
X107314134Y-74909435D01*
X107341727Y-74898005D01*
X107570535Y-74745120D01*
X107765120Y-74550535D01*
X107918005Y-74321727D01*
X107950000Y-74244485D01*
X107981995Y-74321727D01*
X108134880Y-74550535D01*
X108329465Y-74745120D01*
X108558273Y-74898005D01*
X108812510Y-75003314D01*
X109082408Y-75057000D01*
X109357592Y-75057000D01*
X109627490Y-75003314D01*
X109881727Y-74898005D01*
X110110535Y-74745120D01*
X110230090Y-74625565D01*
X110974040Y-74625565D01*
X111041020Y-74865656D01*
X111290048Y-74982756D01*
X111557135Y-75049023D01*
X111832017Y-75061910D01*
X112104133Y-75020922D01*
X112363023Y-74927636D01*
X112478980Y-74865656D01*
X112545960Y-74625565D01*
X111760000Y-73839605D01*
X110974040Y-74625565D01*
X110230090Y-74625565D01*
X110305120Y-74550535D01*
X110458005Y-74321727D01*
X110487692Y-74250057D01*
X110492364Y-74263023D01*
X110554344Y-74378980D01*
X110794435Y-74445960D01*
X111580395Y-73660000D01*
X111939605Y-73660000D01*
X112725565Y-74445960D01*
X112965656Y-74378980D01*
X113082756Y-74129952D01*
X113149023Y-73862865D01*
X113161910Y-73587983D01*
X113120922Y-73315867D01*
X113027636Y-73056977D01*
X112965656Y-72941020D01*
X112725565Y-72874040D01*
X111939605Y-73660000D01*
X111580395Y-73660000D01*
X110794435Y-72874040D01*
X110554344Y-72941020D01*
X110490515Y-73076760D01*
X110458005Y-72998273D01*
X110305120Y-72769465D01*
X110230090Y-72694435D01*
X110974040Y-72694435D01*
X111760000Y-73480395D01*
X112545960Y-72694435D01*
X112478980Y-72454344D01*
X112229952Y-72337244D01*
X111962865Y-72270977D01*
X111687983Y-72258090D01*
X111415867Y-72299078D01*
X111156977Y-72392364D01*
X111041020Y-72454344D01*
X110974040Y-72694435D01*
X110230090Y-72694435D01*
X110110535Y-72574880D01*
X109881727Y-72421995D01*
X109627490Y-72316686D01*
X109357592Y-72263000D01*
X109082408Y-72263000D01*
X108812510Y-72316686D01*
X108558273Y-72421995D01*
X108329465Y-72574880D01*
X108134880Y-72769465D01*
X107981995Y-72998273D01*
X107950000Y-73075515D01*
X107918005Y-72998273D01*
X107765120Y-72769465D01*
X107570535Y-72574880D01*
X107341727Y-72421995D01*
X107087490Y-72316686D01*
X106817592Y-72263000D01*
X106542408Y-72263000D01*
X106272510Y-72316686D01*
X106018273Y-72421995D01*
X105789465Y-72574880D01*
X105594880Y-72769465D01*
X105441995Y-72998273D01*
X105410000Y-73075515D01*
X105378005Y-72998273D01*
X105225120Y-72769465D01*
X105030535Y-72574880D01*
X104801727Y-72421995D01*
X104547490Y-72316686D01*
X104277592Y-72263000D01*
X104002408Y-72263000D01*
X103732510Y-72316686D01*
X103478273Y-72421995D01*
X103249465Y-72574880D01*
X103054880Y-72769465D01*
X102901995Y-72998273D01*
X102870000Y-73075515D01*
X102838005Y-72998273D01*
X102685120Y-72769465D01*
X102490535Y-72574880D01*
X102261727Y-72421995D01*
X102007490Y-72316686D01*
X101737592Y-72263000D01*
X101462408Y-72263000D01*
X101192510Y-72316686D01*
X100938273Y-72421995D01*
X100709465Y-72574880D01*
X100514880Y-72769465D01*
X100361995Y-72998273D01*
X100330000Y-73075515D01*
X100298005Y-72998273D01*
X100145120Y-72769465D01*
X99950535Y-72574880D01*
X99721727Y-72421995D01*
X99467490Y-72316686D01*
X99197592Y-72263000D01*
X98922408Y-72263000D01*
X98652510Y-72316686D01*
X98398273Y-72421995D01*
X98169465Y-72574880D01*
X97974880Y-72769465D01*
X97821995Y-72998273D01*
X97790000Y-73075515D01*
X97758005Y-72998273D01*
X97605120Y-72769465D01*
X97410535Y-72574880D01*
X97181727Y-72421995D01*
X96927490Y-72316686D01*
X96657592Y-72263000D01*
X96382408Y-72263000D01*
X96112510Y-72316686D01*
X95858273Y-72421995D01*
X95629465Y-72574880D01*
X95434880Y-72769465D01*
X95376080Y-72857465D01*
X95367812Y-72773518D01*
X95331502Y-72653820D01*
X95272537Y-72543506D01*
X95193185Y-72446815D01*
X95096494Y-72367463D01*
X94986180Y-72308498D01*
X94866482Y-72272188D01*
X94742000Y-72259928D01*
X93218000Y-72259928D01*
X93093518Y-72272188D01*
X92973820Y-72308498D01*
X92863506Y-72367463D01*
X92766815Y-72446815D01*
X92687463Y-72543506D01*
X92628498Y-72653820D01*
X92592188Y-72773518D01*
X92579928Y-72898000D01*
X92579928Y-74422000D01*
X92592188Y-74546482D01*
X92628498Y-74666180D01*
X92687463Y-74776494D01*
X92766815Y-74873185D01*
X92863506Y-74952537D01*
X92973820Y-75011502D01*
X93093518Y-75047812D01*
X93218000Y-75060072D01*
X94742000Y-75060072D01*
X94866482Y-75047812D01*
X94986180Y-75011502D01*
X95096494Y-74952537D01*
X95193185Y-74873185D01*
X95272537Y-74776494D01*
X95331502Y-74666180D01*
X95367812Y-74546482D01*
X95376080Y-74462535D01*
X95434880Y-74550535D01*
X95629465Y-74745120D01*
X95858273Y-74898005D01*
X96112510Y-75003314D01*
X96382408Y-75057000D01*
X96657592Y-75057000D01*
X96927490Y-75003314D01*
X97181727Y-74898005D01*
X97410535Y-74745120D01*
X97605120Y-74550535D01*
X97758005Y-74321727D01*
X97790000Y-74244485D01*
X97821995Y-74321727D01*
X97974880Y-74550535D01*
X98169465Y-74745120D01*
X98398273Y-74898005D01*
X98652510Y-75003314D01*
X98922408Y-75057000D01*
X99197592Y-75057000D01*
X99467490Y-75003314D01*
X99721727Y-74898005D01*
X99950535Y-74745120D01*
X100145120Y-74550535D01*
X100298005Y-74321727D01*
X100330000Y-74244485D01*
X100361995Y-74321727D01*
X100514880Y-74550535D01*
X100709465Y-74745120D01*
X100938273Y-74898005D01*
X101192510Y-75003314D01*
X101462408Y-75057000D01*
X101737592Y-75057000D01*
X102007490Y-75003314D01*
X102261727Y-74898005D01*
X102490535Y-74745120D01*
X102685120Y-74550535D01*
X102838005Y-74321727D01*
X102870000Y-74244485D01*
X102901995Y-74321727D01*
X103054880Y-74550535D01*
X103249465Y-74745120D01*
X103478273Y-74898005D01*
X103732510Y-75003314D01*
X104002408Y-75057000D01*
X104277592Y-75057000D01*
X104547490Y-75003314D01*
X104801727Y-74898005D01*
X105030535Y-74745120D01*
X105225120Y-74550535D01*
X105378005Y-74321727D01*
X105410000Y-74244485D01*
X105441995Y-74321727D01*
X105594880Y-74550535D01*
X105789465Y-74745120D01*
X106018273Y-74898005D01*
X106045866Y-74909435D01*
X106000273Y-74928320D01*
X105765241Y-75085363D01*
X105565363Y-75285241D01*
X105408320Y-75520273D01*
X105300147Y-75781426D01*
X105245000Y-76058665D01*
X105245000Y-76341335D01*
X105300147Y-76618574D01*
X105306951Y-76635000D01*
X94593285Y-76635000D01*
X94470256Y-76552795D01*
X94281898Y-76474774D01*
X94081939Y-76435000D01*
X93878061Y-76435000D01*
X93678102Y-76474774D01*
X93489744Y-76552795D01*
X93320226Y-76666063D01*
X93176063Y-76810226D01*
X93062795Y-76979744D01*
X92984774Y-77168102D01*
X92945000Y-77368061D01*
X92945000Y-77571939D01*
X92984774Y-77771898D01*
X93062795Y-77960256D01*
X93176063Y-78129774D01*
X93320226Y-78273937D01*
X93489744Y-78387205D01*
X93678102Y-78465226D01*
X93878061Y-78505000D01*
X94081939Y-78505000D01*
X94281898Y-78465226D01*
X94470256Y-78387205D01*
X94593285Y-78305000D01*
X98119907Y-78305000D01*
X98064774Y-78438102D01*
X98025000Y-78638061D01*
X98025000Y-78841939D01*
X98064774Y-79041898D01*
X98142795Y-79230256D01*
X98256063Y-79399774D01*
X98400226Y-79543937D01*
X98569744Y-79657205D01*
X98758102Y-79735226D01*
X98958061Y-79775000D01*
X99161939Y-79775000D01*
X99361898Y-79735226D01*
X99550256Y-79657205D01*
X99673285Y-79575000D01*
X100659907Y-79575000D01*
X100604774Y-79708102D01*
X100565000Y-79908061D01*
X100565000Y-80111939D01*
X100604774Y-80311898D01*
X100682795Y-80500256D01*
X100796063Y-80669774D01*
X100940226Y-80813937D01*
X101109744Y-80927205D01*
X101298102Y-81005226D01*
X101498061Y-81045000D01*
X101701939Y-81045000D01*
X101901898Y-81005226D01*
X102090256Y-80927205D01*
X102213285Y-80845000D01*
X103199902Y-80845000D01*
X103144774Y-80978090D01*
X103105000Y-81178049D01*
X103105000Y-81381927D01*
X103144774Y-81581886D01*
X103222795Y-81770244D01*
X103336063Y-81939762D01*
X103480226Y-82083925D01*
X103649744Y-82197193D01*
X103838102Y-82275214D01*
X104038061Y-82314988D01*
X104241939Y-82314988D01*
X104441898Y-82275214D01*
X104630256Y-82197193D01*
X104753267Y-82115000D01*
X108279907Y-82115000D01*
X108224774Y-82248102D01*
X108185000Y-82448061D01*
X108185000Y-82651939D01*
X108224774Y-82851898D01*
X108279907Y-82985000D01*
X106023285Y-82985000D01*
X105900256Y-82902795D01*
X105711898Y-82824774D01*
X105511939Y-82785000D01*
X105308061Y-82785000D01*
X105108102Y-82824774D01*
X104919744Y-82902795D01*
X104750226Y-83016063D01*
X104606063Y-83160226D01*
X104492795Y-83329744D01*
X104414774Y-83518102D01*
X104375000Y-83718061D01*
X104375000Y-83921939D01*
X104414774Y-84121898D01*
X104469907Y-84255000D01*
X98403285Y-84255000D01*
X98280256Y-84172795D01*
X98091898Y-84094774D01*
X97891939Y-84055000D01*
X97688061Y-84055000D01*
X97488102Y-84094774D01*
X97299744Y-84172795D01*
X97130226Y-84286063D01*
X96986063Y-84430226D01*
X96872795Y-84599744D01*
X96794774Y-84788102D01*
X96755000Y-84988061D01*
X96755000Y-85191939D01*
X96794774Y-85391898D01*
X96872795Y-85580256D01*
X96986063Y-85749774D01*
X97130226Y-85893937D01*
X97299744Y-86007205D01*
X97488102Y-86085226D01*
X97688061Y-86125000D01*
X97891939Y-86125000D01*
X98058039Y-86091961D01*
X98025000Y-86258061D01*
X98025000Y-86461939D01*
X98064774Y-86661898D01*
X98142795Y-86850256D01*
X98256063Y-87019774D01*
X98400226Y-87163937D01*
X98569744Y-87277205D01*
X98758102Y-87355226D01*
X98958061Y-87395000D01*
X99161939Y-87395000D01*
X99361898Y-87355226D01*
X99550256Y-87277205D01*
X99673285Y-87195000D01*
X192426715Y-87195000D01*
X192549744Y-87277205D01*
X192738102Y-87355226D01*
X192938061Y-87395000D01*
X193141939Y-87395000D01*
X193341898Y-87355226D01*
X193530256Y-87277205D01*
X193653285Y-87195000D01*
X194200299Y-87195000D01*
X194204188Y-87234482D01*
X194240498Y-87354180D01*
X194299463Y-87464494D01*
X194378815Y-87561185D01*
X194475506Y-87640537D01*
X194585820Y-87699502D01*
X194705518Y-87735812D01*
X194830000Y-87748072D01*
X196330000Y-87748072D01*
X196454482Y-87735812D01*
X196574180Y-87699502D01*
X196684494Y-87640537D01*
X196781185Y-87561185D01*
X196860537Y-87464494D01*
X196919502Y-87354180D01*
X196955812Y-87234482D01*
X196968072Y-87110000D01*
X196968072Y-85610000D01*
X196955812Y-85485518D01*
X196919502Y-85365820D01*
X196860537Y-85255506D01*
X196781185Y-85158815D01*
X196684494Y-85079463D01*
X196574180Y-85020498D01*
X196454482Y-84984188D01*
X196330000Y-84971928D01*
X194830000Y-84971928D01*
X194705518Y-84984188D01*
X194585820Y-85020498D01*
X194475506Y-85079463D01*
X194378815Y-85158815D01*
X194299463Y-85255506D01*
X194240498Y-85365820D01*
X194204188Y-85485518D01*
X194200299Y-85525000D01*
X193653285Y-85525000D01*
X193530256Y-85442795D01*
X193341898Y-85364774D01*
X193141939Y-85325000D01*
X192938061Y-85325000D01*
X192738102Y-85364774D01*
X192549744Y-85442795D01*
X192426715Y-85525000D01*
X145720093Y-85525000D01*
X145775226Y-85391898D01*
X145815000Y-85191939D01*
X145815000Y-84988061D01*
X145775226Y-84788102D01*
X145720093Y-84655000D01*
X169566715Y-84655000D01*
X169689744Y-84737205D01*
X169878102Y-84815226D01*
X170078061Y-84855000D01*
X170281939Y-84855000D01*
X170481898Y-84815226D01*
X170670256Y-84737205D01*
X170839774Y-84623937D01*
X170983937Y-84479774D01*
X171097205Y-84310256D01*
X171175226Y-84121898D01*
X171215000Y-83921939D01*
X171215000Y-83718061D01*
X171175226Y-83518102D01*
X171120093Y-83385000D01*
X205126715Y-83385000D01*
X205249744Y-83467205D01*
X205438102Y-83545226D01*
X205583226Y-83574093D01*
X211255000Y-89245868D01*
X211255001Y-90826714D01*
X211172795Y-90949744D01*
X211094774Y-91138102D01*
X211055000Y-91338061D01*
X211055000Y-91541939D01*
X211094774Y-91741898D01*
X211172795Y-91930256D01*
X211286063Y-92099774D01*
X211430226Y-92243937D01*
X211599744Y-92357205D01*
X211788102Y-92435226D01*
X211988061Y-92475000D01*
X212191939Y-92475000D01*
X212391898Y-92435226D01*
X212580256Y-92357205D01*
X212749774Y-92243937D01*
X212866422Y-92127289D01*
X214010558Y-93271426D01*
X214036709Y-93303291D01*
X214163854Y-93407636D01*
X214308913Y-93485172D01*
X214466311Y-93532918D01*
X214519627Y-93538169D01*
X214524188Y-93584482D01*
X214560498Y-93704180D01*
X214619463Y-93814494D01*
X214698815Y-93911185D01*
X214795506Y-93990537D01*
X214905820Y-94049502D01*
X215025518Y-94085812D01*
X215150000Y-94098072D01*
X216650000Y-94098072D01*
X216774482Y-94085812D01*
X216894180Y-94049502D01*
X217004494Y-93990537D01*
X217101185Y-93911185D01*
X217180537Y-93814494D01*
X217239502Y-93704180D01*
X217275812Y-93584482D01*
X217288072Y-93460000D01*
X217288072Y-91960000D01*
X217275812Y-91835518D01*
X217239502Y-91715820D01*
X217180537Y-91605506D01*
X217101185Y-91508815D01*
X217004494Y-91429463D01*
X216894180Y-91370498D01*
X216774482Y-91334188D01*
X216650000Y-91321928D01*
X215150000Y-91321928D01*
X215025518Y-91334188D01*
X214905820Y-91370498D01*
X214795506Y-91429463D01*
X214698815Y-91508815D01*
X214658638Y-91557771D01*
X214195000Y-91094133D01*
X214195000Y-88150000D01*
X214511928Y-88150000D01*
X214511928Y-89650000D01*
X214524188Y-89774482D01*
X214560498Y-89894180D01*
X214619463Y-90004494D01*
X214698815Y-90101185D01*
X214795506Y-90180537D01*
X214905820Y-90239502D01*
X215025518Y-90275812D01*
X215150000Y-90288072D01*
X216650000Y-90288072D01*
X216774482Y-90275812D01*
X216894180Y-90239502D01*
X217004494Y-90180537D01*
X217101185Y-90101185D01*
X217180537Y-90004494D01*
X217239502Y-89894180D01*
X217275812Y-89774482D01*
X217288072Y-89650000D01*
X217288072Y-88150000D01*
X217275812Y-88025518D01*
X217239502Y-87905820D01*
X217180537Y-87795506D01*
X217101185Y-87698815D01*
X217004494Y-87619463D01*
X216894180Y-87560498D01*
X216774482Y-87524188D01*
X216650000Y-87511928D01*
X215150000Y-87511928D01*
X215025518Y-87524188D01*
X214905820Y-87560498D01*
X214795506Y-87619463D01*
X214698815Y-87698815D01*
X214619463Y-87795506D01*
X214560498Y-87905820D01*
X214524188Y-88025518D01*
X214511928Y-88150000D01*
X214195000Y-88150000D01*
X214195000Y-87671018D01*
X214199040Y-87629999D01*
X214182918Y-87466311D01*
X214135172Y-87308913D01*
X214057636Y-87163854D01*
X214013439Y-87110000D01*
X213953291Y-87036709D01*
X213921428Y-87010560D01*
X207755867Y-80845000D01*
X209204133Y-80845000D01*
X214010563Y-85651432D01*
X214036709Y-85683291D01*
X214068568Y-85709437D01*
X214068570Y-85709439D01*
X214163854Y-85787636D01*
X214308913Y-85865172D01*
X214466311Y-85912918D01*
X214519627Y-85918169D01*
X214524188Y-85964482D01*
X214560498Y-86084180D01*
X214619463Y-86194494D01*
X214698815Y-86291185D01*
X214795506Y-86370537D01*
X214905820Y-86429502D01*
X215025518Y-86465812D01*
X215150000Y-86478072D01*
X216650000Y-86478072D01*
X216774482Y-86465812D01*
X216894180Y-86429502D01*
X217004494Y-86370537D01*
X217101185Y-86291185D01*
X217180537Y-86194494D01*
X217239502Y-86084180D01*
X217275812Y-85964482D01*
X217288072Y-85840000D01*
X217288072Y-84340000D01*
X217275812Y-84215518D01*
X217239502Y-84095820D01*
X217180537Y-83985506D01*
X217101185Y-83888815D01*
X217004494Y-83809463D01*
X216894180Y-83750498D01*
X216774482Y-83714188D01*
X216650000Y-83701928D01*
X215150000Y-83701928D01*
X215025518Y-83714188D01*
X214905820Y-83750498D01*
X214795506Y-83809463D01*
X214698815Y-83888815D01*
X214658639Y-83937770D01*
X210295867Y-79575000D01*
X211744133Y-79575000D01*
X214010559Y-81841427D01*
X214036709Y-81873291D01*
X214163854Y-81977636D01*
X214308913Y-82055172D01*
X214466311Y-82102918D01*
X214519627Y-82108169D01*
X214524188Y-82154482D01*
X214560498Y-82274180D01*
X214619463Y-82384494D01*
X214698815Y-82481185D01*
X214795506Y-82560537D01*
X214905820Y-82619502D01*
X215025518Y-82655812D01*
X215150000Y-82668072D01*
X216650000Y-82668072D01*
X216774482Y-82655812D01*
X216894180Y-82619502D01*
X217004494Y-82560537D01*
X217101185Y-82481185D01*
X217180537Y-82384494D01*
X217239502Y-82274180D01*
X217275812Y-82154482D01*
X217288072Y-82030000D01*
X217288072Y-80530000D01*
X217275812Y-80405518D01*
X217239502Y-80285820D01*
X217180537Y-80175506D01*
X217101185Y-80078815D01*
X217004494Y-79999463D01*
X216894180Y-79940498D01*
X216774482Y-79904188D01*
X216650000Y-79891928D01*
X215150000Y-79891928D01*
X215025518Y-79904188D01*
X214905820Y-79940498D01*
X214795506Y-79999463D01*
X214698815Y-80078815D01*
X214658638Y-80127771D01*
X212835867Y-78305000D01*
X214520299Y-78305000D01*
X214524188Y-78344482D01*
X214560498Y-78464180D01*
X214619463Y-78574494D01*
X214698815Y-78671185D01*
X214795506Y-78750537D01*
X214905820Y-78809502D01*
X215025518Y-78845812D01*
X215150000Y-78858072D01*
X216650000Y-78858072D01*
X216774482Y-78845812D01*
X216894180Y-78809502D01*
X217004494Y-78750537D01*
X217101185Y-78671185D01*
X217180537Y-78574494D01*
X217239502Y-78464180D01*
X217275812Y-78344482D01*
X217288072Y-78220000D01*
X217288072Y-76720000D01*
X217275812Y-76595518D01*
X217239502Y-76475820D01*
X217180537Y-76365506D01*
X217101185Y-76268815D01*
X217004494Y-76189463D01*
X216894180Y-76130498D01*
X216893215Y-76130205D01*
X223825000Y-76130205D01*
X223825001Y-81349796D01*
X223857340Y-81678137D01*
X223985139Y-82099436D01*
X224192675Y-82487707D01*
X224471971Y-82828030D01*
X224812294Y-83107326D01*
X225200565Y-83314862D01*
X225621864Y-83442661D01*
X226060000Y-83485814D01*
X226498137Y-83442661D01*
X226919436Y-83314862D01*
X227307707Y-83107326D01*
X227648030Y-82828030D01*
X227927326Y-82487707D01*
X228134862Y-82099436D01*
X228262661Y-81678137D01*
X228295000Y-81349796D01*
X228295000Y-76130204D01*
X228262661Y-75801863D01*
X228134862Y-75380564D01*
X227927326Y-74992293D01*
X227648030Y-74651970D01*
X227307707Y-74372674D01*
X226919435Y-74165138D01*
X226498136Y-74037339D01*
X226060000Y-73994186D01*
X225621863Y-74037339D01*
X225200564Y-74165138D01*
X224812293Y-74372674D01*
X224471970Y-74651970D01*
X224192674Y-74992293D01*
X223985138Y-75380565D01*
X223857339Y-75801864D01*
X223825000Y-76130205D01*
X216893215Y-76130205D01*
X216774482Y-76094188D01*
X216650000Y-76081928D01*
X215150000Y-76081928D01*
X215025518Y-76094188D01*
X214905820Y-76130498D01*
X214795506Y-76189463D01*
X214698815Y-76268815D01*
X214619463Y-76365506D01*
X214560498Y-76475820D01*
X214524188Y-76595518D01*
X214520299Y-76635000D01*
X204573049Y-76635000D01*
X204579853Y-76618574D01*
X204635000Y-76341335D01*
X204635000Y-76058665D01*
X204579853Y-75781426D01*
X204471680Y-75520273D01*
X204314637Y-75285241D01*
X204114759Y-75085363D01*
X203879727Y-74928320D01*
X203834134Y-74909435D01*
X203861727Y-74898005D01*
X204090535Y-74745120D01*
X204285120Y-74550535D01*
X204438005Y-74321727D01*
X204470000Y-74244485D01*
X204501995Y-74321727D01*
X204654880Y-74550535D01*
X204849465Y-74745120D01*
X205078273Y-74898005D01*
X205332510Y-75003314D01*
X205602408Y-75057000D01*
X205877592Y-75057000D01*
X206147490Y-75003314D01*
X206401727Y-74898005D01*
X206630535Y-74745120D01*
X206750090Y-74625565D01*
X207494040Y-74625565D01*
X207561020Y-74865656D01*
X207810048Y-74982756D01*
X208077135Y-75049023D01*
X208352017Y-75061910D01*
X208624133Y-75020922D01*
X208883023Y-74927636D01*
X208998980Y-74865656D01*
X209065960Y-74625565D01*
X208280000Y-73839605D01*
X207494040Y-74625565D01*
X206750090Y-74625565D01*
X206825120Y-74550535D01*
X206978005Y-74321727D01*
X207007692Y-74250057D01*
X207012364Y-74263023D01*
X207074344Y-74378980D01*
X207314435Y-74445960D01*
X208100395Y-73660000D01*
X208459605Y-73660000D01*
X209245565Y-74445960D01*
X209485656Y-74378980D01*
X209602756Y-74129952D01*
X209669023Y-73862865D01*
X209681910Y-73587983D01*
X209640922Y-73315867D01*
X209547636Y-73056977D01*
X209485656Y-72941020D01*
X209245565Y-72874040D01*
X208459605Y-73660000D01*
X208100395Y-73660000D01*
X207314435Y-72874040D01*
X207074344Y-72941020D01*
X207010515Y-73076760D01*
X206978005Y-72998273D01*
X206825120Y-72769465D01*
X206750090Y-72694435D01*
X207494040Y-72694435D01*
X208280000Y-73480395D01*
X209065960Y-72694435D01*
X208998980Y-72454344D01*
X208749952Y-72337244D01*
X208482865Y-72270977D01*
X208207983Y-72258090D01*
X207935867Y-72299078D01*
X207676977Y-72392364D01*
X207561020Y-72454344D01*
X207494040Y-72694435D01*
X206750090Y-72694435D01*
X206630535Y-72574880D01*
X206401727Y-72421995D01*
X206147490Y-72316686D01*
X205877592Y-72263000D01*
X205602408Y-72263000D01*
X205332510Y-72316686D01*
X205078273Y-72421995D01*
X204849465Y-72574880D01*
X204654880Y-72769465D01*
X204501995Y-72998273D01*
X204470000Y-73075515D01*
X204438005Y-72998273D01*
X204285120Y-72769465D01*
X204090535Y-72574880D01*
X203861727Y-72421995D01*
X203607490Y-72316686D01*
X203337592Y-72263000D01*
X203062408Y-72263000D01*
X202792510Y-72316686D01*
X202538273Y-72421995D01*
X202309465Y-72574880D01*
X202114880Y-72769465D01*
X201961995Y-72998273D01*
X201930000Y-73075515D01*
X201898005Y-72998273D01*
X201745120Y-72769465D01*
X201550535Y-72574880D01*
X201321727Y-72421995D01*
X201067490Y-72316686D01*
X200797592Y-72263000D01*
X200522408Y-72263000D01*
X200252510Y-72316686D01*
X199998273Y-72421995D01*
X199769465Y-72574880D01*
X199574880Y-72769465D01*
X199421995Y-72998273D01*
X199390000Y-73075515D01*
X199358005Y-72998273D01*
X199205120Y-72769465D01*
X199010535Y-72574880D01*
X198781727Y-72421995D01*
X198527490Y-72316686D01*
X198257592Y-72263000D01*
X197982408Y-72263000D01*
X197712510Y-72316686D01*
X197458273Y-72421995D01*
X197229465Y-72574880D01*
X197034880Y-72769465D01*
X196881995Y-72998273D01*
X196850000Y-73075515D01*
X196818005Y-72998273D01*
X196665120Y-72769465D01*
X196470535Y-72574880D01*
X196241727Y-72421995D01*
X195987490Y-72316686D01*
X195717592Y-72263000D01*
X195442408Y-72263000D01*
X195172510Y-72316686D01*
X194918273Y-72421995D01*
X194689465Y-72574880D01*
X194494880Y-72769465D01*
X194341995Y-72998273D01*
X194310000Y-73075515D01*
X194278005Y-72998273D01*
X194125120Y-72769465D01*
X193930535Y-72574880D01*
X193701727Y-72421995D01*
X193447490Y-72316686D01*
X193177592Y-72263000D01*
X192902408Y-72263000D01*
X192632510Y-72316686D01*
X192378273Y-72421995D01*
X192149465Y-72574880D01*
X191954880Y-72769465D01*
X191896080Y-72857465D01*
X191887812Y-72773518D01*
X191851502Y-72653820D01*
X191792537Y-72543506D01*
X191713185Y-72446815D01*
X191616494Y-72367463D01*
X191506180Y-72308498D01*
X191386482Y-72272188D01*
X191262000Y-72259928D01*
X189738000Y-72259928D01*
X189613518Y-72272188D01*
X189493820Y-72308498D01*
X189383506Y-72367463D01*
X189286815Y-72446815D01*
X189207463Y-72543506D01*
X189148498Y-72653820D01*
X189112188Y-72773518D01*
X189099928Y-72898000D01*
X189099928Y-74422000D01*
X189112188Y-74546482D01*
X189148498Y-74666180D01*
X189207463Y-74776494D01*
X189286815Y-74873185D01*
X189383506Y-74952537D01*
X189493820Y-75011502D01*
X189613518Y-75047812D01*
X189738000Y-75060072D01*
X191262000Y-75060072D01*
X191386482Y-75047812D01*
X191506180Y-75011502D01*
X191616494Y-74952537D01*
X191713185Y-74873185D01*
X191792537Y-74776494D01*
X191851502Y-74666180D01*
X191887812Y-74546482D01*
X191896080Y-74462535D01*
X191954880Y-74550535D01*
X192149465Y-74745120D01*
X192378273Y-74898005D01*
X192632510Y-75003314D01*
X192902408Y-75057000D01*
X193177592Y-75057000D01*
X193447490Y-75003314D01*
X193701727Y-74898005D01*
X193930535Y-74745120D01*
X194125120Y-74550535D01*
X194278005Y-74321727D01*
X194310000Y-74244485D01*
X194341995Y-74321727D01*
X194494880Y-74550535D01*
X194689465Y-74745120D01*
X194918273Y-74898005D01*
X195172510Y-75003314D01*
X195442408Y-75057000D01*
X195717592Y-75057000D01*
X195987490Y-75003314D01*
X196241727Y-74898005D01*
X196470535Y-74745120D01*
X196665120Y-74550535D01*
X196818005Y-74321727D01*
X196850000Y-74244485D01*
X196881995Y-74321727D01*
X197034880Y-74550535D01*
X197229465Y-74745120D01*
X197458273Y-74898005D01*
X197712510Y-75003314D01*
X197982408Y-75057000D01*
X198257592Y-75057000D01*
X198527490Y-75003314D01*
X198781727Y-74898005D01*
X199010535Y-74745120D01*
X199205120Y-74550535D01*
X199358005Y-74321727D01*
X199390000Y-74244485D01*
X199421995Y-74321727D01*
X199574880Y-74550535D01*
X199769465Y-74745120D01*
X199998273Y-74898005D01*
X200252510Y-75003314D01*
X200522408Y-75057000D01*
X200797592Y-75057000D01*
X201067490Y-75003314D01*
X201321727Y-74898005D01*
X201550535Y-74745120D01*
X201745120Y-74550535D01*
X201898005Y-74321727D01*
X201930000Y-74244485D01*
X201961995Y-74321727D01*
X202114880Y-74550535D01*
X202309465Y-74745120D01*
X202538273Y-74898005D01*
X202565866Y-74909435D01*
X202520273Y-74928320D01*
X202315716Y-75065000D01*
X179855626Y-75065000D01*
X180077871Y-74916500D01*
X180326500Y-74667871D01*
X180521847Y-74375515D01*
X180656404Y-74050665D01*
X180725000Y-73705807D01*
X180725000Y-73354193D01*
X180656404Y-73009335D01*
X180521847Y-72684485D01*
X180326500Y-72392129D01*
X180077871Y-72143500D01*
X179785515Y-71948153D01*
X179460665Y-71813596D01*
X179417450Y-71805000D01*
X219362550Y-71805000D01*
X219319335Y-71813596D01*
X218994485Y-71948153D01*
X218702129Y-72143500D01*
X218453500Y-72392129D01*
X218258153Y-72684485D01*
X218123596Y-73009335D01*
X218055000Y-73354193D01*
X218055000Y-73705807D01*
X218123596Y-74050665D01*
X218258153Y-74375515D01*
X218453500Y-74667871D01*
X218702129Y-74916500D01*
X218994485Y-75111847D01*
X219319335Y-75246404D01*
X219664193Y-75315000D01*
X220015807Y-75315000D01*
X220360665Y-75246404D01*
X220685515Y-75111847D01*
X220977871Y-74916500D01*
X221226500Y-74667871D01*
X221421847Y-74375515D01*
X221556404Y-74050665D01*
X221625000Y-73705807D01*
X221625000Y-73354193D01*
X221556404Y-73009335D01*
X221421847Y-72684485D01*
X221226500Y-72392129D01*
X220977871Y-72143500D01*
X220685515Y-71948153D01*
X220360665Y-71813596D01*
X220317450Y-71805000D01*
X226029495Y-71805000D01*
X226837803Y-71877139D01*
X227591023Y-72083197D01*
X228295852Y-72419384D01*
X228930002Y-72875065D01*
X229473441Y-73435851D01*
X229908981Y-74084001D01*
X230222862Y-74799043D01*
X230406424Y-75563636D01*
X230455001Y-76225126D01*
X230455000Y-111729494D01*
X230382861Y-112537805D01*
X230176803Y-113291023D01*
X229840616Y-113995852D01*
X229384932Y-114630005D01*
X228824149Y-115173441D01*
X228175996Y-115608982D01*
X227460956Y-115922863D01*
X226696364Y-116106424D01*
X226034887Y-116155000D01*
X220317450Y-116155000D01*
X220360665Y-116146404D01*
X220685515Y-116011847D01*
X220977871Y-115816500D01*
X221226500Y-115567871D01*
X221421847Y-115275515D01*
X221556404Y-114950665D01*
X221625000Y-114605807D01*
X221625000Y-114254193D01*
X221556404Y-113909335D01*
X221421847Y-113584485D01*
X221226500Y-113292129D01*
X220977871Y-113043500D01*
X220685515Y-112848153D01*
X220360665Y-112713596D01*
X220015807Y-112645000D01*
X219664193Y-112645000D01*
X219319335Y-112713596D01*
X218994485Y-112848153D01*
X218702129Y-113043500D01*
X218453500Y-113292129D01*
X218258153Y-113584485D01*
X218123596Y-113909335D01*
X218055000Y-114254193D01*
X218055000Y-114605807D01*
X218123596Y-114950665D01*
X218258153Y-115275515D01*
X218453500Y-115567871D01*
X218702129Y-115816500D01*
X218994485Y-116011847D01*
X219319335Y-116146404D01*
X219362550Y-116155000D01*
X179417450Y-116155000D01*
X179460665Y-116146404D01*
X179785515Y-116011847D01*
X180077871Y-115816500D01*
X180326500Y-115567871D01*
X180521847Y-115275515D01*
X180656404Y-114950665D01*
X180725000Y-114605807D01*
X180725000Y-114254193D01*
X180656404Y-113909335D01*
X180521847Y-113584485D01*
X180490787Y-113538000D01*
X189099928Y-113538000D01*
X189099928Y-115062000D01*
X189112188Y-115186482D01*
X189148498Y-115306180D01*
X189207463Y-115416494D01*
X189286815Y-115513185D01*
X189383506Y-115592537D01*
X189493820Y-115651502D01*
X189613518Y-115687812D01*
X189738000Y-115700072D01*
X191262000Y-115700072D01*
X191386482Y-115687812D01*
X191506180Y-115651502D01*
X191616494Y-115592537D01*
X191713185Y-115513185D01*
X191792537Y-115416494D01*
X191851502Y-115306180D01*
X191887812Y-115186482D01*
X191896080Y-115102535D01*
X191954880Y-115190535D01*
X192149465Y-115385120D01*
X192378273Y-115538005D01*
X192632510Y-115643314D01*
X192902408Y-115697000D01*
X193177592Y-115697000D01*
X193447490Y-115643314D01*
X193701727Y-115538005D01*
X193930535Y-115385120D01*
X194125120Y-115190535D01*
X194278005Y-114961727D01*
X194310000Y-114884485D01*
X194341995Y-114961727D01*
X194494880Y-115190535D01*
X194689465Y-115385120D01*
X194918273Y-115538005D01*
X195172510Y-115643314D01*
X195442408Y-115697000D01*
X195717592Y-115697000D01*
X195987490Y-115643314D01*
X196241727Y-115538005D01*
X196470535Y-115385120D01*
X196665120Y-115190535D01*
X196818005Y-114961727D01*
X196850000Y-114884485D01*
X196881995Y-114961727D01*
X197034880Y-115190535D01*
X197229465Y-115385120D01*
X197458273Y-115538005D01*
X197712510Y-115643314D01*
X197982408Y-115697000D01*
X198257592Y-115697000D01*
X198527490Y-115643314D01*
X198781727Y-115538005D01*
X199010535Y-115385120D01*
X199205120Y-115190535D01*
X199358005Y-114961727D01*
X199390000Y-114884485D01*
X199421995Y-114961727D01*
X199574880Y-115190535D01*
X199769465Y-115385120D01*
X199998273Y-115538005D01*
X200252510Y-115643314D01*
X200522408Y-115697000D01*
X200797592Y-115697000D01*
X201067490Y-115643314D01*
X201321727Y-115538005D01*
X201550535Y-115385120D01*
X201745120Y-115190535D01*
X201898005Y-114961727D01*
X201930000Y-114884485D01*
X201961995Y-114961727D01*
X202114880Y-115190535D01*
X202309465Y-115385120D01*
X202538273Y-115538005D01*
X202792510Y-115643314D01*
X203062408Y-115697000D01*
X203337592Y-115697000D01*
X203607490Y-115643314D01*
X203861727Y-115538005D01*
X204090535Y-115385120D01*
X204285120Y-115190535D01*
X204438005Y-114961727D01*
X204470000Y-114884485D01*
X204501995Y-114961727D01*
X204654880Y-115190535D01*
X204849465Y-115385120D01*
X205078273Y-115538005D01*
X205332510Y-115643314D01*
X205602408Y-115697000D01*
X205877592Y-115697000D01*
X206147490Y-115643314D01*
X206401727Y-115538005D01*
X206630535Y-115385120D01*
X206825120Y-115190535D01*
X206978005Y-114961727D01*
X207010000Y-114884485D01*
X207041995Y-114961727D01*
X207194880Y-115190535D01*
X207389465Y-115385120D01*
X207618273Y-115538005D01*
X207872510Y-115643314D01*
X208142408Y-115697000D01*
X208417592Y-115697000D01*
X208687490Y-115643314D01*
X208941727Y-115538005D01*
X209170535Y-115385120D01*
X209365120Y-115190535D01*
X209518005Y-114961727D01*
X209623314Y-114707490D01*
X209677000Y-114437592D01*
X209677000Y-114162408D01*
X209623314Y-113892510D01*
X209518005Y-113638273D01*
X209365120Y-113409465D01*
X209170535Y-113214880D01*
X208941727Y-113061995D01*
X208687490Y-112956686D01*
X208417592Y-112903000D01*
X208142408Y-112903000D01*
X207872510Y-112956686D01*
X207618273Y-113061995D01*
X207389465Y-113214880D01*
X207194880Y-113409465D01*
X207041995Y-113638273D01*
X207010000Y-113715515D01*
X206978005Y-113638273D01*
X206825120Y-113409465D01*
X206630535Y-113214880D01*
X206401727Y-113061995D01*
X206147490Y-112956686D01*
X205877592Y-112903000D01*
X205602408Y-112903000D01*
X205332510Y-112956686D01*
X205078273Y-113061995D01*
X204849465Y-113214880D01*
X204654880Y-113409465D01*
X204501995Y-113638273D01*
X204470000Y-113715515D01*
X204438005Y-113638273D01*
X204285120Y-113409465D01*
X204090535Y-113214880D01*
X203861727Y-113061995D01*
X203607490Y-112956686D01*
X203337592Y-112903000D01*
X203062408Y-112903000D01*
X202792510Y-112956686D01*
X202538273Y-113061995D01*
X202309465Y-113214880D01*
X202114880Y-113409465D01*
X201961995Y-113638273D01*
X201930000Y-113715515D01*
X201898005Y-113638273D01*
X201745120Y-113409465D01*
X201550535Y-113214880D01*
X201321727Y-113061995D01*
X201067490Y-112956686D01*
X200797592Y-112903000D01*
X200522408Y-112903000D01*
X200252510Y-112956686D01*
X199998273Y-113061995D01*
X199769465Y-113214880D01*
X199574880Y-113409465D01*
X199421995Y-113638273D01*
X199390000Y-113715515D01*
X199358005Y-113638273D01*
X199205120Y-113409465D01*
X199010535Y-113214880D01*
X198781727Y-113061995D01*
X198527490Y-112956686D01*
X198257592Y-112903000D01*
X197982408Y-112903000D01*
X197712510Y-112956686D01*
X197458273Y-113061995D01*
X197229465Y-113214880D01*
X197034880Y-113409465D01*
X196881995Y-113638273D01*
X196850000Y-113715515D01*
X196818005Y-113638273D01*
X196665120Y-113409465D01*
X196470535Y-113214880D01*
X196241727Y-113061995D01*
X195987490Y-112956686D01*
X195717592Y-112903000D01*
X195442408Y-112903000D01*
X195172510Y-112956686D01*
X194918273Y-113061995D01*
X194689465Y-113214880D01*
X194494880Y-113409465D01*
X194341995Y-113638273D01*
X194310000Y-113715515D01*
X194278005Y-113638273D01*
X194125120Y-113409465D01*
X193930535Y-113214880D01*
X193701727Y-113061995D01*
X193447490Y-112956686D01*
X193177592Y-112903000D01*
X192902408Y-112903000D01*
X192632510Y-112956686D01*
X192378273Y-113061995D01*
X192149465Y-113214880D01*
X191954880Y-113409465D01*
X191896080Y-113497465D01*
X191887812Y-113413518D01*
X191851502Y-113293820D01*
X191792537Y-113183506D01*
X191713185Y-113086815D01*
X191616494Y-113007463D01*
X191506180Y-112948498D01*
X191386482Y-112912188D01*
X191262000Y-112899928D01*
X189738000Y-112899928D01*
X189613518Y-112912188D01*
X189493820Y-112948498D01*
X189383506Y-113007463D01*
X189286815Y-113086815D01*
X189207463Y-113183506D01*
X189148498Y-113293820D01*
X189112188Y-113413518D01*
X189099928Y-113538000D01*
X180490787Y-113538000D01*
X180326500Y-113292129D01*
X180077871Y-113043500D01*
X179785515Y-112848153D01*
X179460665Y-112713596D01*
X179115807Y-112645000D01*
X178764193Y-112645000D01*
X178419335Y-112713596D01*
X178094485Y-112848153D01*
X177802129Y-113043500D01*
X177553500Y-113292129D01*
X177358153Y-113584485D01*
X177223596Y-113909335D01*
X177155000Y-114254193D01*
X177155000Y-114605807D01*
X177223596Y-114950665D01*
X177358153Y-115275515D01*
X177553500Y-115567871D01*
X177802129Y-115816500D01*
X178094485Y-116011847D01*
X178419335Y-116146404D01*
X178462550Y-116155000D01*
X172057450Y-116155000D01*
X172100665Y-116146404D01*
X172425515Y-116011847D01*
X172717871Y-115816500D01*
X172966500Y-115567871D01*
X173161847Y-115275515D01*
X173296404Y-114950665D01*
X173365000Y-114605807D01*
X173365000Y-114254193D01*
X173296404Y-113909335D01*
X173161847Y-113584485D01*
X172966500Y-113292129D01*
X172717871Y-113043500D01*
X172425515Y-112848153D01*
X172100665Y-112713596D01*
X171755807Y-112645000D01*
X171404193Y-112645000D01*
X171059335Y-112713596D01*
X170734485Y-112848153D01*
X170442129Y-113043500D01*
X170193500Y-113292129D01*
X169998153Y-113584485D01*
X169863596Y-113909335D01*
X169795000Y-114254193D01*
X169795000Y-114605807D01*
X169863596Y-114950665D01*
X169998153Y-115275515D01*
X170193500Y-115567871D01*
X170442129Y-115816500D01*
X170734485Y-116011847D01*
X171059335Y-116146404D01*
X171102550Y-116155000D01*
X131157450Y-116155000D01*
X131200665Y-116146404D01*
X131525515Y-116011847D01*
X131817871Y-115816500D01*
X132066500Y-115567871D01*
X132261847Y-115275515D01*
X132396404Y-114950665D01*
X132465000Y-114605807D01*
X132465000Y-114254193D01*
X132396404Y-113909335D01*
X132261847Y-113584485D01*
X132230787Y-113538000D01*
X140839928Y-113538000D01*
X140839928Y-115062000D01*
X140852188Y-115186482D01*
X140888498Y-115306180D01*
X140947463Y-115416494D01*
X141026815Y-115513185D01*
X141123506Y-115592537D01*
X141233820Y-115651502D01*
X141353518Y-115687812D01*
X141478000Y-115700072D01*
X143002000Y-115700072D01*
X143126482Y-115687812D01*
X143246180Y-115651502D01*
X143356494Y-115592537D01*
X143453185Y-115513185D01*
X143532537Y-115416494D01*
X143591502Y-115306180D01*
X143627812Y-115186482D01*
X143636080Y-115102535D01*
X143694880Y-115190535D01*
X143889465Y-115385120D01*
X144118273Y-115538005D01*
X144372510Y-115643314D01*
X144642408Y-115697000D01*
X144917592Y-115697000D01*
X145187490Y-115643314D01*
X145441727Y-115538005D01*
X145670535Y-115385120D01*
X145865120Y-115190535D01*
X146018005Y-114961727D01*
X146050000Y-114884485D01*
X146081995Y-114961727D01*
X146234880Y-115190535D01*
X146429465Y-115385120D01*
X146658273Y-115538005D01*
X146912510Y-115643314D01*
X147182408Y-115697000D01*
X147457592Y-115697000D01*
X147727490Y-115643314D01*
X147981727Y-115538005D01*
X148210535Y-115385120D01*
X148405120Y-115190535D01*
X148558005Y-114961727D01*
X148590000Y-114884485D01*
X148621995Y-114961727D01*
X148774880Y-115190535D01*
X148969465Y-115385120D01*
X149198273Y-115538005D01*
X149452510Y-115643314D01*
X149722408Y-115697000D01*
X149997592Y-115697000D01*
X150267490Y-115643314D01*
X150521727Y-115538005D01*
X150750535Y-115385120D01*
X150945120Y-115190535D01*
X151098005Y-114961727D01*
X151130000Y-114884485D01*
X151161995Y-114961727D01*
X151314880Y-115190535D01*
X151509465Y-115385120D01*
X151738273Y-115538005D01*
X151992510Y-115643314D01*
X152262408Y-115697000D01*
X152537592Y-115697000D01*
X152807490Y-115643314D01*
X153061727Y-115538005D01*
X153290535Y-115385120D01*
X153485120Y-115190535D01*
X153638005Y-114961727D01*
X153670000Y-114884485D01*
X153701995Y-114961727D01*
X153854880Y-115190535D01*
X154049465Y-115385120D01*
X154278273Y-115538005D01*
X154532510Y-115643314D01*
X154802408Y-115697000D01*
X155077592Y-115697000D01*
X155347490Y-115643314D01*
X155601727Y-115538005D01*
X155830535Y-115385120D01*
X156025120Y-115190535D01*
X156178005Y-114961727D01*
X156210000Y-114884485D01*
X156241995Y-114961727D01*
X156394880Y-115190535D01*
X156589465Y-115385120D01*
X156818273Y-115538005D01*
X157072510Y-115643314D01*
X157342408Y-115697000D01*
X157617592Y-115697000D01*
X157887490Y-115643314D01*
X158141727Y-115538005D01*
X158370535Y-115385120D01*
X158565120Y-115190535D01*
X158718005Y-114961727D01*
X158750000Y-114884485D01*
X158781995Y-114961727D01*
X158934880Y-115190535D01*
X159129465Y-115385120D01*
X159358273Y-115538005D01*
X159612510Y-115643314D01*
X159882408Y-115697000D01*
X160157592Y-115697000D01*
X160427490Y-115643314D01*
X160681727Y-115538005D01*
X160910535Y-115385120D01*
X161105120Y-115190535D01*
X161258005Y-114961727D01*
X161363314Y-114707490D01*
X161417000Y-114437592D01*
X161417000Y-114162408D01*
X161363314Y-113892510D01*
X161258005Y-113638273D01*
X161105120Y-113409465D01*
X160910535Y-113214880D01*
X160681727Y-113061995D01*
X160427490Y-112956686D01*
X160157592Y-112903000D01*
X159882408Y-112903000D01*
X159612510Y-112956686D01*
X159358273Y-113061995D01*
X159129465Y-113214880D01*
X158934880Y-113409465D01*
X158781995Y-113638273D01*
X158750000Y-113715515D01*
X158718005Y-113638273D01*
X158565120Y-113409465D01*
X158370535Y-113214880D01*
X158141727Y-113061995D01*
X157887490Y-112956686D01*
X157617592Y-112903000D01*
X157342408Y-112903000D01*
X157072510Y-112956686D01*
X156818273Y-113061995D01*
X156589465Y-113214880D01*
X156394880Y-113409465D01*
X156241995Y-113638273D01*
X156210000Y-113715515D01*
X156178005Y-113638273D01*
X156025120Y-113409465D01*
X155830535Y-113214880D01*
X155601727Y-113061995D01*
X155347490Y-112956686D01*
X155077592Y-112903000D01*
X154802408Y-112903000D01*
X154532510Y-112956686D01*
X154278273Y-113061995D01*
X154049465Y-113214880D01*
X153854880Y-113409465D01*
X153701995Y-113638273D01*
X153670000Y-113715515D01*
X153638005Y-113638273D01*
X153485120Y-113409465D01*
X153290535Y-113214880D01*
X153061727Y-113061995D01*
X152807490Y-112956686D01*
X152537592Y-112903000D01*
X152262408Y-112903000D01*
X151992510Y-112956686D01*
X151738273Y-113061995D01*
X151509465Y-113214880D01*
X151314880Y-113409465D01*
X151161995Y-113638273D01*
X151130000Y-113715515D01*
X151098005Y-113638273D01*
X150945120Y-113409465D01*
X150750535Y-113214880D01*
X150521727Y-113061995D01*
X150267490Y-112956686D01*
X149997592Y-112903000D01*
X149722408Y-112903000D01*
X149452510Y-112956686D01*
X149198273Y-113061995D01*
X148969465Y-113214880D01*
X148774880Y-113409465D01*
X148621995Y-113638273D01*
X148590000Y-113715515D01*
X148558005Y-113638273D01*
X148405120Y-113409465D01*
X148210535Y-113214880D01*
X147981727Y-113061995D01*
X147727490Y-112956686D01*
X147457592Y-112903000D01*
X147182408Y-112903000D01*
X146912510Y-112956686D01*
X146658273Y-113061995D01*
X146429465Y-113214880D01*
X146234880Y-113409465D01*
X146081995Y-113638273D01*
X146050000Y-113715515D01*
X146018005Y-113638273D01*
X145865120Y-113409465D01*
X145670535Y-113214880D01*
X145441727Y-113061995D01*
X145187490Y-112956686D01*
X144917592Y-112903000D01*
X144642408Y-112903000D01*
X144372510Y-112956686D01*
X144118273Y-113061995D01*
X143889465Y-113214880D01*
X143694880Y-113409465D01*
X143636080Y-113497465D01*
X143627812Y-113413518D01*
X143591502Y-113293820D01*
X143532537Y-113183506D01*
X143453185Y-113086815D01*
X143356494Y-113007463D01*
X143246180Y-112948498D01*
X143126482Y-112912188D01*
X143002000Y-112899928D01*
X141478000Y-112899928D01*
X141353518Y-112912188D01*
X141233820Y-112948498D01*
X141123506Y-113007463D01*
X141026815Y-113086815D01*
X140947463Y-113183506D01*
X140888498Y-113293820D01*
X140852188Y-113413518D01*
X140839928Y-113538000D01*
X132230787Y-113538000D01*
X132066500Y-113292129D01*
X131817871Y-113043500D01*
X131525515Y-112848153D01*
X131200665Y-112713596D01*
X130855807Y-112645000D01*
X130504193Y-112645000D01*
X130159335Y-112713596D01*
X129834485Y-112848153D01*
X129542129Y-113043500D01*
X129293500Y-113292129D01*
X129098153Y-113584485D01*
X128963596Y-113909335D01*
X128895000Y-114254193D01*
X128895000Y-114605807D01*
X128963596Y-114950665D01*
X129098153Y-115275515D01*
X129293500Y-115567871D01*
X129542129Y-115816500D01*
X129834485Y-116011847D01*
X130159335Y-116146404D01*
X130202550Y-116155000D01*
X123797450Y-116155000D01*
X123840665Y-116146404D01*
X124165515Y-116011847D01*
X124457871Y-115816500D01*
X124706500Y-115567871D01*
X124901847Y-115275515D01*
X125036404Y-114950665D01*
X125105000Y-114605807D01*
X125105000Y-114254193D01*
X125036404Y-113909335D01*
X124901847Y-113584485D01*
X124706500Y-113292129D01*
X124457871Y-113043500D01*
X124165515Y-112848153D01*
X123840665Y-112713596D01*
X123495807Y-112645000D01*
X123144193Y-112645000D01*
X122799335Y-112713596D01*
X122474485Y-112848153D01*
X122182129Y-113043500D01*
X121933500Y-113292129D01*
X121738153Y-113584485D01*
X121603596Y-113909335D01*
X121535000Y-114254193D01*
X121535000Y-114605807D01*
X121603596Y-114950665D01*
X121738153Y-115275515D01*
X121933500Y-115567871D01*
X122182129Y-115816500D01*
X122474485Y-116011847D01*
X122799335Y-116146404D01*
X122842550Y-116155000D01*
X82897450Y-116155000D01*
X82940665Y-116146404D01*
X83265515Y-116011847D01*
X83557871Y-115816500D01*
X83806500Y-115567871D01*
X84001847Y-115275515D01*
X84136404Y-114950665D01*
X84205000Y-114605807D01*
X84205000Y-114254193D01*
X84136404Y-113909335D01*
X84001847Y-113584485D01*
X83970787Y-113538000D01*
X92579928Y-113538000D01*
X92579928Y-115062000D01*
X92592188Y-115186482D01*
X92628498Y-115306180D01*
X92687463Y-115416494D01*
X92766815Y-115513185D01*
X92863506Y-115592537D01*
X92973820Y-115651502D01*
X93093518Y-115687812D01*
X93218000Y-115700072D01*
X94742000Y-115700072D01*
X94866482Y-115687812D01*
X94986180Y-115651502D01*
X95096494Y-115592537D01*
X95193185Y-115513185D01*
X95272537Y-115416494D01*
X95331502Y-115306180D01*
X95367812Y-115186482D01*
X95376080Y-115102535D01*
X95434880Y-115190535D01*
X95629465Y-115385120D01*
X95858273Y-115538005D01*
X96112510Y-115643314D01*
X96382408Y-115697000D01*
X96657592Y-115697000D01*
X96927490Y-115643314D01*
X97181727Y-115538005D01*
X97410535Y-115385120D01*
X97605120Y-115190535D01*
X97758005Y-114961727D01*
X97790000Y-114884485D01*
X97821995Y-114961727D01*
X97974880Y-115190535D01*
X98169465Y-115385120D01*
X98398273Y-115538005D01*
X98652510Y-115643314D01*
X98922408Y-115697000D01*
X99197592Y-115697000D01*
X99467490Y-115643314D01*
X99721727Y-115538005D01*
X99950535Y-115385120D01*
X100145120Y-115190535D01*
X100298005Y-114961727D01*
X100330000Y-114884485D01*
X100361995Y-114961727D01*
X100514880Y-115190535D01*
X100709465Y-115385120D01*
X100938273Y-115538005D01*
X101192510Y-115643314D01*
X101462408Y-115697000D01*
X101737592Y-115697000D01*
X102007490Y-115643314D01*
X102261727Y-115538005D01*
X102490535Y-115385120D01*
X102685120Y-115190535D01*
X102838005Y-114961727D01*
X102870000Y-114884485D01*
X102901995Y-114961727D01*
X103054880Y-115190535D01*
X103249465Y-115385120D01*
X103478273Y-115538005D01*
X103732510Y-115643314D01*
X104002408Y-115697000D01*
X104277592Y-115697000D01*
X104547490Y-115643314D01*
X104801727Y-115538005D01*
X105030535Y-115385120D01*
X105225120Y-115190535D01*
X105378005Y-114961727D01*
X105410000Y-114884485D01*
X105441995Y-114961727D01*
X105594880Y-115190535D01*
X105789465Y-115385120D01*
X106018273Y-115538005D01*
X106272510Y-115643314D01*
X106542408Y-115697000D01*
X106817592Y-115697000D01*
X107087490Y-115643314D01*
X107341727Y-115538005D01*
X107570535Y-115385120D01*
X107765120Y-115190535D01*
X107918005Y-114961727D01*
X107950000Y-114884485D01*
X107981995Y-114961727D01*
X108134880Y-115190535D01*
X108329465Y-115385120D01*
X108558273Y-115538005D01*
X108812510Y-115643314D01*
X109082408Y-115697000D01*
X109357592Y-115697000D01*
X109627490Y-115643314D01*
X109881727Y-115538005D01*
X110110535Y-115385120D01*
X110305120Y-115190535D01*
X110458005Y-114961727D01*
X110490000Y-114884485D01*
X110521995Y-114961727D01*
X110674880Y-115190535D01*
X110869465Y-115385120D01*
X111098273Y-115538005D01*
X111352510Y-115643314D01*
X111622408Y-115697000D01*
X111897592Y-115697000D01*
X112167490Y-115643314D01*
X112421727Y-115538005D01*
X112650535Y-115385120D01*
X112845120Y-115190535D01*
X112998005Y-114961727D01*
X113103314Y-114707490D01*
X113157000Y-114437592D01*
X113157000Y-114162408D01*
X113103314Y-113892510D01*
X112998005Y-113638273D01*
X112845120Y-113409465D01*
X112650535Y-113214880D01*
X112421727Y-113061995D01*
X112167490Y-112956686D01*
X111897592Y-112903000D01*
X111622408Y-112903000D01*
X111352510Y-112956686D01*
X111098273Y-113061995D01*
X110869465Y-113214880D01*
X110674880Y-113409465D01*
X110521995Y-113638273D01*
X110490000Y-113715515D01*
X110458005Y-113638273D01*
X110305120Y-113409465D01*
X110110535Y-113214880D01*
X109881727Y-113061995D01*
X109627490Y-112956686D01*
X109357592Y-112903000D01*
X109082408Y-112903000D01*
X108812510Y-112956686D01*
X108558273Y-113061995D01*
X108329465Y-113214880D01*
X108134880Y-113409465D01*
X107981995Y-113638273D01*
X107950000Y-113715515D01*
X107918005Y-113638273D01*
X107765120Y-113409465D01*
X107570535Y-113214880D01*
X107341727Y-113061995D01*
X107087490Y-112956686D01*
X106817592Y-112903000D01*
X106542408Y-112903000D01*
X106272510Y-112956686D01*
X106018273Y-113061995D01*
X105789465Y-113214880D01*
X105594880Y-113409465D01*
X105441995Y-113638273D01*
X105410000Y-113715515D01*
X105378005Y-113638273D01*
X105225120Y-113409465D01*
X105030535Y-113214880D01*
X104801727Y-113061995D01*
X104547490Y-112956686D01*
X104277592Y-112903000D01*
X104002408Y-112903000D01*
X103732510Y-112956686D01*
X103478273Y-113061995D01*
X103249465Y-113214880D01*
X103054880Y-113409465D01*
X102901995Y-113638273D01*
X102870000Y-113715515D01*
X102838005Y-113638273D01*
X102685120Y-113409465D01*
X102490535Y-113214880D01*
X102261727Y-113061995D01*
X102007490Y-112956686D01*
X101737592Y-112903000D01*
X101462408Y-112903000D01*
X101192510Y-112956686D01*
X100938273Y-113061995D01*
X100709465Y-113214880D01*
X100514880Y-113409465D01*
X100361995Y-113638273D01*
X100330000Y-113715515D01*
X100298005Y-113638273D01*
X100145120Y-113409465D01*
X99950535Y-113214880D01*
X99721727Y-113061995D01*
X99467490Y-112956686D01*
X99197592Y-112903000D01*
X98922408Y-112903000D01*
X98652510Y-112956686D01*
X98398273Y-113061995D01*
X98169465Y-113214880D01*
X97974880Y-113409465D01*
X97821995Y-113638273D01*
X97790000Y-113715515D01*
X97758005Y-113638273D01*
X97605120Y-113409465D01*
X97410535Y-113214880D01*
X97181727Y-113061995D01*
X96927490Y-112956686D01*
X96657592Y-112903000D01*
X96382408Y-112903000D01*
X96112510Y-112956686D01*
X95858273Y-113061995D01*
X95629465Y-113214880D01*
X95434880Y-113409465D01*
X95376080Y-113497465D01*
X95367812Y-113413518D01*
X95331502Y-113293820D01*
X95272537Y-113183506D01*
X95193185Y-113086815D01*
X95096494Y-113007463D01*
X94986180Y-112948498D01*
X94866482Y-112912188D01*
X94742000Y-112899928D01*
X93218000Y-112899928D01*
X93093518Y-112912188D01*
X92973820Y-112948498D01*
X92863506Y-113007463D01*
X92766815Y-113086815D01*
X92687463Y-113183506D01*
X92628498Y-113293820D01*
X92592188Y-113413518D01*
X92579928Y-113538000D01*
X83970787Y-113538000D01*
X83806500Y-113292129D01*
X83557871Y-113043500D01*
X83265515Y-112848153D01*
X82940665Y-112713596D01*
X82595807Y-112645000D01*
X82244193Y-112645000D01*
X81899335Y-112713596D01*
X81574485Y-112848153D01*
X81282129Y-113043500D01*
X81033500Y-113292129D01*
X80838153Y-113584485D01*
X80703596Y-113909335D01*
X80635000Y-114254193D01*
X80635000Y-114605807D01*
X80703596Y-114950665D01*
X80838153Y-115275515D01*
X81033500Y-115567871D01*
X81282129Y-115816500D01*
X81574485Y-116011847D01*
X81899335Y-116146404D01*
X81942550Y-116155000D01*
X76230506Y-116155000D01*
X75422195Y-116082861D01*
X74668977Y-115876803D01*
X73964148Y-115540616D01*
X73329995Y-115084932D01*
X72786559Y-114524149D01*
X72351018Y-113875996D01*
X72037137Y-113160956D01*
X71853576Y-112396364D01*
X71805000Y-111734887D01*
X71805000Y-106610205D01*
X73965000Y-106610205D01*
X73965001Y-111829796D01*
X73997340Y-112158137D01*
X74125139Y-112579436D01*
X74332675Y-112967707D01*
X74611971Y-113308030D01*
X74952294Y-113587326D01*
X75340565Y-113794862D01*
X75761864Y-113922661D01*
X76200000Y-113965814D01*
X76638137Y-113922661D01*
X77059436Y-113794862D01*
X77447707Y-113587326D01*
X77788030Y-113308030D01*
X78067326Y-112967707D01*
X78274862Y-112579436D01*
X78402661Y-112158137D01*
X78435000Y-111829796D01*
X78435000Y-106610205D01*
X223825000Y-106610205D01*
X223825001Y-111829796D01*
X223857340Y-112158137D01*
X223985139Y-112579436D01*
X224192675Y-112967707D01*
X224471971Y-113308030D01*
X224812294Y-113587326D01*
X225200565Y-113794862D01*
X225621864Y-113922661D01*
X226060000Y-113965814D01*
X226498137Y-113922661D01*
X226919436Y-113794862D01*
X227307707Y-113587326D01*
X227648030Y-113308030D01*
X227927326Y-112967707D01*
X228134862Y-112579436D01*
X228262661Y-112158137D01*
X228295000Y-111829796D01*
X228295000Y-106610204D01*
X228262661Y-106281863D01*
X228134862Y-105860564D01*
X227927326Y-105472293D01*
X227648030Y-105131970D01*
X227307707Y-104852674D01*
X226919435Y-104645138D01*
X226498136Y-104517339D01*
X226060000Y-104474186D01*
X225621863Y-104517339D01*
X225200564Y-104645138D01*
X224812293Y-104852674D01*
X224471970Y-105131970D01*
X224192674Y-105472293D01*
X223985138Y-105860565D01*
X223857339Y-106281864D01*
X223825000Y-106610205D01*
X78435000Y-106610205D01*
X78435000Y-106610204D01*
X78402661Y-106281863D01*
X78274862Y-105860564D01*
X78067326Y-105472293D01*
X77788030Y-105131970D01*
X77447707Y-104852674D01*
X77059435Y-104645138D01*
X76638136Y-104517339D01*
X76200000Y-104474186D01*
X75761863Y-104517339D01*
X75340564Y-104645138D01*
X74952293Y-104852674D01*
X74611970Y-105131970D01*
X74332674Y-105472293D01*
X74125138Y-105860565D01*
X73997339Y-106281864D01*
X73965000Y-106610205D01*
X71805000Y-106610205D01*
X71805000Y-97190000D01*
X96301928Y-97190000D01*
X96301928Y-98390000D01*
X96318992Y-98563254D01*
X96369528Y-98729850D01*
X96451595Y-98883386D01*
X96562038Y-99017962D01*
X96696614Y-99128405D01*
X96823608Y-99196285D01*
X96636525Y-99383368D01*
X96474010Y-99626589D01*
X96362068Y-99896842D01*
X96305000Y-100183740D01*
X96305000Y-100476260D01*
X96362068Y-100763158D01*
X96474010Y-101033411D01*
X96636525Y-101276632D01*
X96843368Y-101483475D01*
X97086589Y-101645990D01*
X97356842Y-101757932D01*
X97643740Y-101815000D01*
X97936260Y-101815000D01*
X98223158Y-101757932D01*
X98493411Y-101645990D01*
X98736632Y-101483475D01*
X98943475Y-101276632D01*
X99060000Y-101102240D01*
X99176525Y-101276632D01*
X99383368Y-101483475D01*
X99626589Y-101645990D01*
X99896842Y-101757932D01*
X100183740Y-101815000D01*
X100476260Y-101815000D01*
X100763158Y-101757932D01*
X101033411Y-101645990D01*
X101276632Y-101483475D01*
X101483475Y-101276632D01*
X101600000Y-101102240D01*
X101716525Y-101276632D01*
X101923368Y-101483475D01*
X102166589Y-101645990D01*
X102436842Y-101757932D01*
X102723740Y-101815000D01*
X103016260Y-101815000D01*
X103303158Y-101757932D01*
X103573411Y-101645990D01*
X103816632Y-101483475D01*
X104023475Y-101276632D01*
X104140000Y-101102240D01*
X104256525Y-101276632D01*
X104463368Y-101483475D01*
X104706589Y-101645990D01*
X104976842Y-101757932D01*
X105263740Y-101815000D01*
X105556260Y-101815000D01*
X105843158Y-101757932D01*
X106113411Y-101645990D01*
X106356632Y-101483475D01*
X106481710Y-101358397D01*
X107101208Y-101358397D01*
X107178843Y-101607472D01*
X107442883Y-101733371D01*
X107726411Y-101805339D01*
X108018531Y-101820611D01*
X108308019Y-101778599D01*
X108583747Y-101680919D01*
X108721157Y-101607472D01*
X108798792Y-101358397D01*
X107950000Y-100509605D01*
X107101208Y-101358397D01*
X106481710Y-101358397D01*
X106563475Y-101276632D01*
X106679311Y-101103271D01*
X106921603Y-101178792D01*
X107770395Y-100330000D01*
X108129605Y-100330000D01*
X108978397Y-101178792D01*
X109227472Y-101101157D01*
X109237560Y-101080000D01*
X214511928Y-101080000D01*
X214524188Y-101204482D01*
X214560498Y-101324180D01*
X214619463Y-101434494D01*
X214698815Y-101531185D01*
X214795506Y-101610537D01*
X214905820Y-101669502D01*
X215025518Y-101705812D01*
X215150000Y-101718072D01*
X215614250Y-101715000D01*
X215773000Y-101556250D01*
X215773000Y-100457000D01*
X216027000Y-100457000D01*
X216027000Y-101556250D01*
X216185750Y-101715000D01*
X216650000Y-101718072D01*
X216774482Y-101705812D01*
X216894180Y-101669502D01*
X217004494Y-101610537D01*
X217101185Y-101531185D01*
X217180537Y-101434494D01*
X217239502Y-101324180D01*
X217275812Y-101204482D01*
X217288072Y-101080000D01*
X217285000Y-100615750D01*
X217126250Y-100457000D01*
X216027000Y-100457000D01*
X215773000Y-100457000D01*
X214673750Y-100457000D01*
X214515000Y-100615750D01*
X214511928Y-101080000D01*
X109237560Y-101080000D01*
X109353371Y-100837117D01*
X109425339Y-100553589D01*
X109440611Y-100261469D01*
X109398599Y-99971981D01*
X109300919Y-99696253D01*
X109238781Y-99580000D01*
X214511928Y-99580000D01*
X214515000Y-100044250D01*
X214673750Y-100203000D01*
X215773000Y-100203000D01*
X215773000Y-99103750D01*
X216027000Y-99103750D01*
X216027000Y-100203000D01*
X217126250Y-100203000D01*
X217285000Y-100044250D01*
X217288072Y-99580000D01*
X217275812Y-99455518D01*
X217239502Y-99335820D01*
X217180537Y-99225506D01*
X217101185Y-99128815D01*
X217004494Y-99049463D01*
X216894180Y-98990498D01*
X216774482Y-98954188D01*
X216650000Y-98941928D01*
X216185750Y-98945000D01*
X216027000Y-99103750D01*
X215773000Y-99103750D01*
X215614250Y-98945000D01*
X215150000Y-98941928D01*
X215025518Y-98954188D01*
X214905820Y-98990498D01*
X214795506Y-99049463D01*
X214698815Y-99128815D01*
X214619463Y-99225506D01*
X214560498Y-99335820D01*
X214524188Y-99455518D01*
X214511928Y-99580000D01*
X109238781Y-99580000D01*
X109227472Y-99558843D01*
X108978397Y-99481208D01*
X108129605Y-100330000D01*
X107770395Y-100330000D01*
X106921603Y-99481208D01*
X106679311Y-99556729D01*
X106563475Y-99383368D01*
X106356632Y-99176525D01*
X106182240Y-99060000D01*
X106356632Y-98943475D01*
X106563475Y-98736632D01*
X106680000Y-98562240D01*
X106796525Y-98736632D01*
X107003368Y-98943475D01*
X107176729Y-99059311D01*
X107101208Y-99301603D01*
X107950000Y-100150395D01*
X108798792Y-99301603D01*
X108723271Y-99059311D01*
X108896632Y-98943475D01*
X109103475Y-98736632D01*
X109265990Y-98493411D01*
X109377932Y-98223158D01*
X109435000Y-97936260D01*
X109435000Y-97643740D01*
X109377932Y-97356842D01*
X109265990Y-97086589D01*
X109103475Y-96843368D01*
X108896632Y-96636525D01*
X108653411Y-96474010D01*
X108383158Y-96362068D01*
X108096260Y-96305000D01*
X107803740Y-96305000D01*
X107516842Y-96362068D01*
X107246589Y-96474010D01*
X107003368Y-96636525D01*
X106796525Y-96843368D01*
X106680000Y-97017760D01*
X106563475Y-96843368D01*
X106356632Y-96636525D01*
X106113411Y-96474010D01*
X105843158Y-96362068D01*
X105556260Y-96305000D01*
X105263740Y-96305000D01*
X104976842Y-96362068D01*
X104706589Y-96474010D01*
X104463368Y-96636525D01*
X104256525Y-96843368D01*
X104140000Y-97017760D01*
X104023475Y-96843368D01*
X103816632Y-96636525D01*
X103573411Y-96474010D01*
X103303158Y-96362068D01*
X103016260Y-96305000D01*
X102723740Y-96305000D01*
X102436842Y-96362068D01*
X102166589Y-96474010D01*
X101923368Y-96636525D01*
X101716525Y-96843368D01*
X101600000Y-97017760D01*
X101483475Y-96843368D01*
X101276632Y-96636525D01*
X101033411Y-96474010D01*
X100763158Y-96362068D01*
X100476260Y-96305000D01*
X100183740Y-96305000D01*
X99896842Y-96362068D01*
X99626589Y-96474010D01*
X99383368Y-96636525D01*
X99196285Y-96823608D01*
X99128405Y-96696614D01*
X99017962Y-96562038D01*
X98883386Y-96451595D01*
X98729850Y-96369528D01*
X98563254Y-96318992D01*
X98390000Y-96301928D01*
X97190000Y-96301928D01*
X97016746Y-96318992D01*
X96850150Y-96369528D01*
X96696614Y-96451595D01*
X96562038Y-96562038D01*
X96451595Y-96696614D01*
X96369528Y-96850150D01*
X96318992Y-97016746D01*
X96301928Y-97190000D01*
X71805000Y-97190000D01*
X71805000Y-95770000D01*
X214511928Y-95770000D01*
X214511928Y-97270000D01*
X214524188Y-97394482D01*
X214560498Y-97514180D01*
X214619463Y-97624494D01*
X214698815Y-97721185D01*
X214795506Y-97800537D01*
X214905820Y-97859502D01*
X215025518Y-97895812D01*
X215150000Y-97908072D01*
X216650000Y-97908072D01*
X216774482Y-97895812D01*
X216894180Y-97859502D01*
X217004494Y-97800537D01*
X217101185Y-97721185D01*
X217180537Y-97624494D01*
X217239502Y-97514180D01*
X217275812Y-97394482D01*
X217288072Y-97270000D01*
X217288072Y-95770000D01*
X217275812Y-95645518D01*
X217239502Y-95525820D01*
X217180537Y-95415506D01*
X217101185Y-95318815D01*
X217004494Y-95239463D01*
X216894180Y-95180498D01*
X216774482Y-95144188D01*
X216650000Y-95131928D01*
X215150000Y-95131928D01*
X215025518Y-95144188D01*
X214905820Y-95180498D01*
X214795506Y-95239463D01*
X214698815Y-95318815D01*
X214619463Y-95415506D01*
X214560498Y-95525820D01*
X214524188Y-95645518D01*
X214511928Y-95770000D01*
X71805000Y-95770000D01*
X71805000Y-88150000D01*
X143391928Y-88150000D01*
X143391928Y-89650000D01*
X143404188Y-89774482D01*
X143440498Y-89894180D01*
X143499463Y-90004494D01*
X143578815Y-90101185D01*
X143675506Y-90180537D01*
X143785820Y-90239502D01*
X143905518Y-90275812D01*
X144030000Y-90288072D01*
X145530000Y-90288072D01*
X145654482Y-90275812D01*
X145774180Y-90239502D01*
X145884494Y-90180537D01*
X145981185Y-90101185D01*
X146060537Y-90004494D01*
X146119502Y-89894180D01*
X146155812Y-89774482D01*
X146168072Y-89650000D01*
X146168072Y-88150000D01*
X146155812Y-88025518D01*
X146119502Y-87905820D01*
X146060537Y-87795506D01*
X145981185Y-87698815D01*
X145884494Y-87619463D01*
X145774180Y-87560498D01*
X145654482Y-87524188D01*
X145530000Y-87511928D01*
X144030000Y-87511928D01*
X143905518Y-87524188D01*
X143785820Y-87560498D01*
X143675506Y-87619463D01*
X143578815Y-87698815D01*
X143499463Y-87795506D01*
X143440498Y-87905820D01*
X143404188Y-88025518D01*
X143391928Y-88150000D01*
X71805000Y-88150000D01*
X71805000Y-76230505D01*
X71813951Y-76130205D01*
X73965000Y-76130205D01*
X73965001Y-81349796D01*
X73997340Y-81678137D01*
X74125139Y-82099436D01*
X74332675Y-82487707D01*
X74611971Y-82828030D01*
X74952294Y-83107326D01*
X75340565Y-83314862D01*
X75761864Y-83442661D01*
X76200000Y-83485814D01*
X76638137Y-83442661D01*
X77059436Y-83314862D01*
X77447707Y-83107326D01*
X77788030Y-82828030D01*
X78067326Y-82487707D01*
X78274862Y-82099436D01*
X78402661Y-81678137D01*
X78435000Y-81349796D01*
X78435000Y-79260000D01*
X87511928Y-79260000D01*
X87511928Y-80760000D01*
X87524188Y-80884482D01*
X87560498Y-81004180D01*
X87619463Y-81114494D01*
X87698815Y-81211185D01*
X87795506Y-81290537D01*
X87905820Y-81349502D01*
X88025518Y-81385812D01*
X88150000Y-81398072D01*
X89650000Y-81398072D01*
X89774482Y-81385812D01*
X89894180Y-81349502D01*
X90004494Y-81290537D01*
X90101185Y-81211185D01*
X90180537Y-81114494D01*
X90239502Y-81004180D01*
X90275812Y-80884482D01*
X90279701Y-80845000D01*
X95906715Y-80845000D01*
X96029744Y-80927205D01*
X96218102Y-81005226D01*
X96418061Y-81045000D01*
X96621939Y-81045000D01*
X96821898Y-81005226D01*
X97010256Y-80927205D01*
X97179774Y-80813937D01*
X97323937Y-80669774D01*
X97437205Y-80500256D01*
X97515226Y-80311898D01*
X97555000Y-80111939D01*
X97555000Y-79908061D01*
X97515226Y-79708102D01*
X97437205Y-79519744D01*
X97323937Y-79350226D01*
X97179774Y-79206063D01*
X97010256Y-79092795D01*
X96821898Y-79014774D01*
X96621939Y-78975000D01*
X96418061Y-78975000D01*
X96218102Y-79014774D01*
X96029744Y-79092795D01*
X95906715Y-79175000D01*
X90279701Y-79175000D01*
X90275812Y-79135518D01*
X90239502Y-79015820D01*
X90180537Y-78905506D01*
X90101185Y-78808815D01*
X90004494Y-78729463D01*
X89894180Y-78670498D01*
X89774482Y-78634188D01*
X89650000Y-78621928D01*
X88150000Y-78621928D01*
X88025518Y-78634188D01*
X87905820Y-78670498D01*
X87795506Y-78729463D01*
X87698815Y-78808815D01*
X87619463Y-78905506D01*
X87560498Y-79015820D01*
X87524188Y-79135518D01*
X87511928Y-79260000D01*
X78435000Y-79260000D01*
X78435000Y-76130204D01*
X78402661Y-75801863D01*
X78274862Y-75380564D01*
X78067326Y-74992293D01*
X77788030Y-74651970D01*
X77447707Y-74372674D01*
X77059435Y-74165138D01*
X76638136Y-74037339D01*
X76200000Y-73994186D01*
X75761863Y-74037339D01*
X75340564Y-74165138D01*
X74952293Y-74372674D01*
X74611970Y-74651970D01*
X74332674Y-74992293D01*
X74125138Y-75380565D01*
X73997339Y-75801864D01*
X73965000Y-76130205D01*
X71813951Y-76130205D01*
X71877139Y-75422197D01*
X72083197Y-74668977D01*
X72419384Y-73964148D01*
X72875065Y-73329998D01*
X73435851Y-72786559D01*
X74084001Y-72351019D01*
X74799043Y-72037138D01*
X75563636Y-71853576D01*
X76225112Y-71805000D01*
X81942550Y-71805000D01*
X81899335Y-71813596D01*
G04 #@! TA.AperFunction,Conductor*
D19*
G36*
X81899335Y-71813596D02*
G01*
X81574485Y-71948153D01*
X81282129Y-72143500D01*
X81033500Y-72392129D01*
X80838153Y-72684485D01*
X80703596Y-73009335D01*
X80635000Y-73354193D01*
X80635000Y-73705807D01*
X80703596Y-74050665D01*
X80838153Y-74375515D01*
X81033500Y-74667871D01*
X81282129Y-74916500D01*
X81574485Y-75111847D01*
X81899335Y-75246404D01*
X82244193Y-75315000D01*
X82595807Y-75315000D01*
X82940665Y-75246404D01*
X83265515Y-75111847D01*
X83557871Y-74916500D01*
X83806500Y-74667871D01*
X84001847Y-74375515D01*
X84136404Y-74050665D01*
X84205000Y-73705807D01*
X84205000Y-73354193D01*
X84136404Y-73009335D01*
X84001847Y-72684485D01*
X83806500Y-72392129D01*
X83557871Y-72143500D01*
X83265515Y-71948153D01*
X82940665Y-71813596D01*
X82897450Y-71805000D01*
X122842550Y-71805000D01*
X122799335Y-71813596D01*
X122474485Y-71948153D01*
X122182129Y-72143500D01*
X121933500Y-72392129D01*
X121738153Y-72684485D01*
X121603596Y-73009335D01*
X121535000Y-73354193D01*
X121535000Y-73705807D01*
X121603596Y-74050665D01*
X121738153Y-74375515D01*
X121933500Y-74667871D01*
X122182129Y-74916500D01*
X122404374Y-75065000D01*
X107564284Y-75065000D01*
X107359727Y-74928320D01*
X107314134Y-74909435D01*
X107341727Y-74898005D01*
X107570535Y-74745120D01*
X107765120Y-74550535D01*
X107918005Y-74321727D01*
X107950000Y-74244485D01*
X107981995Y-74321727D01*
X108134880Y-74550535D01*
X108329465Y-74745120D01*
X108558273Y-74898005D01*
X108812510Y-75003314D01*
X109082408Y-75057000D01*
X109357592Y-75057000D01*
X109627490Y-75003314D01*
X109881727Y-74898005D01*
X110110535Y-74745120D01*
X110230090Y-74625565D01*
X110974040Y-74625565D01*
X111041020Y-74865656D01*
X111290048Y-74982756D01*
X111557135Y-75049023D01*
X111832017Y-75061910D01*
X112104133Y-75020922D01*
X112363023Y-74927636D01*
X112478980Y-74865656D01*
X112545960Y-74625565D01*
X111760000Y-73839605D01*
X110974040Y-74625565D01*
X110230090Y-74625565D01*
X110305120Y-74550535D01*
X110458005Y-74321727D01*
X110487692Y-74250057D01*
X110492364Y-74263023D01*
X110554344Y-74378980D01*
X110794435Y-74445960D01*
X111580395Y-73660000D01*
X111939605Y-73660000D01*
X112725565Y-74445960D01*
X112965656Y-74378980D01*
X113082756Y-74129952D01*
X113149023Y-73862865D01*
X113161910Y-73587983D01*
X113120922Y-73315867D01*
X113027636Y-73056977D01*
X112965656Y-72941020D01*
X112725565Y-72874040D01*
X111939605Y-73660000D01*
X111580395Y-73660000D01*
X110794435Y-72874040D01*
X110554344Y-72941020D01*
X110490515Y-73076760D01*
X110458005Y-72998273D01*
X110305120Y-72769465D01*
X110230090Y-72694435D01*
X110974040Y-72694435D01*
X111760000Y-73480395D01*
X112545960Y-72694435D01*
X112478980Y-72454344D01*
X112229952Y-72337244D01*
X111962865Y-72270977D01*
X111687983Y-72258090D01*
X111415867Y-72299078D01*
X111156977Y-72392364D01*
X111041020Y-72454344D01*
X110974040Y-72694435D01*
X110230090Y-72694435D01*
X110110535Y-72574880D01*
X109881727Y-72421995D01*
X109627490Y-72316686D01*
X109357592Y-72263000D01*
X109082408Y-72263000D01*
X108812510Y-72316686D01*
X108558273Y-72421995D01*
X108329465Y-72574880D01*
X108134880Y-72769465D01*
X107981995Y-72998273D01*
X107950000Y-73075515D01*
X107918005Y-72998273D01*
X107765120Y-72769465D01*
X107570535Y-72574880D01*
X107341727Y-72421995D01*
X107087490Y-72316686D01*
X106817592Y-72263000D01*
X106542408Y-72263000D01*
X106272510Y-72316686D01*
X106018273Y-72421995D01*
X105789465Y-72574880D01*
X105594880Y-72769465D01*
X105441995Y-72998273D01*
X105410000Y-73075515D01*
X105378005Y-72998273D01*
X105225120Y-72769465D01*
X105030535Y-72574880D01*
X104801727Y-72421995D01*
X104547490Y-72316686D01*
X104277592Y-72263000D01*
X104002408Y-72263000D01*
X103732510Y-72316686D01*
X103478273Y-72421995D01*
X103249465Y-72574880D01*
X103054880Y-72769465D01*
X102901995Y-72998273D01*
X102870000Y-73075515D01*
X102838005Y-72998273D01*
X102685120Y-72769465D01*
X102490535Y-72574880D01*
X102261727Y-72421995D01*
X102007490Y-72316686D01*
X101737592Y-72263000D01*
X101462408Y-72263000D01*
X101192510Y-72316686D01*
X100938273Y-72421995D01*
X100709465Y-72574880D01*
X100514880Y-72769465D01*
X100361995Y-72998273D01*
X100330000Y-73075515D01*
X100298005Y-72998273D01*
X100145120Y-72769465D01*
X99950535Y-72574880D01*
X99721727Y-72421995D01*
X99467490Y-72316686D01*
X99197592Y-72263000D01*
X98922408Y-72263000D01*
X98652510Y-72316686D01*
X98398273Y-72421995D01*
X98169465Y-72574880D01*
X97974880Y-72769465D01*
X97821995Y-72998273D01*
X97790000Y-73075515D01*
X97758005Y-72998273D01*
X97605120Y-72769465D01*
X97410535Y-72574880D01*
X97181727Y-72421995D01*
X96927490Y-72316686D01*
X96657592Y-72263000D01*
X96382408Y-72263000D01*
X96112510Y-72316686D01*
X95858273Y-72421995D01*
X95629465Y-72574880D01*
X95434880Y-72769465D01*
X95376080Y-72857465D01*
X95367812Y-72773518D01*
X95331502Y-72653820D01*
X95272537Y-72543506D01*
X95193185Y-72446815D01*
X95096494Y-72367463D01*
X94986180Y-72308498D01*
X94866482Y-72272188D01*
X94742000Y-72259928D01*
X93218000Y-72259928D01*
X93093518Y-72272188D01*
X92973820Y-72308498D01*
X92863506Y-72367463D01*
X92766815Y-72446815D01*
X92687463Y-72543506D01*
X92628498Y-72653820D01*
X92592188Y-72773518D01*
X92579928Y-72898000D01*
X92579928Y-74422000D01*
X92592188Y-74546482D01*
X92628498Y-74666180D01*
X92687463Y-74776494D01*
X92766815Y-74873185D01*
X92863506Y-74952537D01*
X92973820Y-75011502D01*
X93093518Y-75047812D01*
X93218000Y-75060072D01*
X94742000Y-75060072D01*
X94866482Y-75047812D01*
X94986180Y-75011502D01*
X95096494Y-74952537D01*
X95193185Y-74873185D01*
X95272537Y-74776494D01*
X95331502Y-74666180D01*
X95367812Y-74546482D01*
X95376080Y-74462535D01*
X95434880Y-74550535D01*
X95629465Y-74745120D01*
X95858273Y-74898005D01*
X96112510Y-75003314D01*
X96382408Y-75057000D01*
X96657592Y-75057000D01*
X96927490Y-75003314D01*
X97181727Y-74898005D01*
X97410535Y-74745120D01*
X97605120Y-74550535D01*
X97758005Y-74321727D01*
X97790000Y-74244485D01*
X97821995Y-74321727D01*
X97974880Y-74550535D01*
X98169465Y-74745120D01*
X98398273Y-74898005D01*
X98652510Y-75003314D01*
X98922408Y-75057000D01*
X99197592Y-75057000D01*
X99467490Y-75003314D01*
X99721727Y-74898005D01*
X99950535Y-74745120D01*
X100145120Y-74550535D01*
X100298005Y-74321727D01*
X100330000Y-74244485D01*
X100361995Y-74321727D01*
X100514880Y-74550535D01*
X100709465Y-74745120D01*
X100938273Y-74898005D01*
X101192510Y-75003314D01*
X101462408Y-75057000D01*
X101737592Y-75057000D01*
X102007490Y-75003314D01*
X102261727Y-74898005D01*
X102490535Y-74745120D01*
X102685120Y-74550535D01*
X102838005Y-74321727D01*
X102870000Y-74244485D01*
X102901995Y-74321727D01*
X103054880Y-74550535D01*
X103249465Y-74745120D01*
X103478273Y-74898005D01*
X103732510Y-75003314D01*
X104002408Y-75057000D01*
X104277592Y-75057000D01*
X104547490Y-75003314D01*
X104801727Y-74898005D01*
X105030535Y-74745120D01*
X105225120Y-74550535D01*
X105378005Y-74321727D01*
X105410000Y-74244485D01*
X105441995Y-74321727D01*
X105594880Y-74550535D01*
X105789465Y-74745120D01*
X106018273Y-74898005D01*
X106045866Y-74909435D01*
X106000273Y-74928320D01*
X105765241Y-75085363D01*
X105565363Y-75285241D01*
X105408320Y-75520273D01*
X105300147Y-75781426D01*
X105245000Y-76058665D01*
X105245000Y-76341335D01*
X105300147Y-76618574D01*
X105306951Y-76635000D01*
X94593285Y-76635000D01*
X94470256Y-76552795D01*
X94281898Y-76474774D01*
X94081939Y-76435000D01*
X93878061Y-76435000D01*
X93678102Y-76474774D01*
X93489744Y-76552795D01*
X93320226Y-76666063D01*
X93176063Y-76810226D01*
X93062795Y-76979744D01*
X92984774Y-77168102D01*
X92945000Y-77368061D01*
X92945000Y-77571939D01*
X92984774Y-77771898D01*
X93062795Y-77960256D01*
X93176063Y-78129774D01*
X93320226Y-78273937D01*
X93489744Y-78387205D01*
X93678102Y-78465226D01*
X93878061Y-78505000D01*
X94081939Y-78505000D01*
X94281898Y-78465226D01*
X94470256Y-78387205D01*
X94593285Y-78305000D01*
X98119907Y-78305000D01*
X98064774Y-78438102D01*
X98025000Y-78638061D01*
X98025000Y-78841939D01*
X98064774Y-79041898D01*
X98142795Y-79230256D01*
X98256063Y-79399774D01*
X98400226Y-79543937D01*
X98569744Y-79657205D01*
X98758102Y-79735226D01*
X98958061Y-79775000D01*
X99161939Y-79775000D01*
X99361898Y-79735226D01*
X99550256Y-79657205D01*
X99673285Y-79575000D01*
X100659907Y-79575000D01*
X100604774Y-79708102D01*
X100565000Y-79908061D01*
X100565000Y-80111939D01*
X100604774Y-80311898D01*
X100682795Y-80500256D01*
X100796063Y-80669774D01*
X100940226Y-80813937D01*
X101109744Y-80927205D01*
X101298102Y-81005226D01*
X101498061Y-81045000D01*
X101701939Y-81045000D01*
X101901898Y-81005226D01*
X102090256Y-80927205D01*
X102213285Y-80845000D01*
X103199902Y-80845000D01*
X103144774Y-80978090D01*
X103105000Y-81178049D01*
X103105000Y-81381927D01*
X103144774Y-81581886D01*
X103222795Y-81770244D01*
X103336063Y-81939762D01*
X103480226Y-82083925D01*
X103649744Y-82197193D01*
X103838102Y-82275214D01*
X104038061Y-82314988D01*
X104241939Y-82314988D01*
X104441898Y-82275214D01*
X104630256Y-82197193D01*
X104753267Y-82115000D01*
X108279907Y-82115000D01*
X108224774Y-82248102D01*
X108185000Y-82448061D01*
X108185000Y-82651939D01*
X108224774Y-82851898D01*
X108279907Y-82985000D01*
X106023285Y-82985000D01*
X105900256Y-82902795D01*
X105711898Y-82824774D01*
X105511939Y-82785000D01*
X105308061Y-82785000D01*
X105108102Y-82824774D01*
X104919744Y-82902795D01*
X104750226Y-83016063D01*
X104606063Y-83160226D01*
X104492795Y-83329744D01*
X104414774Y-83518102D01*
X104375000Y-83718061D01*
X104375000Y-83921939D01*
X104414774Y-84121898D01*
X104469907Y-84255000D01*
X98403285Y-84255000D01*
X98280256Y-84172795D01*
X98091898Y-84094774D01*
X97891939Y-84055000D01*
X97688061Y-84055000D01*
X97488102Y-84094774D01*
X97299744Y-84172795D01*
X97130226Y-84286063D01*
X96986063Y-84430226D01*
X96872795Y-84599744D01*
X96794774Y-84788102D01*
X96755000Y-84988061D01*
X96755000Y-85191939D01*
X96794774Y-85391898D01*
X96872795Y-85580256D01*
X96986063Y-85749774D01*
X97130226Y-85893937D01*
X97299744Y-86007205D01*
X97488102Y-86085226D01*
X97688061Y-86125000D01*
X97891939Y-86125000D01*
X98058039Y-86091961D01*
X98025000Y-86258061D01*
X98025000Y-86461939D01*
X98064774Y-86661898D01*
X98142795Y-86850256D01*
X98256063Y-87019774D01*
X98400226Y-87163937D01*
X98569744Y-87277205D01*
X98758102Y-87355226D01*
X98958061Y-87395000D01*
X99161939Y-87395000D01*
X99361898Y-87355226D01*
X99550256Y-87277205D01*
X99673285Y-87195000D01*
X192426715Y-87195000D01*
X192549744Y-87277205D01*
X192738102Y-87355226D01*
X192938061Y-87395000D01*
X193141939Y-87395000D01*
X193341898Y-87355226D01*
X193530256Y-87277205D01*
X193653285Y-87195000D01*
X194200299Y-87195000D01*
X194204188Y-87234482D01*
X194240498Y-87354180D01*
X194299463Y-87464494D01*
X194378815Y-87561185D01*
X194475506Y-87640537D01*
X194585820Y-87699502D01*
X194705518Y-87735812D01*
X194830000Y-87748072D01*
X196330000Y-87748072D01*
X196454482Y-87735812D01*
X196574180Y-87699502D01*
X196684494Y-87640537D01*
X196781185Y-87561185D01*
X196860537Y-87464494D01*
X196919502Y-87354180D01*
X196955812Y-87234482D01*
X196968072Y-87110000D01*
X196968072Y-85610000D01*
X196955812Y-85485518D01*
X196919502Y-85365820D01*
X196860537Y-85255506D01*
X196781185Y-85158815D01*
X196684494Y-85079463D01*
X196574180Y-85020498D01*
X196454482Y-84984188D01*
X196330000Y-84971928D01*
X194830000Y-84971928D01*
X194705518Y-84984188D01*
X194585820Y-85020498D01*
X194475506Y-85079463D01*
X194378815Y-85158815D01*
X194299463Y-85255506D01*
X194240498Y-85365820D01*
X194204188Y-85485518D01*
X194200299Y-85525000D01*
X193653285Y-85525000D01*
X193530256Y-85442795D01*
X193341898Y-85364774D01*
X193141939Y-85325000D01*
X192938061Y-85325000D01*
X192738102Y-85364774D01*
X192549744Y-85442795D01*
X192426715Y-85525000D01*
X145720093Y-85525000D01*
X145775226Y-85391898D01*
X145815000Y-85191939D01*
X145815000Y-84988061D01*
X145775226Y-84788102D01*
X145720093Y-84655000D01*
X169566715Y-84655000D01*
X169689744Y-84737205D01*
X169878102Y-84815226D01*
X170078061Y-84855000D01*
X170281939Y-84855000D01*
X170481898Y-84815226D01*
X170670256Y-84737205D01*
X170839774Y-84623937D01*
X170983937Y-84479774D01*
X171097205Y-84310256D01*
X171175226Y-84121898D01*
X171215000Y-83921939D01*
X171215000Y-83718061D01*
X171175226Y-83518102D01*
X171120093Y-83385000D01*
X205126715Y-83385000D01*
X205249744Y-83467205D01*
X205438102Y-83545226D01*
X205583226Y-83574093D01*
X211255000Y-89245868D01*
X211255001Y-90826714D01*
X211172795Y-90949744D01*
X211094774Y-91138102D01*
X211055000Y-91338061D01*
X211055000Y-91541939D01*
X211094774Y-91741898D01*
X211172795Y-91930256D01*
X211286063Y-92099774D01*
X211430226Y-92243937D01*
X211599744Y-92357205D01*
X211788102Y-92435226D01*
X211988061Y-92475000D01*
X212191939Y-92475000D01*
X212391898Y-92435226D01*
X212580256Y-92357205D01*
X212749774Y-92243937D01*
X212866422Y-92127289D01*
X214010558Y-93271426D01*
X214036709Y-93303291D01*
X214163854Y-93407636D01*
X214308913Y-93485172D01*
X214466311Y-93532918D01*
X214519627Y-93538169D01*
X214524188Y-93584482D01*
X214560498Y-93704180D01*
X214619463Y-93814494D01*
X214698815Y-93911185D01*
X214795506Y-93990537D01*
X214905820Y-94049502D01*
X215025518Y-94085812D01*
X215150000Y-94098072D01*
X216650000Y-94098072D01*
X216774482Y-94085812D01*
X216894180Y-94049502D01*
X217004494Y-93990537D01*
X217101185Y-93911185D01*
X217180537Y-93814494D01*
X217239502Y-93704180D01*
X217275812Y-93584482D01*
X217288072Y-93460000D01*
X217288072Y-91960000D01*
X217275812Y-91835518D01*
X217239502Y-91715820D01*
X217180537Y-91605506D01*
X217101185Y-91508815D01*
X217004494Y-91429463D01*
X216894180Y-91370498D01*
X216774482Y-91334188D01*
X216650000Y-91321928D01*
X215150000Y-91321928D01*
X215025518Y-91334188D01*
X214905820Y-91370498D01*
X214795506Y-91429463D01*
X214698815Y-91508815D01*
X214658638Y-91557771D01*
X214195000Y-91094133D01*
X214195000Y-88150000D01*
X214511928Y-88150000D01*
X214511928Y-89650000D01*
X214524188Y-89774482D01*
X214560498Y-89894180D01*
X214619463Y-90004494D01*
X214698815Y-90101185D01*
X214795506Y-90180537D01*
X214905820Y-90239502D01*
X215025518Y-90275812D01*
X215150000Y-90288072D01*
X216650000Y-90288072D01*
X216774482Y-90275812D01*
X216894180Y-90239502D01*
X217004494Y-90180537D01*
X217101185Y-90101185D01*
X217180537Y-90004494D01*
X217239502Y-89894180D01*
X217275812Y-89774482D01*
X217288072Y-89650000D01*
X217288072Y-88150000D01*
X217275812Y-88025518D01*
X217239502Y-87905820D01*
X217180537Y-87795506D01*
X217101185Y-87698815D01*
X217004494Y-87619463D01*
X216894180Y-87560498D01*
X216774482Y-87524188D01*
X216650000Y-87511928D01*
X215150000Y-87511928D01*
X215025518Y-87524188D01*
X214905820Y-87560498D01*
X214795506Y-87619463D01*
X214698815Y-87698815D01*
X214619463Y-87795506D01*
X214560498Y-87905820D01*
X214524188Y-88025518D01*
X214511928Y-88150000D01*
X214195000Y-88150000D01*
X214195000Y-87671018D01*
X214199040Y-87629999D01*
X214182918Y-87466311D01*
X214135172Y-87308913D01*
X214057636Y-87163854D01*
X214013439Y-87110000D01*
X213953291Y-87036709D01*
X213921428Y-87010560D01*
X207755867Y-80845000D01*
X209204133Y-80845000D01*
X214010563Y-85651432D01*
X214036709Y-85683291D01*
X214068568Y-85709437D01*
X214068570Y-85709439D01*
X214163854Y-85787636D01*
X214308913Y-85865172D01*
X214466311Y-85912918D01*
X214519627Y-85918169D01*
X214524188Y-85964482D01*
X214560498Y-86084180D01*
X214619463Y-86194494D01*
X214698815Y-86291185D01*
X214795506Y-86370537D01*
X214905820Y-86429502D01*
X215025518Y-86465812D01*
X215150000Y-86478072D01*
X216650000Y-86478072D01*
X216774482Y-86465812D01*
X216894180Y-86429502D01*
X217004494Y-86370537D01*
X217101185Y-86291185D01*
X217180537Y-86194494D01*
X217239502Y-86084180D01*
X217275812Y-85964482D01*
X217288072Y-85840000D01*
X217288072Y-84340000D01*
X217275812Y-84215518D01*
X217239502Y-84095820D01*
X217180537Y-83985506D01*
X217101185Y-83888815D01*
X217004494Y-83809463D01*
X216894180Y-83750498D01*
X216774482Y-83714188D01*
X216650000Y-83701928D01*
X215150000Y-83701928D01*
X215025518Y-83714188D01*
X214905820Y-83750498D01*
X214795506Y-83809463D01*
X214698815Y-83888815D01*
X214658639Y-83937770D01*
X210295867Y-79575000D01*
X211744133Y-79575000D01*
X214010559Y-81841427D01*
X214036709Y-81873291D01*
X214163854Y-81977636D01*
X214308913Y-82055172D01*
X214466311Y-82102918D01*
X214519627Y-82108169D01*
X214524188Y-82154482D01*
X214560498Y-82274180D01*
X214619463Y-82384494D01*
X214698815Y-82481185D01*
X214795506Y-82560537D01*
X214905820Y-82619502D01*
X215025518Y-82655812D01*
X215150000Y-82668072D01*
X216650000Y-82668072D01*
X216774482Y-82655812D01*
X216894180Y-82619502D01*
X217004494Y-82560537D01*
X217101185Y-82481185D01*
X217180537Y-82384494D01*
X217239502Y-82274180D01*
X217275812Y-82154482D01*
X217288072Y-82030000D01*
X217288072Y-80530000D01*
X217275812Y-80405518D01*
X217239502Y-80285820D01*
X217180537Y-80175506D01*
X217101185Y-80078815D01*
X217004494Y-79999463D01*
X216894180Y-79940498D01*
X216774482Y-79904188D01*
X216650000Y-79891928D01*
X215150000Y-79891928D01*
X215025518Y-79904188D01*
X214905820Y-79940498D01*
X214795506Y-79999463D01*
X214698815Y-80078815D01*
X214658638Y-80127771D01*
X212835867Y-78305000D01*
X214520299Y-78305000D01*
X214524188Y-78344482D01*
X214560498Y-78464180D01*
X214619463Y-78574494D01*
X214698815Y-78671185D01*
X214795506Y-78750537D01*
X214905820Y-78809502D01*
X215025518Y-78845812D01*
X215150000Y-78858072D01*
X216650000Y-78858072D01*
X216774482Y-78845812D01*
X216894180Y-78809502D01*
X217004494Y-78750537D01*
X217101185Y-78671185D01*
X217180537Y-78574494D01*
X217239502Y-78464180D01*
X217275812Y-78344482D01*
X217288072Y-78220000D01*
X217288072Y-76720000D01*
X217275812Y-76595518D01*
X217239502Y-76475820D01*
X217180537Y-76365506D01*
X217101185Y-76268815D01*
X217004494Y-76189463D01*
X216894180Y-76130498D01*
X216893215Y-76130205D01*
X223825000Y-76130205D01*
X223825001Y-81349796D01*
X223857340Y-81678137D01*
X223985139Y-82099436D01*
X224192675Y-82487707D01*
X224471971Y-82828030D01*
X224812294Y-83107326D01*
X225200565Y-83314862D01*
X225621864Y-83442661D01*
X226060000Y-83485814D01*
X226498137Y-83442661D01*
X226919436Y-83314862D01*
X227307707Y-83107326D01*
X227648030Y-82828030D01*
X227927326Y-82487707D01*
X228134862Y-82099436D01*
X228262661Y-81678137D01*
X228295000Y-81349796D01*
X228295000Y-76130204D01*
X228262661Y-75801863D01*
X228134862Y-75380564D01*
X227927326Y-74992293D01*
X227648030Y-74651970D01*
X227307707Y-74372674D01*
X226919435Y-74165138D01*
X226498136Y-74037339D01*
X226060000Y-73994186D01*
X225621863Y-74037339D01*
X225200564Y-74165138D01*
X224812293Y-74372674D01*
X224471970Y-74651970D01*
X224192674Y-74992293D01*
X223985138Y-75380565D01*
X223857339Y-75801864D01*
X223825000Y-76130205D01*
X216893215Y-76130205D01*
X216774482Y-76094188D01*
X216650000Y-76081928D01*
X215150000Y-76081928D01*
X215025518Y-76094188D01*
X214905820Y-76130498D01*
X214795506Y-76189463D01*
X214698815Y-76268815D01*
X214619463Y-76365506D01*
X214560498Y-76475820D01*
X214524188Y-76595518D01*
X214520299Y-76635000D01*
X204573049Y-76635000D01*
X204579853Y-76618574D01*
X204635000Y-76341335D01*
X204635000Y-76058665D01*
X204579853Y-75781426D01*
X204471680Y-75520273D01*
X204314637Y-75285241D01*
X204114759Y-75085363D01*
X203879727Y-74928320D01*
X203834134Y-74909435D01*
X203861727Y-74898005D01*
X204090535Y-74745120D01*
X204285120Y-74550535D01*
X204438005Y-74321727D01*
X204470000Y-74244485D01*
X204501995Y-74321727D01*
X204654880Y-74550535D01*
X204849465Y-74745120D01*
X205078273Y-74898005D01*
X205332510Y-75003314D01*
X205602408Y-75057000D01*
X205877592Y-75057000D01*
X206147490Y-75003314D01*
X206401727Y-74898005D01*
X206630535Y-74745120D01*
X206750090Y-74625565D01*
X207494040Y-74625565D01*
X207561020Y-74865656D01*
X207810048Y-74982756D01*
X208077135Y-75049023D01*
X208352017Y-75061910D01*
X208624133Y-75020922D01*
X208883023Y-74927636D01*
X208998980Y-74865656D01*
X209065960Y-74625565D01*
X208280000Y-73839605D01*
X207494040Y-74625565D01*
X206750090Y-74625565D01*
X206825120Y-74550535D01*
X206978005Y-74321727D01*
X207007692Y-74250057D01*
X207012364Y-74263023D01*
X207074344Y-74378980D01*
X207314435Y-74445960D01*
X208100395Y-73660000D01*
X208459605Y-73660000D01*
X209245565Y-74445960D01*
X209485656Y-74378980D01*
X209602756Y-74129952D01*
X209669023Y-73862865D01*
X209681910Y-73587983D01*
X209640922Y-73315867D01*
X209547636Y-73056977D01*
X209485656Y-72941020D01*
X209245565Y-72874040D01*
X208459605Y-73660000D01*
X208100395Y-73660000D01*
X207314435Y-72874040D01*
X207074344Y-72941020D01*
X207010515Y-73076760D01*
X206978005Y-72998273D01*
X206825120Y-72769465D01*
X206750090Y-72694435D01*
X207494040Y-72694435D01*
X208280000Y-73480395D01*
X209065960Y-72694435D01*
X208998980Y-72454344D01*
X208749952Y-72337244D01*
X208482865Y-72270977D01*
X208207983Y-72258090D01*
X207935867Y-72299078D01*
X207676977Y-72392364D01*
X207561020Y-72454344D01*
X207494040Y-72694435D01*
X206750090Y-72694435D01*
X206630535Y-72574880D01*
X206401727Y-72421995D01*
X206147490Y-72316686D01*
X205877592Y-72263000D01*
X205602408Y-72263000D01*
X205332510Y-72316686D01*
X205078273Y-72421995D01*
X204849465Y-72574880D01*
X204654880Y-72769465D01*
X204501995Y-72998273D01*
X204470000Y-73075515D01*
X204438005Y-72998273D01*
X204285120Y-72769465D01*
X204090535Y-72574880D01*
X203861727Y-72421995D01*
X203607490Y-72316686D01*
X203337592Y-72263000D01*
X203062408Y-72263000D01*
X202792510Y-72316686D01*
X202538273Y-72421995D01*
X202309465Y-72574880D01*
X202114880Y-72769465D01*
X201961995Y-72998273D01*
X201930000Y-73075515D01*
X201898005Y-72998273D01*
X201745120Y-72769465D01*
X201550535Y-72574880D01*
X201321727Y-72421995D01*
X201067490Y-72316686D01*
X200797592Y-72263000D01*
X200522408Y-72263000D01*
X200252510Y-72316686D01*
X199998273Y-72421995D01*
X199769465Y-72574880D01*
X199574880Y-72769465D01*
X199421995Y-72998273D01*
X199390000Y-73075515D01*
X199358005Y-72998273D01*
X199205120Y-72769465D01*
X199010535Y-72574880D01*
X198781727Y-72421995D01*
X198527490Y-72316686D01*
X198257592Y-72263000D01*
X197982408Y-72263000D01*
X197712510Y-72316686D01*
X197458273Y-72421995D01*
X197229465Y-72574880D01*
X197034880Y-72769465D01*
X196881995Y-72998273D01*
X196850000Y-73075515D01*
X196818005Y-72998273D01*
X196665120Y-72769465D01*
X196470535Y-72574880D01*
X196241727Y-72421995D01*
X195987490Y-72316686D01*
X195717592Y-72263000D01*
X195442408Y-72263000D01*
X195172510Y-72316686D01*
X194918273Y-72421995D01*
X194689465Y-72574880D01*
X194494880Y-72769465D01*
X194341995Y-72998273D01*
X194310000Y-73075515D01*
X194278005Y-72998273D01*
X194125120Y-72769465D01*
X193930535Y-72574880D01*
X193701727Y-72421995D01*
X193447490Y-72316686D01*
X193177592Y-72263000D01*
X192902408Y-72263000D01*
X192632510Y-72316686D01*
X192378273Y-72421995D01*
X192149465Y-72574880D01*
X191954880Y-72769465D01*
X191896080Y-72857465D01*
X191887812Y-72773518D01*
X191851502Y-72653820D01*
X191792537Y-72543506D01*
X191713185Y-72446815D01*
X191616494Y-72367463D01*
X191506180Y-72308498D01*
X191386482Y-72272188D01*
X191262000Y-72259928D01*
X189738000Y-72259928D01*
X189613518Y-72272188D01*
X189493820Y-72308498D01*
X189383506Y-72367463D01*
X189286815Y-72446815D01*
X189207463Y-72543506D01*
X189148498Y-72653820D01*
X189112188Y-72773518D01*
X189099928Y-72898000D01*
X189099928Y-74422000D01*
X189112188Y-74546482D01*
X189148498Y-74666180D01*
X189207463Y-74776494D01*
X189286815Y-74873185D01*
X189383506Y-74952537D01*
X189493820Y-75011502D01*
X189613518Y-75047812D01*
X189738000Y-75060072D01*
X191262000Y-75060072D01*
X191386482Y-75047812D01*
X191506180Y-75011502D01*
X191616494Y-74952537D01*
X191713185Y-74873185D01*
X191792537Y-74776494D01*
X191851502Y-74666180D01*
X191887812Y-74546482D01*
X191896080Y-74462535D01*
X191954880Y-74550535D01*
X192149465Y-74745120D01*
X192378273Y-74898005D01*
X192632510Y-75003314D01*
X192902408Y-75057000D01*
X193177592Y-75057000D01*
X193447490Y-75003314D01*
X193701727Y-74898005D01*
X193930535Y-74745120D01*
X194125120Y-74550535D01*
X194278005Y-74321727D01*
X194310000Y-74244485D01*
X194341995Y-74321727D01*
X194494880Y-74550535D01*
X194689465Y-74745120D01*
X194918273Y-74898005D01*
X195172510Y-75003314D01*
X195442408Y-75057000D01*
X195717592Y-75057000D01*
X195987490Y-75003314D01*
X196241727Y-74898005D01*
X196470535Y-74745120D01*
X196665120Y-74550535D01*
X196818005Y-74321727D01*
X196850000Y-74244485D01*
X196881995Y-74321727D01*
X197034880Y-74550535D01*
X197229465Y-74745120D01*
X197458273Y-74898005D01*
X197712510Y-75003314D01*
X197982408Y-75057000D01*
X198257592Y-75057000D01*
X198527490Y-75003314D01*
X198781727Y-74898005D01*
X199010535Y-74745120D01*
X199205120Y-74550535D01*
X199358005Y-74321727D01*
X199390000Y-74244485D01*
X199421995Y-74321727D01*
X199574880Y-74550535D01*
X199769465Y-74745120D01*
X199998273Y-74898005D01*
X200252510Y-75003314D01*
X200522408Y-75057000D01*
X200797592Y-75057000D01*
X201067490Y-75003314D01*
X201321727Y-74898005D01*
X201550535Y-74745120D01*
X201745120Y-74550535D01*
X201898005Y-74321727D01*
X201930000Y-74244485D01*
X201961995Y-74321727D01*
X202114880Y-74550535D01*
X202309465Y-74745120D01*
X202538273Y-74898005D01*
X202565866Y-74909435D01*
X202520273Y-74928320D01*
X202315716Y-75065000D01*
X179855626Y-75065000D01*
X180077871Y-74916500D01*
X180326500Y-74667871D01*
X180521847Y-74375515D01*
X180656404Y-74050665D01*
X180725000Y-73705807D01*
X180725000Y-73354193D01*
X180656404Y-73009335D01*
X180521847Y-72684485D01*
X180326500Y-72392129D01*
X180077871Y-72143500D01*
X179785515Y-71948153D01*
X179460665Y-71813596D01*
X179417450Y-71805000D01*
X219362550Y-71805000D01*
X219319335Y-71813596D01*
X218994485Y-71948153D01*
X218702129Y-72143500D01*
X218453500Y-72392129D01*
X218258153Y-72684485D01*
X218123596Y-73009335D01*
X218055000Y-73354193D01*
X218055000Y-73705807D01*
X218123596Y-74050665D01*
X218258153Y-74375515D01*
X218453500Y-74667871D01*
X218702129Y-74916500D01*
X218994485Y-75111847D01*
X219319335Y-75246404D01*
X219664193Y-75315000D01*
X220015807Y-75315000D01*
X220360665Y-75246404D01*
X220685515Y-75111847D01*
X220977871Y-74916500D01*
X221226500Y-74667871D01*
X221421847Y-74375515D01*
X221556404Y-74050665D01*
X221625000Y-73705807D01*
X221625000Y-73354193D01*
X221556404Y-73009335D01*
X221421847Y-72684485D01*
X221226500Y-72392129D01*
X220977871Y-72143500D01*
X220685515Y-71948153D01*
X220360665Y-71813596D01*
X220317450Y-71805000D01*
X226029495Y-71805000D01*
X226837803Y-71877139D01*
X227591023Y-72083197D01*
X228295852Y-72419384D01*
X228930002Y-72875065D01*
X229473441Y-73435851D01*
X229908981Y-74084001D01*
X230222862Y-74799043D01*
X230406424Y-75563636D01*
X230455001Y-76225126D01*
X230455000Y-111729494D01*
X230382861Y-112537805D01*
X230176803Y-113291023D01*
X229840616Y-113995852D01*
X229384932Y-114630005D01*
X228824149Y-115173441D01*
X228175996Y-115608982D01*
X227460956Y-115922863D01*
X226696364Y-116106424D01*
X226034887Y-116155000D01*
X220317450Y-116155000D01*
X220360665Y-116146404D01*
X220685515Y-116011847D01*
X220977871Y-115816500D01*
X221226500Y-115567871D01*
X221421847Y-115275515D01*
X221556404Y-114950665D01*
X221625000Y-114605807D01*
X221625000Y-114254193D01*
X221556404Y-113909335D01*
X221421847Y-113584485D01*
X221226500Y-113292129D01*
X220977871Y-113043500D01*
X220685515Y-112848153D01*
X220360665Y-112713596D01*
X220015807Y-112645000D01*
X219664193Y-112645000D01*
X219319335Y-112713596D01*
X218994485Y-112848153D01*
X218702129Y-113043500D01*
X218453500Y-113292129D01*
X218258153Y-113584485D01*
X218123596Y-113909335D01*
X218055000Y-114254193D01*
X218055000Y-114605807D01*
X218123596Y-114950665D01*
X218258153Y-115275515D01*
X218453500Y-115567871D01*
X218702129Y-115816500D01*
X218994485Y-116011847D01*
X219319335Y-116146404D01*
X219362550Y-116155000D01*
X179417450Y-116155000D01*
X179460665Y-116146404D01*
X179785515Y-116011847D01*
X180077871Y-115816500D01*
X180326500Y-115567871D01*
X180521847Y-115275515D01*
X180656404Y-114950665D01*
X180725000Y-114605807D01*
X180725000Y-114254193D01*
X180656404Y-113909335D01*
X180521847Y-113584485D01*
X180490787Y-113538000D01*
X189099928Y-113538000D01*
X189099928Y-115062000D01*
X189112188Y-115186482D01*
X189148498Y-115306180D01*
X189207463Y-115416494D01*
X189286815Y-115513185D01*
X189383506Y-115592537D01*
X189493820Y-115651502D01*
X189613518Y-115687812D01*
X189738000Y-115700072D01*
X191262000Y-115700072D01*
X191386482Y-115687812D01*
X191506180Y-115651502D01*
X191616494Y-115592537D01*
X191713185Y-115513185D01*
X191792537Y-115416494D01*
X191851502Y-115306180D01*
X191887812Y-115186482D01*
X191896080Y-115102535D01*
X191954880Y-115190535D01*
X192149465Y-115385120D01*
X192378273Y-115538005D01*
X192632510Y-115643314D01*
X192902408Y-115697000D01*
X193177592Y-115697000D01*
X193447490Y-115643314D01*
X193701727Y-115538005D01*
X193930535Y-115385120D01*
X194125120Y-115190535D01*
X194278005Y-114961727D01*
X194310000Y-114884485D01*
X194341995Y-114961727D01*
X194494880Y-115190535D01*
X194689465Y-115385120D01*
X194918273Y-115538005D01*
X195172510Y-115643314D01*
X195442408Y-115697000D01*
X195717592Y-115697000D01*
X195987490Y-115643314D01*
X196241727Y-115538005D01*
X196470535Y-115385120D01*
X196665120Y-115190535D01*
X196818005Y-114961727D01*
X196850000Y-114884485D01*
X196881995Y-114961727D01*
X197034880Y-115190535D01*
X197229465Y-115385120D01*
X197458273Y-115538005D01*
X197712510Y-115643314D01*
X197982408Y-115697000D01*
X198257592Y-115697000D01*
X198527490Y-115643314D01*
X198781727Y-115538005D01*
X199010535Y-115385120D01*
X199205120Y-115190535D01*
X199358005Y-114961727D01*
X199390000Y-114884485D01*
X199421995Y-114961727D01*
X199574880Y-115190535D01*
X199769465Y-115385120D01*
X199998273Y-115538005D01*
X200252510Y-115643314D01*
X200522408Y-115697000D01*
X200797592Y-115697000D01*
X201067490Y-115643314D01*
X201321727Y-115538005D01*
X201550535Y-115385120D01*
X201745120Y-115190535D01*
X201898005Y-114961727D01*
X201930000Y-114884485D01*
X201961995Y-114961727D01*
X202114880Y-115190535D01*
X202309465Y-115385120D01*
X202538273Y-115538005D01*
X202792510Y-115643314D01*
X203062408Y-115697000D01*
X203337592Y-115697000D01*
X203607490Y-115643314D01*
X203861727Y-115538005D01*
X204090535Y-115385120D01*
X204285120Y-115190535D01*
X204438005Y-114961727D01*
X204470000Y-114884485D01*
X204501995Y-114961727D01*
X204654880Y-115190535D01*
X204849465Y-115385120D01*
X205078273Y-115538005D01*
X205332510Y-115643314D01*
X205602408Y-115697000D01*
X205877592Y-115697000D01*
X206147490Y-115643314D01*
X206401727Y-115538005D01*
X206630535Y-115385120D01*
X206825120Y-115190535D01*
X206978005Y-114961727D01*
X207010000Y-114884485D01*
X207041995Y-114961727D01*
X207194880Y-115190535D01*
X207389465Y-115385120D01*
X207618273Y-115538005D01*
X207872510Y-115643314D01*
X208142408Y-115697000D01*
X208417592Y-115697000D01*
X208687490Y-115643314D01*
X208941727Y-115538005D01*
X209170535Y-115385120D01*
X209365120Y-115190535D01*
X209518005Y-114961727D01*
X209623314Y-114707490D01*
X209677000Y-114437592D01*
X209677000Y-114162408D01*
X209623314Y-113892510D01*
X209518005Y-113638273D01*
X209365120Y-113409465D01*
X209170535Y-113214880D01*
X208941727Y-113061995D01*
X208687490Y-112956686D01*
X208417592Y-112903000D01*
X208142408Y-112903000D01*
X207872510Y-112956686D01*
X207618273Y-113061995D01*
X207389465Y-113214880D01*
X207194880Y-113409465D01*
X207041995Y-113638273D01*
X207010000Y-113715515D01*
X206978005Y-113638273D01*
X206825120Y-113409465D01*
X206630535Y-113214880D01*
X206401727Y-113061995D01*
X206147490Y-112956686D01*
X205877592Y-112903000D01*
X205602408Y-112903000D01*
X205332510Y-112956686D01*
X205078273Y-113061995D01*
X204849465Y-113214880D01*
X204654880Y-113409465D01*
X204501995Y-113638273D01*
X204470000Y-113715515D01*
X204438005Y-113638273D01*
X204285120Y-113409465D01*
X204090535Y-113214880D01*
X203861727Y-113061995D01*
X203607490Y-112956686D01*
X203337592Y-112903000D01*
X203062408Y-112903000D01*
X202792510Y-112956686D01*
X202538273Y-113061995D01*
X202309465Y-113214880D01*
X202114880Y-113409465D01*
X201961995Y-113638273D01*
X201930000Y-113715515D01*
X201898005Y-113638273D01*
X201745120Y-113409465D01*
X201550535Y-113214880D01*
X201321727Y-113061995D01*
X201067490Y-112956686D01*
X200797592Y-112903000D01*
X200522408Y-112903000D01*
X200252510Y-112956686D01*
X199998273Y-113061995D01*
X199769465Y-113214880D01*
X199574880Y-113409465D01*
X199421995Y-113638273D01*
X199390000Y-113715515D01*
X199358005Y-113638273D01*
X199205120Y-113409465D01*
X199010535Y-113214880D01*
X198781727Y-113061995D01*
X198527490Y-112956686D01*
X198257592Y-112903000D01*
X197982408Y-112903000D01*
X197712510Y-112956686D01*
X197458273Y-113061995D01*
X197229465Y-113214880D01*
X197034880Y-113409465D01*
X196881995Y-113638273D01*
X196850000Y-113715515D01*
X196818005Y-113638273D01*
X196665120Y-113409465D01*
X196470535Y-113214880D01*
X196241727Y-113061995D01*
X195987490Y-112956686D01*
X195717592Y-112903000D01*
X195442408Y-112903000D01*
X195172510Y-112956686D01*
X194918273Y-113061995D01*
X194689465Y-113214880D01*
X194494880Y-113409465D01*
X194341995Y-113638273D01*
X194310000Y-113715515D01*
X194278005Y-113638273D01*
X194125120Y-113409465D01*
X193930535Y-113214880D01*
X193701727Y-113061995D01*
X193447490Y-112956686D01*
X193177592Y-112903000D01*
X192902408Y-112903000D01*
X192632510Y-112956686D01*
X192378273Y-113061995D01*
X192149465Y-113214880D01*
X191954880Y-113409465D01*
X191896080Y-113497465D01*
X191887812Y-113413518D01*
X191851502Y-113293820D01*
X191792537Y-113183506D01*
X191713185Y-113086815D01*
X191616494Y-113007463D01*
X191506180Y-112948498D01*
X191386482Y-112912188D01*
X191262000Y-112899928D01*
X189738000Y-112899928D01*
X189613518Y-112912188D01*
X189493820Y-112948498D01*
X189383506Y-113007463D01*
X189286815Y-113086815D01*
X189207463Y-113183506D01*
X189148498Y-113293820D01*
X189112188Y-113413518D01*
X189099928Y-113538000D01*
X180490787Y-113538000D01*
X180326500Y-113292129D01*
X180077871Y-113043500D01*
X179785515Y-112848153D01*
X179460665Y-112713596D01*
X179115807Y-112645000D01*
X178764193Y-112645000D01*
X178419335Y-112713596D01*
X178094485Y-112848153D01*
X177802129Y-113043500D01*
X177553500Y-113292129D01*
X177358153Y-113584485D01*
X177223596Y-113909335D01*
X177155000Y-114254193D01*
X177155000Y-114605807D01*
X177223596Y-114950665D01*
X177358153Y-115275515D01*
X177553500Y-115567871D01*
X177802129Y-115816500D01*
X178094485Y-116011847D01*
X178419335Y-116146404D01*
X178462550Y-116155000D01*
X172057450Y-116155000D01*
X172100665Y-116146404D01*
X172425515Y-116011847D01*
X172717871Y-115816500D01*
X172966500Y-115567871D01*
X173161847Y-115275515D01*
X173296404Y-114950665D01*
X173365000Y-114605807D01*
X173365000Y-114254193D01*
X173296404Y-113909335D01*
X173161847Y-113584485D01*
X172966500Y-113292129D01*
X172717871Y-113043500D01*
X172425515Y-112848153D01*
X172100665Y-112713596D01*
X171755807Y-112645000D01*
X171404193Y-112645000D01*
X171059335Y-112713596D01*
X170734485Y-112848153D01*
X170442129Y-113043500D01*
X170193500Y-113292129D01*
X169998153Y-113584485D01*
X169863596Y-113909335D01*
X169795000Y-114254193D01*
X169795000Y-114605807D01*
X169863596Y-114950665D01*
X169998153Y-115275515D01*
X170193500Y-115567871D01*
X170442129Y-115816500D01*
X170734485Y-116011847D01*
X171059335Y-116146404D01*
X171102550Y-116155000D01*
X131157450Y-116155000D01*
X131200665Y-116146404D01*
X131525515Y-116011847D01*
X131817871Y-115816500D01*
X132066500Y-115567871D01*
X132261847Y-115275515D01*
X132396404Y-114950665D01*
X132465000Y-114605807D01*
X132465000Y-114254193D01*
X132396404Y-113909335D01*
X132261847Y-113584485D01*
X132230787Y-113538000D01*
X140839928Y-113538000D01*
X140839928Y-115062000D01*
X140852188Y-115186482D01*
X140888498Y-115306180D01*
X140947463Y-115416494D01*
X141026815Y-115513185D01*
X141123506Y-115592537D01*
X141233820Y-115651502D01*
X141353518Y-115687812D01*
X141478000Y-115700072D01*
X143002000Y-115700072D01*
X143126482Y-115687812D01*
X143246180Y-115651502D01*
X143356494Y-115592537D01*
X143453185Y-115513185D01*
X143532537Y-115416494D01*
X143591502Y-115306180D01*
X143627812Y-115186482D01*
X143636080Y-115102535D01*
X143694880Y-115190535D01*
X143889465Y-115385120D01*
X144118273Y-115538005D01*
X144372510Y-115643314D01*
X144642408Y-115697000D01*
X144917592Y-115697000D01*
X145187490Y-115643314D01*
X145441727Y-115538005D01*
X145670535Y-115385120D01*
X145865120Y-115190535D01*
X146018005Y-114961727D01*
X146050000Y-114884485D01*
X146081995Y-114961727D01*
X146234880Y-115190535D01*
X146429465Y-115385120D01*
X146658273Y-115538005D01*
X146912510Y-115643314D01*
X147182408Y-115697000D01*
X147457592Y-115697000D01*
X147727490Y-115643314D01*
X147981727Y-115538005D01*
X148210535Y-115385120D01*
X148405120Y-115190535D01*
X148558005Y-114961727D01*
X148590000Y-114884485D01*
X148621995Y-114961727D01*
X148774880Y-115190535D01*
X148969465Y-115385120D01*
X149198273Y-115538005D01*
X149452510Y-115643314D01*
X149722408Y-115697000D01*
X149997592Y-115697000D01*
X150267490Y-115643314D01*
X150521727Y-115538005D01*
X150750535Y-115385120D01*
X150945120Y-115190535D01*
X151098005Y-114961727D01*
X151130000Y-114884485D01*
X151161995Y-114961727D01*
X151314880Y-115190535D01*
X151509465Y-115385120D01*
X151738273Y-115538005D01*
X151992510Y-115643314D01*
X152262408Y-115697000D01*
X152537592Y-115697000D01*
X152807490Y-115643314D01*
X153061727Y-115538005D01*
X153290535Y-115385120D01*
X153485120Y-115190535D01*
X153638005Y-114961727D01*
X153670000Y-114884485D01*
X153701995Y-114961727D01*
X153854880Y-115190535D01*
X154049465Y-115385120D01*
X154278273Y-115538005D01*
X154532510Y-115643314D01*
X154802408Y-115697000D01*
X155077592Y-115697000D01*
X155347490Y-115643314D01*
X155601727Y-115538005D01*
X155830535Y-115385120D01*
X156025120Y-115190535D01*
X156178005Y-114961727D01*
X156210000Y-114884485D01*
X156241995Y-114961727D01*
X156394880Y-115190535D01*
X156589465Y-115385120D01*
X156818273Y-115538005D01*
X157072510Y-115643314D01*
X157342408Y-115697000D01*
X157617592Y-115697000D01*
X157887490Y-115643314D01*
X158141727Y-115538005D01*
X158370535Y-115385120D01*
X158565120Y-115190535D01*
X158718005Y-114961727D01*
X158750000Y-114884485D01*
X158781995Y-114961727D01*
X158934880Y-115190535D01*
X159129465Y-115385120D01*
X159358273Y-115538005D01*
X159612510Y-115643314D01*
X159882408Y-115697000D01*
X160157592Y-115697000D01*
X160427490Y-115643314D01*
X160681727Y-115538005D01*
X160910535Y-115385120D01*
X161105120Y-115190535D01*
X161258005Y-114961727D01*
X161363314Y-114707490D01*
X161417000Y-114437592D01*
X161417000Y-114162408D01*
X161363314Y-113892510D01*
X161258005Y-113638273D01*
X161105120Y-113409465D01*
X160910535Y-113214880D01*
X160681727Y-113061995D01*
X160427490Y-112956686D01*
X160157592Y-112903000D01*
X159882408Y-112903000D01*
X159612510Y-112956686D01*
X159358273Y-113061995D01*
X159129465Y-113214880D01*
X158934880Y-113409465D01*
X158781995Y-113638273D01*
X158750000Y-113715515D01*
X158718005Y-113638273D01*
X158565120Y-113409465D01*
X158370535Y-113214880D01*
X158141727Y-113061995D01*
X157887490Y-112956686D01*
X157617592Y-112903000D01*
X157342408Y-112903000D01*
X157072510Y-112956686D01*
X156818273Y-113061995D01*
X156589465Y-113214880D01*
X156394880Y-113409465D01*
X156241995Y-113638273D01*
X156210000Y-113715515D01*
X156178005Y-113638273D01*
X156025120Y-113409465D01*
X155830535Y-113214880D01*
X155601727Y-113061995D01*
X155347490Y-112956686D01*
X155077592Y-112903000D01*
X154802408Y-112903000D01*
X154532510Y-112956686D01*
X154278273Y-113061995D01*
X154049465Y-113214880D01*
X153854880Y-113409465D01*
X153701995Y-113638273D01*
X153670000Y-113715515D01*
X153638005Y-113638273D01*
X153485120Y-113409465D01*
X153290535Y-113214880D01*
X153061727Y-113061995D01*
X152807490Y-112956686D01*
X152537592Y-112903000D01*
X152262408Y-112903000D01*
X151992510Y-112956686D01*
X151738273Y-113061995D01*
X151509465Y-113214880D01*
X151314880Y-113409465D01*
X151161995Y-113638273D01*
X151130000Y-113715515D01*
X151098005Y-113638273D01*
X150945120Y-113409465D01*
X150750535Y-113214880D01*
X150521727Y-113061995D01*
X150267490Y-112956686D01*
X149997592Y-112903000D01*
X149722408Y-112903000D01*
X149452510Y-112956686D01*
X149198273Y-113061995D01*
X148969465Y-113214880D01*
X148774880Y-113409465D01*
X148621995Y-113638273D01*
X148590000Y-113715515D01*
X148558005Y-113638273D01*
X148405120Y-113409465D01*
X148210535Y-113214880D01*
X147981727Y-113061995D01*
X147727490Y-112956686D01*
X147457592Y-112903000D01*
X147182408Y-112903000D01*
X146912510Y-112956686D01*
X146658273Y-113061995D01*
X146429465Y-113214880D01*
X146234880Y-113409465D01*
X146081995Y-113638273D01*
X146050000Y-113715515D01*
X146018005Y-113638273D01*
X145865120Y-113409465D01*
X145670535Y-113214880D01*
X145441727Y-113061995D01*
X145187490Y-112956686D01*
X144917592Y-112903000D01*
X144642408Y-112903000D01*
X144372510Y-112956686D01*
X144118273Y-113061995D01*
X143889465Y-113214880D01*
X143694880Y-113409465D01*
X143636080Y-113497465D01*
X143627812Y-113413518D01*
X143591502Y-113293820D01*
X143532537Y-113183506D01*
X143453185Y-113086815D01*
X143356494Y-113007463D01*
X143246180Y-112948498D01*
X143126482Y-112912188D01*
X143002000Y-112899928D01*
X141478000Y-112899928D01*
X141353518Y-112912188D01*
X141233820Y-112948498D01*
X141123506Y-113007463D01*
X141026815Y-113086815D01*
X140947463Y-113183506D01*
X140888498Y-113293820D01*
X140852188Y-113413518D01*
X140839928Y-113538000D01*
X132230787Y-113538000D01*
X132066500Y-113292129D01*
X131817871Y-113043500D01*
X131525515Y-112848153D01*
X131200665Y-112713596D01*
X130855807Y-112645000D01*
X130504193Y-112645000D01*
X130159335Y-112713596D01*
X129834485Y-112848153D01*
X129542129Y-113043500D01*
X129293500Y-113292129D01*
X129098153Y-113584485D01*
X128963596Y-113909335D01*
X128895000Y-114254193D01*
X128895000Y-114605807D01*
X128963596Y-114950665D01*
X129098153Y-115275515D01*
X129293500Y-115567871D01*
X129542129Y-115816500D01*
X129834485Y-116011847D01*
X130159335Y-116146404D01*
X130202550Y-116155000D01*
X123797450Y-116155000D01*
X123840665Y-116146404D01*
X124165515Y-116011847D01*
X124457871Y-115816500D01*
X124706500Y-115567871D01*
X124901847Y-115275515D01*
X125036404Y-114950665D01*
X125105000Y-114605807D01*
X125105000Y-114254193D01*
X125036404Y-113909335D01*
X124901847Y-113584485D01*
X124706500Y-113292129D01*
X124457871Y-113043500D01*
X124165515Y-112848153D01*
X123840665Y-112713596D01*
X123495807Y-112645000D01*
X123144193Y-112645000D01*
X122799335Y-112713596D01*
X122474485Y-112848153D01*
X122182129Y-113043500D01*
X121933500Y-113292129D01*
X121738153Y-113584485D01*
X121603596Y-113909335D01*
X121535000Y-114254193D01*
X121535000Y-114605807D01*
X121603596Y-114950665D01*
X121738153Y-115275515D01*
X121933500Y-115567871D01*
X122182129Y-115816500D01*
X122474485Y-116011847D01*
X122799335Y-116146404D01*
X122842550Y-116155000D01*
X82897450Y-116155000D01*
X82940665Y-116146404D01*
X83265515Y-116011847D01*
X83557871Y-115816500D01*
X83806500Y-115567871D01*
X84001847Y-115275515D01*
X84136404Y-114950665D01*
X84205000Y-114605807D01*
X84205000Y-114254193D01*
X84136404Y-113909335D01*
X84001847Y-113584485D01*
X83970787Y-113538000D01*
X92579928Y-113538000D01*
X92579928Y-115062000D01*
X92592188Y-115186482D01*
X92628498Y-115306180D01*
X92687463Y-115416494D01*
X92766815Y-115513185D01*
X92863506Y-115592537D01*
X92973820Y-115651502D01*
X93093518Y-115687812D01*
X93218000Y-115700072D01*
X94742000Y-115700072D01*
X94866482Y-115687812D01*
X94986180Y-115651502D01*
X95096494Y-115592537D01*
X95193185Y-115513185D01*
X95272537Y-115416494D01*
X95331502Y-115306180D01*
X95367812Y-115186482D01*
X95376080Y-115102535D01*
X95434880Y-115190535D01*
X95629465Y-115385120D01*
X95858273Y-115538005D01*
X96112510Y-115643314D01*
X96382408Y-115697000D01*
X96657592Y-115697000D01*
X96927490Y-115643314D01*
X97181727Y-115538005D01*
X97410535Y-115385120D01*
X97605120Y-115190535D01*
X97758005Y-114961727D01*
X97790000Y-114884485D01*
X97821995Y-114961727D01*
X97974880Y-115190535D01*
X98169465Y-115385120D01*
X98398273Y-115538005D01*
X98652510Y-115643314D01*
X98922408Y-115697000D01*
X99197592Y-115697000D01*
X99467490Y-115643314D01*
X99721727Y-115538005D01*
X99950535Y-115385120D01*
X100145120Y-115190535D01*
X100298005Y-114961727D01*
X100330000Y-114884485D01*
X100361995Y-114961727D01*
X100514880Y-115190535D01*
X100709465Y-115385120D01*
X100938273Y-115538005D01*
X101192510Y-115643314D01*
X101462408Y-115697000D01*
X101737592Y-115697000D01*
X102007490Y-115643314D01*
X102261727Y-115538005D01*
X102490535Y-115385120D01*
X102685120Y-115190535D01*
X102838005Y-114961727D01*
X102870000Y-114884485D01*
X102901995Y-114961727D01*
X103054880Y-115190535D01*
X103249465Y-115385120D01*
X103478273Y-115538005D01*
X103732510Y-115643314D01*
X104002408Y-115697000D01*
X104277592Y-115697000D01*
X104547490Y-115643314D01*
X104801727Y-115538005D01*
X105030535Y-115385120D01*
X105225120Y-115190535D01*
X105378005Y-114961727D01*
X105410000Y-114884485D01*
X105441995Y-114961727D01*
X105594880Y-115190535D01*
X105789465Y-115385120D01*
X106018273Y-115538005D01*
X106272510Y-115643314D01*
X106542408Y-115697000D01*
X106817592Y-115697000D01*
X107087490Y-115643314D01*
X107341727Y-115538005D01*
X107570535Y-115385120D01*
X107765120Y-115190535D01*
X107918005Y-114961727D01*
X107950000Y-114884485D01*
X107981995Y-114961727D01*
X108134880Y-115190535D01*
X108329465Y-115385120D01*
X108558273Y-115538005D01*
X108812510Y-115643314D01*
X109082408Y-115697000D01*
X109357592Y-115697000D01*
X109627490Y-115643314D01*
X109881727Y-115538005D01*
X110110535Y-115385120D01*
X110305120Y-115190535D01*
X110458005Y-114961727D01*
X110490000Y-114884485D01*
X110521995Y-114961727D01*
X110674880Y-115190535D01*
X110869465Y-115385120D01*
X111098273Y-115538005D01*
X111352510Y-115643314D01*
X111622408Y-115697000D01*
X111897592Y-115697000D01*
X112167490Y-115643314D01*
X112421727Y-115538005D01*
X112650535Y-115385120D01*
X112845120Y-115190535D01*
X112998005Y-114961727D01*
X113103314Y-114707490D01*
X113157000Y-114437592D01*
X113157000Y-114162408D01*
X113103314Y-113892510D01*
X112998005Y-113638273D01*
X112845120Y-113409465D01*
X112650535Y-113214880D01*
X112421727Y-113061995D01*
X112167490Y-112956686D01*
X111897592Y-112903000D01*
X111622408Y-112903000D01*
X111352510Y-112956686D01*
X111098273Y-113061995D01*
X110869465Y-113214880D01*
X110674880Y-113409465D01*
X110521995Y-113638273D01*
X110490000Y-113715515D01*
X110458005Y-113638273D01*
X110305120Y-113409465D01*
X110110535Y-113214880D01*
X109881727Y-113061995D01*
X109627490Y-112956686D01*
X109357592Y-112903000D01*
X109082408Y-112903000D01*
X108812510Y-112956686D01*
X108558273Y-113061995D01*
X108329465Y-113214880D01*
X108134880Y-113409465D01*
X107981995Y-113638273D01*
X107950000Y-113715515D01*
X107918005Y-113638273D01*
X107765120Y-113409465D01*
X107570535Y-113214880D01*
X107341727Y-113061995D01*
X107087490Y-112956686D01*
X106817592Y-112903000D01*
X106542408Y-112903000D01*
X106272510Y-112956686D01*
X106018273Y-113061995D01*
X105789465Y-113214880D01*
X105594880Y-113409465D01*
X105441995Y-113638273D01*
X105410000Y-113715515D01*
X105378005Y-113638273D01*
X105225120Y-113409465D01*
X105030535Y-113214880D01*
X104801727Y-113061995D01*
X104547490Y-112956686D01*
X104277592Y-112903000D01*
X104002408Y-112903000D01*
X103732510Y-112956686D01*
X103478273Y-113061995D01*
X103249465Y-113214880D01*
X103054880Y-113409465D01*
X102901995Y-113638273D01*
X102870000Y-113715515D01*
X102838005Y-113638273D01*
X102685120Y-113409465D01*
X102490535Y-113214880D01*
X102261727Y-113061995D01*
X102007490Y-112956686D01*
X101737592Y-112903000D01*
X101462408Y-112903000D01*
X101192510Y-112956686D01*
X100938273Y-113061995D01*
X100709465Y-113214880D01*
X100514880Y-113409465D01*
X100361995Y-113638273D01*
X100330000Y-113715515D01*
X100298005Y-113638273D01*
X100145120Y-113409465D01*
X99950535Y-113214880D01*
X99721727Y-113061995D01*
X99467490Y-112956686D01*
X99197592Y-112903000D01*
X98922408Y-112903000D01*
X98652510Y-112956686D01*
X98398273Y-113061995D01*
X98169465Y-113214880D01*
X97974880Y-113409465D01*
X97821995Y-113638273D01*
X97790000Y-113715515D01*
X97758005Y-113638273D01*
X97605120Y-113409465D01*
X97410535Y-113214880D01*
X97181727Y-113061995D01*
X96927490Y-112956686D01*
X96657592Y-112903000D01*
X96382408Y-112903000D01*
X96112510Y-112956686D01*
X95858273Y-113061995D01*
X95629465Y-113214880D01*
X95434880Y-113409465D01*
X95376080Y-113497465D01*
X95367812Y-113413518D01*
X95331502Y-113293820D01*
X95272537Y-113183506D01*
X95193185Y-113086815D01*
X95096494Y-113007463D01*
X94986180Y-112948498D01*
X94866482Y-112912188D01*
X94742000Y-112899928D01*
X93218000Y-112899928D01*
X93093518Y-112912188D01*
X92973820Y-112948498D01*
X92863506Y-113007463D01*
X92766815Y-113086815D01*
X92687463Y-113183506D01*
X92628498Y-113293820D01*
X92592188Y-113413518D01*
X92579928Y-113538000D01*
X83970787Y-113538000D01*
X83806500Y-113292129D01*
X83557871Y-113043500D01*
X83265515Y-112848153D01*
X82940665Y-112713596D01*
X82595807Y-112645000D01*
X82244193Y-112645000D01*
X81899335Y-112713596D01*
X81574485Y-112848153D01*
X81282129Y-113043500D01*
X81033500Y-113292129D01*
X80838153Y-113584485D01*
X80703596Y-113909335D01*
X80635000Y-114254193D01*
X80635000Y-114605807D01*
X80703596Y-114950665D01*
X80838153Y-115275515D01*
X81033500Y-115567871D01*
X81282129Y-115816500D01*
X81574485Y-116011847D01*
X81899335Y-116146404D01*
X81942550Y-116155000D01*
X76230506Y-116155000D01*
X75422195Y-116082861D01*
X74668977Y-115876803D01*
X73964148Y-115540616D01*
X73329995Y-115084932D01*
X72786559Y-114524149D01*
X72351018Y-113875996D01*
X72037137Y-113160956D01*
X71853576Y-112396364D01*
X71805000Y-111734887D01*
X71805000Y-106610205D01*
X73965000Y-106610205D01*
X73965001Y-111829796D01*
X73997340Y-112158137D01*
X74125139Y-112579436D01*
X74332675Y-112967707D01*
X74611971Y-113308030D01*
X74952294Y-113587326D01*
X75340565Y-113794862D01*
X75761864Y-113922661D01*
X76200000Y-113965814D01*
X76638137Y-113922661D01*
X77059436Y-113794862D01*
X77447707Y-113587326D01*
X77788030Y-113308030D01*
X78067326Y-112967707D01*
X78274862Y-112579436D01*
X78402661Y-112158137D01*
X78435000Y-111829796D01*
X78435000Y-106610205D01*
X223825000Y-106610205D01*
X223825001Y-111829796D01*
X223857340Y-112158137D01*
X223985139Y-112579436D01*
X224192675Y-112967707D01*
X224471971Y-113308030D01*
X224812294Y-113587326D01*
X225200565Y-113794862D01*
X225621864Y-113922661D01*
X226060000Y-113965814D01*
X226498137Y-113922661D01*
X226919436Y-113794862D01*
X227307707Y-113587326D01*
X227648030Y-113308030D01*
X227927326Y-112967707D01*
X228134862Y-112579436D01*
X228262661Y-112158137D01*
X228295000Y-111829796D01*
X228295000Y-106610204D01*
X228262661Y-106281863D01*
X228134862Y-105860564D01*
X227927326Y-105472293D01*
X227648030Y-105131970D01*
X227307707Y-104852674D01*
X226919435Y-104645138D01*
X226498136Y-104517339D01*
X226060000Y-104474186D01*
X225621863Y-104517339D01*
X225200564Y-104645138D01*
X224812293Y-104852674D01*
X224471970Y-105131970D01*
X224192674Y-105472293D01*
X223985138Y-105860565D01*
X223857339Y-106281864D01*
X223825000Y-106610205D01*
X78435000Y-106610205D01*
X78435000Y-106610204D01*
X78402661Y-106281863D01*
X78274862Y-105860564D01*
X78067326Y-105472293D01*
X77788030Y-105131970D01*
X77447707Y-104852674D01*
X77059435Y-104645138D01*
X76638136Y-104517339D01*
X76200000Y-104474186D01*
X75761863Y-104517339D01*
X75340564Y-104645138D01*
X74952293Y-104852674D01*
X74611970Y-105131970D01*
X74332674Y-105472293D01*
X74125138Y-105860565D01*
X73997339Y-106281864D01*
X73965000Y-106610205D01*
X71805000Y-106610205D01*
X71805000Y-97190000D01*
X96301928Y-97190000D01*
X96301928Y-98390000D01*
X96318992Y-98563254D01*
X96369528Y-98729850D01*
X96451595Y-98883386D01*
X96562038Y-99017962D01*
X96696614Y-99128405D01*
X96823608Y-99196285D01*
X96636525Y-99383368D01*
X96474010Y-99626589D01*
X96362068Y-99896842D01*
X96305000Y-100183740D01*
X96305000Y-100476260D01*
X96362068Y-100763158D01*
X96474010Y-101033411D01*
X96636525Y-101276632D01*
X96843368Y-101483475D01*
X97086589Y-101645990D01*
X97356842Y-101757932D01*
X97643740Y-101815000D01*
X97936260Y-101815000D01*
X98223158Y-101757932D01*
X98493411Y-101645990D01*
X98736632Y-101483475D01*
X98943475Y-101276632D01*
X99060000Y-101102240D01*
X99176525Y-101276632D01*
X99383368Y-101483475D01*
X99626589Y-101645990D01*
X99896842Y-101757932D01*
X100183740Y-101815000D01*
X100476260Y-101815000D01*
X100763158Y-101757932D01*
X101033411Y-101645990D01*
X101276632Y-101483475D01*
X101483475Y-101276632D01*
X101600000Y-101102240D01*
X101716525Y-101276632D01*
X101923368Y-101483475D01*
X102166589Y-101645990D01*
X102436842Y-101757932D01*
X102723740Y-101815000D01*
X103016260Y-101815000D01*
X103303158Y-101757932D01*
X103573411Y-101645990D01*
X103816632Y-101483475D01*
X104023475Y-101276632D01*
X104140000Y-101102240D01*
X104256525Y-101276632D01*
X104463368Y-101483475D01*
X104706589Y-101645990D01*
X104976842Y-101757932D01*
X105263740Y-101815000D01*
X105556260Y-101815000D01*
X105843158Y-101757932D01*
X106113411Y-101645990D01*
X106356632Y-101483475D01*
X106481710Y-101358397D01*
X107101208Y-101358397D01*
X107178843Y-101607472D01*
X107442883Y-101733371D01*
X107726411Y-101805339D01*
X108018531Y-101820611D01*
X108308019Y-101778599D01*
X108583747Y-101680919D01*
X108721157Y-101607472D01*
X108798792Y-101358397D01*
X107950000Y-100509605D01*
X107101208Y-101358397D01*
X106481710Y-101358397D01*
X106563475Y-101276632D01*
X106679311Y-101103271D01*
X106921603Y-101178792D01*
X107770395Y-100330000D01*
X108129605Y-100330000D01*
X108978397Y-101178792D01*
X109227472Y-101101157D01*
X109237560Y-101080000D01*
X214511928Y-101080000D01*
X214524188Y-101204482D01*
X214560498Y-101324180D01*
X214619463Y-101434494D01*
X214698815Y-101531185D01*
X214795506Y-101610537D01*
X214905820Y-101669502D01*
X215025518Y-101705812D01*
X215150000Y-101718072D01*
X215614250Y-101715000D01*
X215773000Y-101556250D01*
X215773000Y-100457000D01*
X216027000Y-100457000D01*
X216027000Y-101556250D01*
X216185750Y-101715000D01*
X216650000Y-101718072D01*
X216774482Y-101705812D01*
X216894180Y-101669502D01*
X217004494Y-101610537D01*
X217101185Y-101531185D01*
X217180537Y-101434494D01*
X217239502Y-101324180D01*
X217275812Y-101204482D01*
X217288072Y-101080000D01*
X217285000Y-100615750D01*
X217126250Y-100457000D01*
X216027000Y-100457000D01*
X215773000Y-100457000D01*
X214673750Y-100457000D01*
X214515000Y-100615750D01*
X214511928Y-101080000D01*
X109237560Y-101080000D01*
X109353371Y-100837117D01*
X109425339Y-100553589D01*
X109440611Y-100261469D01*
X109398599Y-99971981D01*
X109300919Y-99696253D01*
X109238781Y-99580000D01*
X214511928Y-99580000D01*
X214515000Y-100044250D01*
X214673750Y-100203000D01*
X215773000Y-100203000D01*
X215773000Y-99103750D01*
X216027000Y-99103750D01*
X216027000Y-100203000D01*
X217126250Y-100203000D01*
X217285000Y-100044250D01*
X217288072Y-99580000D01*
X217275812Y-99455518D01*
X217239502Y-99335820D01*
X217180537Y-99225506D01*
X217101185Y-99128815D01*
X217004494Y-99049463D01*
X216894180Y-98990498D01*
X216774482Y-98954188D01*
X216650000Y-98941928D01*
X216185750Y-98945000D01*
X216027000Y-99103750D01*
X215773000Y-99103750D01*
X215614250Y-98945000D01*
X215150000Y-98941928D01*
X215025518Y-98954188D01*
X214905820Y-98990498D01*
X214795506Y-99049463D01*
X214698815Y-99128815D01*
X214619463Y-99225506D01*
X214560498Y-99335820D01*
X214524188Y-99455518D01*
X214511928Y-99580000D01*
X109238781Y-99580000D01*
X109227472Y-99558843D01*
X108978397Y-99481208D01*
X108129605Y-100330000D01*
X107770395Y-100330000D01*
X106921603Y-99481208D01*
X106679311Y-99556729D01*
X106563475Y-99383368D01*
X106356632Y-99176525D01*
X106182240Y-99060000D01*
X106356632Y-98943475D01*
X106563475Y-98736632D01*
X106680000Y-98562240D01*
X106796525Y-98736632D01*
X107003368Y-98943475D01*
X107176729Y-99059311D01*
X107101208Y-99301603D01*
X107950000Y-100150395D01*
X108798792Y-99301603D01*
X108723271Y-99059311D01*
X108896632Y-98943475D01*
X109103475Y-98736632D01*
X109265990Y-98493411D01*
X109377932Y-98223158D01*
X109435000Y-97936260D01*
X109435000Y-97643740D01*
X109377932Y-97356842D01*
X109265990Y-97086589D01*
X109103475Y-96843368D01*
X108896632Y-96636525D01*
X108653411Y-96474010D01*
X108383158Y-96362068D01*
X108096260Y-96305000D01*
X107803740Y-96305000D01*
X107516842Y-96362068D01*
X107246589Y-96474010D01*
X107003368Y-96636525D01*
X106796525Y-96843368D01*
X106680000Y-97017760D01*
X106563475Y-96843368D01*
X106356632Y-96636525D01*
X106113411Y-96474010D01*
X105843158Y-96362068D01*
X105556260Y-96305000D01*
X105263740Y-96305000D01*
X104976842Y-96362068D01*
X104706589Y-96474010D01*
X104463368Y-96636525D01*
X104256525Y-96843368D01*
X104140000Y-97017760D01*
X104023475Y-96843368D01*
X103816632Y-96636525D01*
X103573411Y-96474010D01*
X103303158Y-96362068D01*
X103016260Y-96305000D01*
X102723740Y-96305000D01*
X102436842Y-96362068D01*
X102166589Y-96474010D01*
X101923368Y-96636525D01*
X101716525Y-96843368D01*
X101600000Y-97017760D01*
X101483475Y-96843368D01*
X101276632Y-96636525D01*
X101033411Y-96474010D01*
X100763158Y-96362068D01*
X100476260Y-96305000D01*
X100183740Y-96305000D01*
X99896842Y-96362068D01*
X99626589Y-96474010D01*
X99383368Y-96636525D01*
X99196285Y-96823608D01*
X99128405Y-96696614D01*
X99017962Y-96562038D01*
X98883386Y-96451595D01*
X98729850Y-96369528D01*
X98563254Y-96318992D01*
X98390000Y-96301928D01*
X97190000Y-96301928D01*
X97016746Y-96318992D01*
X96850150Y-96369528D01*
X96696614Y-96451595D01*
X96562038Y-96562038D01*
X96451595Y-96696614D01*
X96369528Y-96850150D01*
X96318992Y-97016746D01*
X96301928Y-97190000D01*
X71805000Y-97190000D01*
X71805000Y-95770000D01*
X214511928Y-95770000D01*
X214511928Y-97270000D01*
X214524188Y-97394482D01*
X214560498Y-97514180D01*
X214619463Y-97624494D01*
X214698815Y-97721185D01*
X214795506Y-97800537D01*
X214905820Y-97859502D01*
X215025518Y-97895812D01*
X215150000Y-97908072D01*
X216650000Y-97908072D01*
X216774482Y-97895812D01*
X216894180Y-97859502D01*
X217004494Y-97800537D01*
X217101185Y-97721185D01*
X217180537Y-97624494D01*
X217239502Y-97514180D01*
X217275812Y-97394482D01*
X217288072Y-97270000D01*
X217288072Y-95770000D01*
X217275812Y-95645518D01*
X217239502Y-95525820D01*
X217180537Y-95415506D01*
X217101185Y-95318815D01*
X217004494Y-95239463D01*
X216894180Y-95180498D01*
X216774482Y-95144188D01*
X216650000Y-95131928D01*
X215150000Y-95131928D01*
X215025518Y-95144188D01*
X214905820Y-95180498D01*
X214795506Y-95239463D01*
X214698815Y-95318815D01*
X214619463Y-95415506D01*
X214560498Y-95525820D01*
X214524188Y-95645518D01*
X214511928Y-95770000D01*
X71805000Y-95770000D01*
X71805000Y-88150000D01*
X143391928Y-88150000D01*
X143391928Y-89650000D01*
X143404188Y-89774482D01*
X143440498Y-89894180D01*
X143499463Y-90004494D01*
X143578815Y-90101185D01*
X143675506Y-90180537D01*
X143785820Y-90239502D01*
X143905518Y-90275812D01*
X144030000Y-90288072D01*
X145530000Y-90288072D01*
X145654482Y-90275812D01*
X145774180Y-90239502D01*
X145884494Y-90180537D01*
X145981185Y-90101185D01*
X146060537Y-90004494D01*
X146119502Y-89894180D01*
X146155812Y-89774482D01*
X146168072Y-89650000D01*
X146168072Y-88150000D01*
X146155812Y-88025518D01*
X146119502Y-87905820D01*
X146060537Y-87795506D01*
X145981185Y-87698815D01*
X145884494Y-87619463D01*
X145774180Y-87560498D01*
X145654482Y-87524188D01*
X145530000Y-87511928D01*
X144030000Y-87511928D01*
X143905518Y-87524188D01*
X143785820Y-87560498D01*
X143675506Y-87619463D01*
X143578815Y-87698815D01*
X143499463Y-87795506D01*
X143440498Y-87905820D01*
X143404188Y-88025518D01*
X143391928Y-88150000D01*
X71805000Y-88150000D01*
X71805000Y-76230505D01*
X71813951Y-76130205D01*
X73965000Y-76130205D01*
X73965001Y-81349796D01*
X73997340Y-81678137D01*
X74125139Y-82099436D01*
X74332675Y-82487707D01*
X74611971Y-82828030D01*
X74952294Y-83107326D01*
X75340565Y-83314862D01*
X75761864Y-83442661D01*
X76200000Y-83485814D01*
X76638137Y-83442661D01*
X77059436Y-83314862D01*
X77447707Y-83107326D01*
X77788030Y-82828030D01*
X78067326Y-82487707D01*
X78274862Y-82099436D01*
X78402661Y-81678137D01*
X78435000Y-81349796D01*
X78435000Y-79260000D01*
X87511928Y-79260000D01*
X87511928Y-80760000D01*
X87524188Y-80884482D01*
X87560498Y-81004180D01*
X87619463Y-81114494D01*
X87698815Y-81211185D01*
X87795506Y-81290537D01*
X87905820Y-81349502D01*
X88025518Y-81385812D01*
X88150000Y-81398072D01*
X89650000Y-81398072D01*
X89774482Y-81385812D01*
X89894180Y-81349502D01*
X90004494Y-81290537D01*
X90101185Y-81211185D01*
X90180537Y-81114494D01*
X90239502Y-81004180D01*
X90275812Y-80884482D01*
X90279701Y-80845000D01*
X95906715Y-80845000D01*
X96029744Y-80927205D01*
X96218102Y-81005226D01*
X96418061Y-81045000D01*
X96621939Y-81045000D01*
X96821898Y-81005226D01*
X97010256Y-80927205D01*
X97179774Y-80813937D01*
X97323937Y-80669774D01*
X97437205Y-80500256D01*
X97515226Y-80311898D01*
X97555000Y-80111939D01*
X97555000Y-79908061D01*
X97515226Y-79708102D01*
X97437205Y-79519744D01*
X97323937Y-79350226D01*
X97179774Y-79206063D01*
X97010256Y-79092795D01*
X96821898Y-79014774D01*
X96621939Y-78975000D01*
X96418061Y-78975000D01*
X96218102Y-79014774D01*
X96029744Y-79092795D01*
X95906715Y-79175000D01*
X90279701Y-79175000D01*
X90275812Y-79135518D01*
X90239502Y-79015820D01*
X90180537Y-78905506D01*
X90101185Y-78808815D01*
X90004494Y-78729463D01*
X89894180Y-78670498D01*
X89774482Y-78634188D01*
X89650000Y-78621928D01*
X88150000Y-78621928D01*
X88025518Y-78634188D01*
X87905820Y-78670498D01*
X87795506Y-78729463D01*
X87698815Y-78808815D01*
X87619463Y-78905506D01*
X87560498Y-79015820D01*
X87524188Y-79135518D01*
X87511928Y-79260000D01*
X78435000Y-79260000D01*
X78435000Y-76130204D01*
X78402661Y-75801863D01*
X78274862Y-75380564D01*
X78067326Y-74992293D01*
X77788030Y-74651970D01*
X77447707Y-74372674D01*
X77059435Y-74165138D01*
X76638136Y-74037339D01*
X76200000Y-73994186D01*
X75761863Y-74037339D01*
X75340564Y-74165138D01*
X74952293Y-74372674D01*
X74611970Y-74651970D01*
X74332674Y-74992293D01*
X74125138Y-75380565D01*
X73997339Y-75801864D01*
X73965000Y-76130205D01*
X71813951Y-76130205D01*
X71877139Y-75422197D01*
X72083197Y-74668977D01*
X72419384Y-73964148D01*
X72875065Y-73329998D01*
X73435851Y-72786559D01*
X74084001Y-72351019D01*
X74799043Y-72037138D01*
X75563636Y-71853576D01*
X76225112Y-71805000D01*
X81942550Y-71805000D01*
X81899335Y-71813596D01*
G37*
G04 #@! TD.AperFunction*
D18*
X171059335Y-71813596D02*
X170734485Y-71948153D01*
X170442129Y-72143500D01*
X170193500Y-72392129D01*
X169998153Y-72684485D01*
X169863596Y-73009335D01*
X169795000Y-73354193D01*
X169795000Y-73705807D01*
X169863596Y-74050665D01*
X169998153Y-74375515D01*
X170193500Y-74667871D01*
X170442129Y-74916500D01*
X170664374Y-75065000D01*
X155824284Y-75065000D01*
X155619727Y-74928320D01*
X155574134Y-74909435D01*
X155601727Y-74898005D01*
X155830535Y-74745120D01*
X156025120Y-74550535D01*
X156178005Y-74321727D01*
X156210000Y-74244485D01*
X156241995Y-74321727D01*
X156394880Y-74550535D01*
X156589465Y-74745120D01*
X156818273Y-74898005D01*
X157072510Y-75003314D01*
X157342408Y-75057000D01*
X157617592Y-75057000D01*
X157887490Y-75003314D01*
X158141727Y-74898005D01*
X158370535Y-74745120D01*
X158490090Y-74625565D01*
X159234040Y-74625565D01*
X159301020Y-74865656D01*
X159550048Y-74982756D01*
X159817135Y-75049023D01*
X160092017Y-75061910D01*
X160364133Y-75020922D01*
X160623023Y-74927636D01*
X160738980Y-74865656D01*
X160805960Y-74625565D01*
X160020000Y-73839605D01*
X159234040Y-74625565D01*
X158490090Y-74625565D01*
X158565120Y-74550535D01*
X158718005Y-74321727D01*
X158747692Y-74250057D01*
X158752364Y-74263023D01*
X158814344Y-74378980D01*
X159054435Y-74445960D01*
X159840395Y-73660000D01*
X160199605Y-73660000D01*
X160985565Y-74445960D01*
X161225656Y-74378980D01*
X161342756Y-74129952D01*
X161409023Y-73862865D01*
X161421910Y-73587983D01*
X161380922Y-73315867D01*
X161287636Y-73056977D01*
X161225656Y-72941020D01*
X160985565Y-72874040D01*
X160199605Y-73660000D01*
X159840395Y-73660000D01*
X159054435Y-72874040D01*
X158814344Y-72941020D01*
X158750515Y-73076760D01*
X158718005Y-72998273D01*
X158565120Y-72769465D01*
X158490090Y-72694435D01*
X159234040Y-72694435D01*
X160020000Y-73480395D01*
X160805960Y-72694435D01*
X160738980Y-72454344D01*
X160489952Y-72337244D01*
X160222865Y-72270977D01*
X159947983Y-72258090D01*
X159675867Y-72299078D01*
X159416977Y-72392364D01*
X159301020Y-72454344D01*
X159234040Y-72694435D01*
X158490090Y-72694435D01*
X158370535Y-72574880D01*
X158141727Y-72421995D01*
X157887490Y-72316686D01*
X157617592Y-72263000D01*
X157342408Y-72263000D01*
X157072510Y-72316686D01*
X156818273Y-72421995D01*
X156589465Y-72574880D01*
X156394880Y-72769465D01*
X156241995Y-72998273D01*
X156210000Y-73075515D01*
X156178005Y-72998273D01*
X156025120Y-72769465D01*
X155830535Y-72574880D01*
X155601727Y-72421995D01*
X155347490Y-72316686D01*
X155077592Y-72263000D01*
X154802408Y-72263000D01*
X154532510Y-72316686D01*
X154278273Y-72421995D01*
X154049465Y-72574880D01*
X153854880Y-72769465D01*
X153701995Y-72998273D01*
X153670000Y-73075515D01*
X153638005Y-72998273D01*
X153485120Y-72769465D01*
X153290535Y-72574880D01*
X153061727Y-72421995D01*
X152807490Y-72316686D01*
X152537592Y-72263000D01*
X152262408Y-72263000D01*
X151992510Y-72316686D01*
X151738273Y-72421995D01*
X151509465Y-72574880D01*
X151314880Y-72769465D01*
X151161995Y-72998273D01*
X151130000Y-73075515D01*
X151098005Y-72998273D01*
X150945120Y-72769465D01*
X150750535Y-72574880D01*
X150521727Y-72421995D01*
X150267490Y-72316686D01*
X149997592Y-72263000D01*
X149722408Y-72263000D01*
X149452510Y-72316686D01*
X149198273Y-72421995D01*
X148969465Y-72574880D01*
X148774880Y-72769465D01*
X148621995Y-72998273D01*
X148590000Y-73075515D01*
X148558005Y-72998273D01*
X148405120Y-72769465D01*
X148210535Y-72574880D01*
X147981727Y-72421995D01*
X147727490Y-72316686D01*
X147457592Y-72263000D01*
X147182408Y-72263000D01*
X146912510Y-72316686D01*
X146658273Y-72421995D01*
X146429465Y-72574880D01*
X146234880Y-72769465D01*
X146081995Y-72998273D01*
X146050000Y-73075515D01*
X146018005Y-72998273D01*
X145865120Y-72769465D01*
X145670535Y-72574880D01*
X145441727Y-72421995D01*
X145187490Y-72316686D01*
X144917592Y-72263000D01*
X144642408Y-72263000D01*
X144372510Y-72316686D01*
X144118273Y-72421995D01*
X143889465Y-72574880D01*
X143694880Y-72769465D01*
X143636080Y-72857465D01*
X143627812Y-72773518D01*
X143591502Y-72653820D01*
X143532537Y-72543506D01*
X143453185Y-72446815D01*
X143356494Y-72367463D01*
X143246180Y-72308498D01*
X143126482Y-72272188D01*
X143002000Y-72259928D01*
X141478000Y-72259928D01*
X141353518Y-72272188D01*
X141233820Y-72308498D01*
X141123506Y-72367463D01*
X141026815Y-72446815D01*
X140947463Y-72543506D01*
X140888498Y-72653820D01*
X140852188Y-72773518D01*
X140839928Y-72898000D01*
X140839928Y-74422000D01*
X140852188Y-74546482D01*
X140888498Y-74666180D01*
X140947463Y-74776494D01*
X141026815Y-74873185D01*
X141123506Y-74952537D01*
X141233820Y-75011502D01*
X141353518Y-75047812D01*
X141478000Y-75060072D01*
X143002000Y-75060072D01*
X143126482Y-75047812D01*
X143246180Y-75011502D01*
X143356494Y-74952537D01*
X143453185Y-74873185D01*
X143532537Y-74776494D01*
X143591502Y-74666180D01*
X143627812Y-74546482D01*
X143636080Y-74462535D01*
X143694880Y-74550535D01*
X143889465Y-74745120D01*
X144118273Y-74898005D01*
X144372510Y-75003314D01*
X144642408Y-75057000D01*
X144917592Y-75057000D01*
X145187490Y-75003314D01*
X145441727Y-74898005D01*
X145670535Y-74745120D01*
X145865120Y-74550535D01*
X146018005Y-74321727D01*
X146050000Y-74244485D01*
X146081995Y-74321727D01*
X146234880Y-74550535D01*
X146429465Y-74745120D01*
X146658273Y-74898005D01*
X146912510Y-75003314D01*
X147182408Y-75057000D01*
X147457592Y-75057000D01*
X147727490Y-75003314D01*
X147981727Y-74898005D01*
X148210535Y-74745120D01*
X148405120Y-74550535D01*
X148558005Y-74321727D01*
X148590000Y-74244485D01*
X148621995Y-74321727D01*
X148774880Y-74550535D01*
X148969465Y-74745120D01*
X149198273Y-74898005D01*
X149452510Y-75003314D01*
X149722408Y-75057000D01*
X149997592Y-75057000D01*
X150267490Y-75003314D01*
X150521727Y-74898005D01*
X150750535Y-74745120D01*
X150945120Y-74550535D01*
X151098005Y-74321727D01*
X151130000Y-74244485D01*
X151161995Y-74321727D01*
X151314880Y-74550535D01*
X151509465Y-74745120D01*
X151738273Y-74898005D01*
X151992510Y-75003314D01*
X152262408Y-75057000D01*
X152537592Y-75057000D01*
X152807490Y-75003314D01*
X153061727Y-74898005D01*
X153290535Y-74745120D01*
X153485120Y-74550535D01*
X153638005Y-74321727D01*
X153670000Y-74244485D01*
X153701995Y-74321727D01*
X153854880Y-74550535D01*
X154049465Y-74745120D01*
X154278273Y-74898005D01*
X154305866Y-74909435D01*
X154260273Y-74928320D01*
X154055716Y-75065000D01*
X131595626Y-75065000D01*
X131817871Y-74916500D01*
X132066500Y-74667871D01*
X132261847Y-74375515D01*
X132396404Y-74050665D01*
X132465000Y-73705807D01*
X132465000Y-73354193D01*
X132396404Y-73009335D01*
X132261847Y-72684485D01*
X132066500Y-72392129D01*
X131817871Y-72143500D01*
X131525515Y-71948153D01*
X131200665Y-71813596D01*
X131157450Y-71805000D01*
X171102550Y-71805000D01*
X171059335Y-71813596D01*
G04 #@! TA.AperFunction,Conductor*
D19*
G36*
X171059335Y-71813596D02*
G01*
X170734485Y-71948153D01*
X170442129Y-72143500D01*
X170193500Y-72392129D01*
X169998153Y-72684485D01*
X169863596Y-73009335D01*
X169795000Y-73354193D01*
X169795000Y-73705807D01*
X169863596Y-74050665D01*
X169998153Y-74375515D01*
X170193500Y-74667871D01*
X170442129Y-74916500D01*
X170664374Y-75065000D01*
X155824284Y-75065000D01*
X155619727Y-74928320D01*
X155574134Y-74909435D01*
X155601727Y-74898005D01*
X155830535Y-74745120D01*
X156025120Y-74550535D01*
X156178005Y-74321727D01*
X156210000Y-74244485D01*
X156241995Y-74321727D01*
X156394880Y-74550535D01*
X156589465Y-74745120D01*
X156818273Y-74898005D01*
X157072510Y-75003314D01*
X157342408Y-75057000D01*
X157617592Y-75057000D01*
X157887490Y-75003314D01*
X158141727Y-74898005D01*
X158370535Y-74745120D01*
X158490090Y-74625565D01*
X159234040Y-74625565D01*
X159301020Y-74865656D01*
X159550048Y-74982756D01*
X159817135Y-75049023D01*
X160092017Y-75061910D01*
X160364133Y-75020922D01*
X160623023Y-74927636D01*
X160738980Y-74865656D01*
X160805960Y-74625565D01*
X160020000Y-73839605D01*
X159234040Y-74625565D01*
X158490090Y-74625565D01*
X158565120Y-74550535D01*
X158718005Y-74321727D01*
X158747692Y-74250057D01*
X158752364Y-74263023D01*
X158814344Y-74378980D01*
X159054435Y-74445960D01*
X159840395Y-73660000D01*
X160199605Y-73660000D01*
X160985565Y-74445960D01*
X161225656Y-74378980D01*
X161342756Y-74129952D01*
X161409023Y-73862865D01*
X161421910Y-73587983D01*
X161380922Y-73315867D01*
X161287636Y-73056977D01*
X161225656Y-72941020D01*
X160985565Y-72874040D01*
X160199605Y-73660000D01*
X159840395Y-73660000D01*
X159054435Y-72874040D01*
X158814344Y-72941020D01*
X158750515Y-73076760D01*
X158718005Y-72998273D01*
X158565120Y-72769465D01*
X158490090Y-72694435D01*
X159234040Y-72694435D01*
X160020000Y-73480395D01*
X160805960Y-72694435D01*
X160738980Y-72454344D01*
X160489952Y-72337244D01*
X160222865Y-72270977D01*
X159947983Y-72258090D01*
X159675867Y-72299078D01*
X159416977Y-72392364D01*
X159301020Y-72454344D01*
X159234040Y-72694435D01*
X158490090Y-72694435D01*
X158370535Y-72574880D01*
X158141727Y-72421995D01*
X157887490Y-72316686D01*
X157617592Y-72263000D01*
X157342408Y-72263000D01*
X157072510Y-72316686D01*
X156818273Y-72421995D01*
X156589465Y-72574880D01*
X156394880Y-72769465D01*
X156241995Y-72998273D01*
X156210000Y-73075515D01*
X156178005Y-72998273D01*
X156025120Y-72769465D01*
X155830535Y-72574880D01*
X155601727Y-72421995D01*
X155347490Y-72316686D01*
X155077592Y-72263000D01*
X154802408Y-72263000D01*
X154532510Y-72316686D01*
X154278273Y-72421995D01*
X154049465Y-72574880D01*
X153854880Y-72769465D01*
X153701995Y-72998273D01*
X153670000Y-73075515D01*
X153638005Y-72998273D01*
X153485120Y-72769465D01*
X153290535Y-72574880D01*
X153061727Y-72421995D01*
X152807490Y-72316686D01*
X152537592Y-72263000D01*
X152262408Y-72263000D01*
X151992510Y-72316686D01*
X151738273Y-72421995D01*
X151509465Y-72574880D01*
X151314880Y-72769465D01*
X151161995Y-72998273D01*
X151130000Y-73075515D01*
X151098005Y-72998273D01*
X150945120Y-72769465D01*
X150750535Y-72574880D01*
X150521727Y-72421995D01*
X150267490Y-72316686D01*
X149997592Y-72263000D01*
X149722408Y-72263000D01*
X149452510Y-72316686D01*
X149198273Y-72421995D01*
X148969465Y-72574880D01*
X148774880Y-72769465D01*
X148621995Y-72998273D01*
X148590000Y-73075515D01*
X148558005Y-72998273D01*
X148405120Y-72769465D01*
X148210535Y-72574880D01*
X147981727Y-72421995D01*
X147727490Y-72316686D01*
X147457592Y-72263000D01*
X147182408Y-72263000D01*
X146912510Y-72316686D01*
X146658273Y-72421995D01*
X146429465Y-72574880D01*
X146234880Y-72769465D01*
X146081995Y-72998273D01*
X146050000Y-73075515D01*
X146018005Y-72998273D01*
X145865120Y-72769465D01*
X145670535Y-72574880D01*
X145441727Y-72421995D01*
X145187490Y-72316686D01*
X144917592Y-72263000D01*
X144642408Y-72263000D01*
X144372510Y-72316686D01*
X144118273Y-72421995D01*
X143889465Y-72574880D01*
X143694880Y-72769465D01*
X143636080Y-72857465D01*
X143627812Y-72773518D01*
X143591502Y-72653820D01*
X143532537Y-72543506D01*
X143453185Y-72446815D01*
X143356494Y-72367463D01*
X143246180Y-72308498D01*
X143126482Y-72272188D01*
X143002000Y-72259928D01*
X141478000Y-72259928D01*
X141353518Y-72272188D01*
X141233820Y-72308498D01*
X141123506Y-72367463D01*
X141026815Y-72446815D01*
X140947463Y-72543506D01*
X140888498Y-72653820D01*
X140852188Y-72773518D01*
X140839928Y-72898000D01*
X140839928Y-74422000D01*
X140852188Y-74546482D01*
X140888498Y-74666180D01*
X140947463Y-74776494D01*
X141026815Y-74873185D01*
X141123506Y-74952537D01*
X141233820Y-75011502D01*
X141353518Y-75047812D01*
X141478000Y-75060072D01*
X143002000Y-75060072D01*
X143126482Y-75047812D01*
X143246180Y-75011502D01*
X143356494Y-74952537D01*
X143453185Y-74873185D01*
X143532537Y-74776494D01*
X143591502Y-74666180D01*
X143627812Y-74546482D01*
X143636080Y-74462535D01*
X143694880Y-74550535D01*
X143889465Y-74745120D01*
X144118273Y-74898005D01*
X144372510Y-75003314D01*
X144642408Y-75057000D01*
X144917592Y-75057000D01*
X145187490Y-75003314D01*
X145441727Y-74898005D01*
X145670535Y-74745120D01*
X145865120Y-74550535D01*
X146018005Y-74321727D01*
X146050000Y-74244485D01*
X146081995Y-74321727D01*
X146234880Y-74550535D01*
X146429465Y-74745120D01*
X146658273Y-74898005D01*
X146912510Y-75003314D01*
X147182408Y-75057000D01*
X147457592Y-75057000D01*
X147727490Y-75003314D01*
X147981727Y-74898005D01*
X148210535Y-74745120D01*
X148405120Y-74550535D01*
X148558005Y-74321727D01*
X148590000Y-74244485D01*
X148621995Y-74321727D01*
X148774880Y-74550535D01*
X148969465Y-74745120D01*
X149198273Y-74898005D01*
X149452510Y-75003314D01*
X149722408Y-75057000D01*
X149997592Y-75057000D01*
X150267490Y-75003314D01*
X150521727Y-74898005D01*
X150750535Y-74745120D01*
X150945120Y-74550535D01*
X151098005Y-74321727D01*
X151130000Y-74244485D01*
X151161995Y-74321727D01*
X151314880Y-74550535D01*
X151509465Y-74745120D01*
X151738273Y-74898005D01*
X151992510Y-75003314D01*
X152262408Y-75057000D01*
X152537592Y-75057000D01*
X152807490Y-75003314D01*
X153061727Y-74898005D01*
X153290535Y-74745120D01*
X153485120Y-74550535D01*
X153638005Y-74321727D01*
X153670000Y-74244485D01*
X153701995Y-74321727D01*
X153854880Y-74550535D01*
X154049465Y-74745120D01*
X154278273Y-74898005D01*
X154305866Y-74909435D01*
X154260273Y-74928320D01*
X154055716Y-75065000D01*
X131595626Y-75065000D01*
X131817871Y-74916500D01*
X132066500Y-74667871D01*
X132261847Y-74375515D01*
X132396404Y-74050665D01*
X132465000Y-73705807D01*
X132465000Y-73354193D01*
X132396404Y-73009335D01*
X132261847Y-72684485D01*
X132066500Y-72392129D01*
X131817871Y-72143500D01*
X131525515Y-71948153D01*
X131200665Y-71813596D01*
X131157450Y-71805000D01*
X171102550Y-71805000D01*
X171059335Y-71813596D01*
G37*
G04 #@! TD.AperFunction*
M02*
