G04 #@! TF.GenerationSoftware,KiCad,Pcbnew,(5.1.9)-1*
G04 #@! TF.CreationDate,2021-04-11T14:47:46+02:00*
G04 #@! TF.ProjectId,Sunrise clock display board,53756e72-6973-4652-9063-6c6f636b2064,V1.0*
G04 #@! TF.SameCoordinates,Original*
G04 #@! TF.FileFunction,Legend,Top*
G04 #@! TF.FilePolarity,Positive*
%FSLAX46Y46*%
G04 Gerber Fmt 4.6, Leading zero omitted, Abs format (unit mm)*
G04 Created by KiCad (PCBNEW (5.1.9)-1) date 2021-04-11 14:47:46*
%MOMM*%
%LPD*%
G01*
G04 APERTURE LIST*
%ADD10C,0.300000*%
%ADD11C,0.120000*%
%ADD12C,0.150000*%
%ADD13O,3.200000X8.200000*%
%ADD14R,1.500000X1.500000*%
%ADD15C,1.700000*%
%ADD16C,2.300000*%
%ADD17C,1.524000*%
%ADD18R,1.524000X1.524000*%
G04 APERTURE END LIST*
D10*
X197056666Y-89804761D02*
X196104285Y-89804761D01*
X196104285Y-87804761D01*
X198866190Y-89614285D02*
X198770952Y-89709523D01*
X198485238Y-89804761D01*
X198294761Y-89804761D01*
X198009047Y-89709523D01*
X197818571Y-89519047D01*
X197723333Y-89328571D01*
X197628095Y-88947619D01*
X197628095Y-88661904D01*
X197723333Y-88280952D01*
X197818571Y-88090476D01*
X198009047Y-87900000D01*
X198294761Y-87804761D01*
X198485238Y-87804761D01*
X198770952Y-87900000D01*
X198866190Y-87995238D01*
X199723333Y-89804761D02*
X199723333Y-87804761D01*
X200199523Y-87804761D01*
X200485238Y-87900000D01*
X200675714Y-88090476D01*
X200770952Y-88280952D01*
X200866190Y-88661904D01*
X200866190Y-88947619D01*
X200770952Y-89328571D01*
X200675714Y-89519047D01*
X200485238Y-89709523D01*
X200199523Y-89804761D01*
X199723333Y-89804761D01*
X201532857Y-87804761D02*
X202770952Y-87804761D01*
X202104285Y-88566666D01*
X202390000Y-88566666D01*
X202580476Y-88661904D01*
X202675714Y-88757142D01*
X202770952Y-88947619D01*
X202770952Y-89423809D01*
X202675714Y-89614285D01*
X202580476Y-89709523D01*
X202390000Y-89804761D01*
X201818571Y-89804761D01*
X201628095Y-89709523D01*
X201532857Y-89614285D01*
X100536666Y-89804761D02*
X99584285Y-89804761D01*
X99584285Y-87804761D01*
X102346190Y-89614285D02*
X102250952Y-89709523D01*
X101965238Y-89804761D01*
X101774761Y-89804761D01*
X101489047Y-89709523D01*
X101298571Y-89519047D01*
X101203333Y-89328571D01*
X101108095Y-88947619D01*
X101108095Y-88661904D01*
X101203333Y-88280952D01*
X101298571Y-88090476D01*
X101489047Y-87900000D01*
X101774761Y-87804761D01*
X101965238Y-87804761D01*
X102250952Y-87900000D01*
X102346190Y-87995238D01*
X103203333Y-89804761D02*
X103203333Y-87804761D01*
X103679523Y-87804761D01*
X103965238Y-87900000D01*
X104155714Y-88090476D01*
X104250952Y-88280952D01*
X104346190Y-88661904D01*
X104346190Y-88947619D01*
X104250952Y-89328571D01*
X104155714Y-89519047D01*
X103965238Y-89709523D01*
X103679523Y-89804761D01*
X103203333Y-89804761D01*
X106250952Y-89804761D02*
X105108095Y-89804761D01*
X105679523Y-89804761D02*
X105679523Y-87804761D01*
X105489047Y-88090476D01*
X105298571Y-88280952D01*
X105108095Y-88376190D01*
X148796666Y-89804761D02*
X147844285Y-89804761D01*
X147844285Y-87804761D01*
X150606190Y-89614285D02*
X150510952Y-89709523D01*
X150225238Y-89804761D01*
X150034761Y-89804761D01*
X149749047Y-89709523D01*
X149558571Y-89519047D01*
X149463333Y-89328571D01*
X149368095Y-88947619D01*
X149368095Y-88661904D01*
X149463333Y-88280952D01*
X149558571Y-88090476D01*
X149749047Y-87900000D01*
X150034761Y-87804761D01*
X150225238Y-87804761D01*
X150510952Y-87900000D01*
X150606190Y-87995238D01*
X151463333Y-89804761D02*
X151463333Y-87804761D01*
X151939523Y-87804761D01*
X152225238Y-87900000D01*
X152415714Y-88090476D01*
X152510952Y-88280952D01*
X152606190Y-88661904D01*
X152606190Y-88947619D01*
X152510952Y-89328571D01*
X152415714Y-89519047D01*
X152225238Y-89709523D01*
X151939523Y-89804761D01*
X151463333Y-89804761D01*
X153368095Y-87995238D02*
X153463333Y-87900000D01*
X153653809Y-87804761D01*
X154130000Y-87804761D01*
X154320476Y-87900000D01*
X154415714Y-87995238D01*
X154510952Y-88185714D01*
X154510952Y-88376190D01*
X154415714Y-88661904D01*
X153272857Y-89804761D01*
X154510952Y-89804761D01*
D11*
X222860000Y-106680000D02*
X222860000Y-111760000D01*
X229260000Y-106680000D02*
X229260000Y-111760000D01*
X229260000Y-111760000D02*
G75*
G02*
X222860000Y-111760000I-3200000J0D01*
G01*
X222860000Y-106680000D02*
G75*
G02*
X229260000Y-106680000I3200000J0D01*
G01*
X73000000Y-106680000D02*
X73000000Y-111760000D01*
X79400000Y-106680000D02*
X79400000Y-111760000D01*
X79400000Y-111760000D02*
G75*
G02*
X73000000Y-111760000I-3200000J0D01*
G01*
X73000000Y-106680000D02*
G75*
G02*
X79400000Y-106680000I3200000J0D01*
G01*
X222860000Y-76200000D02*
X222860000Y-81280000D01*
X229260000Y-76200000D02*
X229260000Y-81280000D01*
X229260000Y-81280000D02*
G75*
G02*
X222860000Y-81280000I-3200000J0D01*
G01*
X222860000Y-76200000D02*
G75*
G02*
X229260000Y-76200000I3200000J0D01*
G01*
X73000000Y-76200000D02*
X73000000Y-81280000D01*
X79400000Y-76200000D02*
X79400000Y-81280000D01*
X79400000Y-81280000D02*
G75*
G02*
X73000000Y-81280000I-3200000J0D01*
G01*
X73000000Y-76200000D02*
G75*
G02*
X79400000Y-76200000I3200000J0D01*
G01*
X176890000Y-116480000D02*
X176890000Y-71480000D01*
X221890000Y-116480000D02*
X176890000Y-116480000D01*
X221890000Y-71480000D02*
X221890000Y-116480000D01*
X176890000Y-71480000D02*
X221890000Y-71480000D01*
X128630000Y-116480000D02*
X128630000Y-71480000D01*
X173630000Y-116480000D02*
X128630000Y-116480000D01*
X173630000Y-71480000D02*
X173630000Y-116480000D01*
X128630000Y-71480000D02*
X173630000Y-71480000D01*
X80370000Y-116480000D02*
X80370000Y-71480000D01*
X125370000Y-116480000D02*
X80370000Y-116480000D01*
X125370000Y-71480000D02*
X125370000Y-116480000D01*
X80370000Y-71480000D02*
X125370000Y-71480000D01*
D12*
X212778095Y-73132380D02*
X212778095Y-73941904D01*
X212825714Y-74037142D01*
X212873333Y-74084761D01*
X212968571Y-74132380D01*
X213159047Y-74132380D01*
X213254285Y-74084761D01*
X213301904Y-74037142D01*
X213349523Y-73941904D01*
X213349523Y-73132380D01*
X213730476Y-73132380D02*
X214349523Y-73132380D01*
X214016190Y-73513333D01*
X214159047Y-73513333D01*
X214254285Y-73560952D01*
X214301904Y-73608571D01*
X214349523Y-73703809D01*
X214349523Y-73941904D01*
X214301904Y-74037142D01*
X214254285Y-74084761D01*
X214159047Y-74132380D01*
X213873333Y-74132380D01*
X213778095Y-74084761D01*
X213730476Y-74037142D01*
X164518095Y-73132380D02*
X164518095Y-73941904D01*
X164565714Y-74037142D01*
X164613333Y-74084761D01*
X164708571Y-74132380D01*
X164899047Y-74132380D01*
X164994285Y-74084761D01*
X165041904Y-74037142D01*
X165089523Y-73941904D01*
X165089523Y-73132380D01*
X165518095Y-73227619D02*
X165565714Y-73180000D01*
X165660952Y-73132380D01*
X165899047Y-73132380D01*
X165994285Y-73180000D01*
X166041904Y-73227619D01*
X166089523Y-73322857D01*
X166089523Y-73418095D01*
X166041904Y-73560952D01*
X165470476Y-74132380D01*
X166089523Y-74132380D01*
X116258095Y-73132380D02*
X116258095Y-73941904D01*
X116305714Y-74037142D01*
X116353333Y-74084761D01*
X116448571Y-74132380D01*
X116639047Y-74132380D01*
X116734285Y-74084761D01*
X116781904Y-74037142D01*
X116829523Y-73941904D01*
X116829523Y-73132380D01*
X117829523Y-74132380D02*
X117258095Y-74132380D01*
X117543809Y-74132380D02*
X117543809Y-73132380D01*
X117448571Y-73275238D01*
X117353333Y-73370476D01*
X117258095Y-73418095D01*
%LPC*%
D13*
X226060000Y-109220000D03*
X76200000Y-109220000D03*
X226060000Y-78740000D03*
X76200000Y-78740000D03*
D14*
X215900000Y-100330000D03*
X215900000Y-96520000D03*
X215900000Y-88900000D03*
X215900000Y-92710000D03*
X215900000Y-85090000D03*
X215900000Y-81280000D03*
X195580000Y-86360000D03*
X144780000Y-88900000D03*
X88900000Y-80010000D03*
X215900000Y-77470000D03*
D15*
X107950000Y-100330000D03*
X105410000Y-100330000D03*
X102870000Y-100330000D03*
X100330000Y-100330000D03*
X97790000Y-100330000D03*
X107950000Y-97790000D03*
X105410000Y-97790000D03*
X102870000Y-97790000D03*
X100330000Y-97790000D03*
G36*
G01*
X97190000Y-96940000D02*
X98390000Y-96940000D01*
G75*
G02*
X98640000Y-97190000I0J-250000D01*
G01*
X98640000Y-98390000D01*
G75*
G02*
X98390000Y-98640000I-250000J0D01*
G01*
X97190000Y-98640000D01*
G75*
G02*
X96940000Y-98390000I0J250000D01*
G01*
X96940000Y-97190000D01*
G75*
G02*
X97190000Y-96940000I250000J0D01*
G01*
G37*
D16*
X178940000Y-114430000D03*
X219840000Y-114430000D03*
X219840000Y-73530000D03*
X178940000Y-73530000D03*
D17*
X205740000Y-114300000D03*
X208280000Y-114300000D03*
X203200000Y-114300000D03*
D18*
X190500000Y-114300000D03*
D17*
X200660000Y-114300000D03*
X198120000Y-114300000D03*
X193040000Y-114300000D03*
X195580000Y-114300000D03*
X208280000Y-73660000D03*
X205740000Y-73660000D03*
X203200000Y-73660000D03*
X200660000Y-73660000D03*
X198120000Y-73660000D03*
X195580000Y-73660000D03*
X193040000Y-73660000D03*
D18*
X190500000Y-73660000D03*
D16*
X130680000Y-114430000D03*
X171580000Y-114430000D03*
X171580000Y-73530000D03*
X130680000Y-73530000D03*
D17*
X157480000Y-114300000D03*
X160020000Y-114300000D03*
X154940000Y-114300000D03*
D18*
X142240000Y-114300000D03*
D17*
X152400000Y-114300000D03*
X149860000Y-114300000D03*
X144780000Y-114300000D03*
X147320000Y-114300000D03*
X160020000Y-73660000D03*
X157480000Y-73660000D03*
X154940000Y-73660000D03*
X152400000Y-73660000D03*
X149860000Y-73660000D03*
X147320000Y-73660000D03*
X144780000Y-73660000D03*
D18*
X142240000Y-73660000D03*
D16*
X82420000Y-114430000D03*
X123320000Y-114430000D03*
X123320000Y-73530000D03*
X82420000Y-73530000D03*
D17*
X109220000Y-114300000D03*
X111760000Y-114300000D03*
X106680000Y-114300000D03*
D18*
X93980000Y-114300000D03*
D17*
X104140000Y-114300000D03*
X101600000Y-114300000D03*
X96520000Y-114300000D03*
X99060000Y-114300000D03*
X111760000Y-73660000D03*
X109220000Y-73660000D03*
X106680000Y-73660000D03*
X104140000Y-73660000D03*
X101600000Y-73660000D03*
X99060000Y-73660000D03*
X96520000Y-73660000D03*
D18*
X93980000Y-73660000D03*
M02*
