G04 #@! TF.GenerationSoftware,KiCad,Pcbnew,(5.1.9)-1*
G04 #@! TF.CreationDate,2021-04-11T14:47:47+02:00*
G04 #@! TF.ProjectId,Sunrise clock display board,53756e72-6973-4652-9063-6c6f636b2064,V1.0*
G04 #@! TF.SameCoordinates,Original*
G04 #@! TF.FileFunction,Soldermask,Bot*
G04 #@! TF.FilePolarity,Negative*
%FSLAX46Y46*%
G04 Gerber Fmt 4.6, Leading zero omitted, Abs format (unit mm)*
G04 Created by KiCad (PCBNEW (5.1.9)-1) date 2021-04-11 14:47:47*
%MOMM*%
%LPD*%
G01*
G04 APERTURE LIST*
%ADD10O,3.200000X8.200000*%
%ADD11R,1.500000X1.500000*%
%ADD12C,1.700000*%
%ADD13C,2.300000*%
%ADD14C,1.524000*%
%ADD15R,1.524000X1.524000*%
%ADD16R,1.900000X0.800000*%
G04 APERTURE END LIST*
D10*
X226060000Y-109220000D03*
X76200000Y-109220000D03*
X226060000Y-78740000D03*
X76200000Y-78740000D03*
D11*
X215900000Y-100330000D03*
X215900000Y-96520000D03*
X215900000Y-88900000D03*
X215900000Y-92710000D03*
X215900000Y-85090000D03*
X215900000Y-81280000D03*
X195580000Y-86360000D03*
X144780000Y-88900000D03*
X88900000Y-80010000D03*
X215900000Y-77470000D03*
D12*
X107950000Y-100330000D03*
X105410000Y-100330000D03*
X102870000Y-100330000D03*
X100330000Y-100330000D03*
X97790000Y-100330000D03*
X107950000Y-97790000D03*
X105410000Y-97790000D03*
X102870000Y-97790000D03*
X100330000Y-97790000D03*
G36*
G01*
X97190000Y-96940000D02*
X98390000Y-96940000D01*
G75*
G02*
X98640000Y-97190000I0J-250000D01*
G01*
X98640000Y-98390000D01*
G75*
G02*
X98390000Y-98640000I-250000J0D01*
G01*
X97190000Y-98640000D01*
G75*
G02*
X96940000Y-98390000I0J250000D01*
G01*
X96940000Y-97190000D01*
G75*
G02*
X97190000Y-96940000I250000J0D01*
G01*
G37*
D13*
X178940000Y-114430000D03*
X219840000Y-114430000D03*
X219840000Y-73530000D03*
X178940000Y-73530000D03*
D14*
X205740000Y-114300000D03*
X208280000Y-114300000D03*
X203200000Y-114300000D03*
D15*
X190500000Y-114300000D03*
D14*
X200660000Y-114300000D03*
X198120000Y-114300000D03*
X193040000Y-114300000D03*
X195580000Y-114300000D03*
X208280000Y-73660000D03*
X205740000Y-73660000D03*
X203200000Y-73660000D03*
X200660000Y-73660000D03*
X198120000Y-73660000D03*
X195580000Y-73660000D03*
X193040000Y-73660000D03*
D15*
X190500000Y-73660000D03*
D13*
X130680000Y-114430000D03*
X171580000Y-114430000D03*
X171580000Y-73530000D03*
X130680000Y-73530000D03*
D14*
X157480000Y-114300000D03*
X160020000Y-114300000D03*
X154940000Y-114300000D03*
D15*
X142240000Y-114300000D03*
D14*
X152400000Y-114300000D03*
X149860000Y-114300000D03*
X144780000Y-114300000D03*
X147320000Y-114300000D03*
X160020000Y-73660000D03*
X157480000Y-73660000D03*
X154940000Y-73660000D03*
X152400000Y-73660000D03*
X149860000Y-73660000D03*
X147320000Y-73660000D03*
X144780000Y-73660000D03*
D15*
X142240000Y-73660000D03*
D13*
X82420000Y-114430000D03*
X123320000Y-114430000D03*
X123320000Y-73530000D03*
X82420000Y-73530000D03*
D14*
X109220000Y-114300000D03*
X111760000Y-114300000D03*
X106680000Y-114300000D03*
D15*
X93980000Y-114300000D03*
D14*
X104140000Y-114300000D03*
X101600000Y-114300000D03*
X96520000Y-114300000D03*
X99060000Y-114300000D03*
X111760000Y-73660000D03*
X109220000Y-73660000D03*
X106680000Y-73660000D03*
X104140000Y-73660000D03*
X101600000Y-73660000D03*
X99060000Y-73660000D03*
X96520000Y-73660000D03*
D15*
X93980000Y-73660000D03*
G36*
G01*
X169729999Y-90570000D02*
X170630001Y-90570000D01*
G75*
G02*
X170880000Y-90819999I0J-249999D01*
G01*
X170880000Y-91520001D01*
G75*
G02*
X170630001Y-91770000I-249999J0D01*
G01*
X169729999Y-91770000D01*
G75*
G02*
X169480000Y-91520001I0J249999D01*
G01*
X169480000Y-90819999D01*
G75*
G02*
X169729999Y-90570000I249999J0D01*
G01*
G37*
G36*
G01*
X169729999Y-88570000D02*
X170630001Y-88570000D01*
G75*
G02*
X170880000Y-88819999I0J-249999D01*
G01*
X170880000Y-89520001D01*
G75*
G02*
X170630001Y-89770000I-249999J0D01*
G01*
X169729999Y-89770000D01*
G75*
G02*
X169480000Y-89520001I0J249999D01*
G01*
X169480000Y-88819999D01*
G75*
G02*
X169729999Y-88570000I249999J0D01*
G01*
G37*
D16*
X162330000Y-90170000D03*
X165330000Y-91120000D03*
X165330000Y-89220000D03*
M02*
