M48
; DRILL file {KiCad (5.1.9)-1} date 04/11/21 14:48:02
; FORMAT={-:-/ absolute / metric / decimal}
; #@! TF.CreationDate,2021-04-11T14:48:02+02:00
; #@! TF.GenerationSoftware,Kicad,Pcbnew,(5.1.9)-1
; #@! TF.FileFunction,Plated,1,2,PTH
FMAT,2
METRIC
T1C0.400
T2C0.700
T3C0.762
T4C0.800
T5C1.000
%
G90
G05
T1
X93.98Y-77.47
X96.52Y-80.01
X97.79Y-85.09
X99.06Y-78.74
X99.06Y-86.36
X101.6Y-80.01
X104.14Y-81.28
X105.41Y-83.82
X109.22Y-82.55
X142.24Y-77.47
X144.78Y-85.09
X147.32Y-78.74
X149.86Y-80.01
X152.4Y-81.28
X157.48Y-82.55
X162.56Y-82.55
X170.18Y-83.82
X190.5Y-77.47
X193.04Y-86.36
X195.58Y-78.74
X198.12Y-80.01
X200.66Y-81.28
X205.74Y-82.55
X212.09Y-91.44
T2
X88.9Y-80.01
X144.78Y-88.9
X195.58Y-86.36
X215.9Y-77.47
X215.9Y-81.28
X215.9Y-85.09
X215.9Y-88.9
X215.9Y-92.71
X215.9Y-96.52
X215.9Y-100.33
T3
X93.98Y-73.66
X93.98Y-114.3
X96.52Y-73.66
X96.52Y-114.3
X99.06Y-73.66
X99.06Y-114.3
X101.6Y-73.66
X101.6Y-114.3
X104.14Y-73.66
X104.14Y-114.3
X106.68Y-73.66
X106.68Y-114.3
X109.22Y-73.66
X109.22Y-114.3
X111.76Y-73.66
X111.76Y-114.3
X142.24Y-73.66
X142.24Y-114.3
X144.78Y-73.66
X144.78Y-114.3
X147.32Y-73.66
X147.32Y-114.3
X149.86Y-73.66
X149.86Y-114.3
X152.4Y-73.66
X152.4Y-114.3
X154.94Y-73.66
X154.94Y-114.3
X157.48Y-73.66
X157.48Y-114.3
X160.02Y-73.66
X160.02Y-114.3
X190.5Y-73.66
X190.5Y-114.3
X193.04Y-73.66
X193.04Y-114.3
X195.58Y-73.66
X195.58Y-114.3
X198.12Y-73.66
X198.12Y-114.3
X200.66Y-73.66
X200.66Y-114.3
X203.2Y-73.66
X203.2Y-114.3
X205.74Y-73.66
X205.74Y-114.3
X208.28Y-73.66
X208.28Y-114.3
T4
X106.68Y-76.2
X154.94Y-76.2
X203.2Y-76.2
T5
X97.79Y-97.79
X97.79Y-100.33
X100.33Y-97.79
X100.33Y-100.33
X102.87Y-97.79
X102.87Y-100.33
X105.41Y-97.79
X105.41Y-100.33
X107.95Y-97.79
X107.95Y-100.33
T0
M30
