G04 #@! TF.GenerationSoftware,KiCad,Pcbnew,(5.1.9)-1*
G04 #@! TF.CreationDate,2021-04-11T14:45:32+02:00*
G04 #@! TF.ProjectId,Sunrise clock main board,53756e72-6973-4652-9063-6c6f636b206d,V1.0*
G04 #@! TF.SameCoordinates,Original*
G04 #@! TF.FileFunction,Profile,NP*
%FSLAX46Y46*%
G04 Gerber Fmt 4.6, Leading zero omitted, Abs format (unit mm)*
G04 Created by KiCad (PCBNEW (5.1.9)-1) date 2021-04-11 14:45:32*
%MOMM*%
%LPD*%
G01*
G04 APERTURE LIST*
G04 #@! TA.AperFunction,Profile*
%ADD10C,0.050000*%
G04 #@! TD*
G04 APERTURE END LIST*
D10*
X39370000Y53340000D02*
G75*
G02*
X41910000Y50800000I0J-2540000D01*
G01*
X46990000Y45720000D02*
G75*
G02*
X41910000Y50800000I0J5080000D01*
G01*
X46990000Y53340000D02*
X74930000Y53340000D01*
X66040000Y45720000D02*
X46990000Y45720000D01*
X66040000Y48260000D02*
G75*
G02*
X66040000Y45720000I0J-1270000D01*
G01*
X46990000Y48260000D02*
X66040000Y48260000D01*
X46990000Y48260000D02*
G75*
G02*
X46990000Y53340000I0J2540000D01*
G01*
X71120000Y-38100000D02*
G75*
G02*
X75565000Y-33655000I4445000J0D01*
G01*
X80010000Y-29210000D02*
G75*
G02*
X75565000Y-33655000I-4445000J0D01*
G01*
X-75565000Y-33655000D02*
G75*
G02*
X-80010000Y-29210000I0J4445000D01*
G01*
X-75565000Y-33655000D02*
G75*
G02*
X-71120000Y-38100000I0J-4445000D01*
G01*
X-71120000Y-48260000D02*
X-71120000Y-38100000D01*
X71120000Y-48260000D02*
X71120000Y-38100000D01*
X-66040000Y-53340000D02*
G75*
G02*
X-71120000Y-48260000I0J5080000D01*
G01*
X71120000Y-48260000D02*
G75*
G02*
X66040000Y-53340000I-5080000J0D01*
G01*
X74930000Y53340000D02*
G75*
G02*
X80010000Y48260000I0J-5080000D01*
G01*
X-80010000Y48260000D02*
G75*
G02*
X-74930000Y53340000I5080000J0D01*
G01*
X80010000Y-29210000D02*
X80010000Y48260000D01*
X-66040000Y-53340000D02*
X66040000Y-53340000D01*
X-80010000Y48260000D02*
X-80010000Y-29210000D01*
X39370000Y53340000D02*
X-74930000Y53340000D01*
M02*
