G04 #@! TF.GenerationSoftware,KiCad,Pcbnew,(5.1.9)-1*
G04 #@! TF.CreationDate,2021-04-11T14:45:31+02:00*
G04 #@! TF.ProjectId,Sunrise clock main board,53756e72-6973-4652-9063-6c6f636b206d,V1.0*
G04 #@! TF.SameCoordinates,Original*
G04 #@! TF.FileFunction,Legend,Bot*
G04 #@! TF.FilePolarity,Positive*
%FSLAX46Y46*%
G04 Gerber Fmt 4.6, Leading zero omitted, Abs format (unit mm)*
G04 Created by KiCad (PCBNEW (5.1.9)-1) date 2021-04-11 14:45:32*
%MOMM*%
%LPD*%
G01*
G04 APERTURE LIST*
%ADD10C,0.120000*%
%ADD11C,0.150000*%
%ADD12C,1.524000*%
%ADD13R,1.500000X1.500000*%
%ADD14C,2.600000*%
%ADD15R,2.600000X2.600000*%
%ADD16O,1.850000X3.048000*%
%ADD17O,3.048000X1.850000*%
%ADD18C,0.800000*%
%ADD19C,6.400000*%
%ADD20C,1.500000*%
%ADD21C,4.300000*%
%ADD22C,1.700000*%
%ADD23R,1.700000X1.700000*%
%ADD24R,3.500000X3.500000*%
%ADD25O,1.700000X1.700000*%
%ADD26C,2.100000*%
%ADD27R,2.100000X2.100000*%
%ADD28O,1.700000X2.100000*%
%ADD29R,1.700000X2.100000*%
G04 APERTURE END LIST*
D10*
X46740000Y-34540000D02*
X44196000Y-34540000D01*
X37084000Y-34540000D02*
X34540000Y-34540000D01*
X39116000Y-46740000D02*
X42164000Y-46740000D01*
X34540000Y-46740000D02*
X37084000Y-46740000D01*
X45219050Y-40640000D02*
G75*
G03*
X45219050Y-40640000I-4579050J0D01*
G01*
X44196000Y-46740000D02*
X46740000Y-46740000D01*
X34540000Y-34540000D02*
X34540000Y-46740000D01*
X42164000Y-34540000D02*
X39116000Y-34540000D01*
X46740000Y-46740000D02*
X46740000Y-34540000D01*
X34040000Y-34540000D02*
X31496000Y-34540000D01*
X24384000Y-34540000D02*
X21840000Y-34540000D01*
X26416000Y-46740000D02*
X29464000Y-46740000D01*
X21840000Y-46740000D02*
X24384000Y-46740000D01*
X32519050Y-40640000D02*
G75*
G03*
X32519050Y-40640000I-4579050J0D01*
G01*
X31496000Y-46740000D02*
X34040000Y-46740000D01*
X21840000Y-34540000D02*
X21840000Y-46740000D01*
X29464000Y-34540000D02*
X26416000Y-34540000D01*
X34040000Y-46740000D02*
X34040000Y-34540000D01*
X-34540000Y-34540000D02*
X-37084000Y-34540000D01*
X-44196000Y-34540000D02*
X-46740000Y-34540000D01*
X-42164000Y-46740000D02*
X-39116000Y-46740000D01*
X-46740000Y-46740000D02*
X-44196000Y-46740000D01*
X-36060950Y-40640000D02*
G75*
G03*
X-36060950Y-40640000I-4579050J0D01*
G01*
X-37084000Y-46740000D02*
X-34540000Y-46740000D01*
X-46740000Y-34540000D02*
X-46740000Y-46740000D01*
X-39116000Y-34540000D02*
X-42164000Y-34540000D01*
X-34540000Y-46740000D02*
X-34540000Y-34540000D01*
X-21840000Y-34540000D02*
X-24384000Y-34540000D01*
X-31496000Y-34540000D02*
X-34040000Y-34540000D01*
X-29464000Y-46740000D02*
X-26416000Y-46740000D01*
X-34040000Y-46740000D02*
X-31496000Y-46740000D01*
X-23360950Y-40640000D02*
G75*
G03*
X-23360950Y-40640000I-4579050J0D01*
G01*
X-24384000Y-46740000D02*
X-21840000Y-46740000D01*
X-34040000Y-34540000D02*
X-34040000Y-46740000D01*
X-26416000Y-34540000D02*
X-29464000Y-34540000D01*
X-21840000Y-46740000D02*
X-21840000Y-34540000D01*
X-9140000Y-34540000D02*
X-11684000Y-34540000D01*
X-18796000Y-34540000D02*
X-21340000Y-34540000D01*
X-16764000Y-46740000D02*
X-13716000Y-46740000D01*
X-21340000Y-46740000D02*
X-18796000Y-46740000D01*
X-10660950Y-40640000D02*
G75*
G03*
X-10660950Y-40640000I-4579050J0D01*
G01*
X-11684000Y-46740000D02*
X-9140000Y-46740000D01*
X-21340000Y-34540000D02*
X-21340000Y-46740000D01*
X-13716000Y-34540000D02*
X-16764000Y-34540000D01*
X-9140000Y-46740000D02*
X-9140000Y-34540000D01*
X21340000Y-34540000D02*
X18796000Y-34540000D01*
X11684000Y-34540000D02*
X9140000Y-34540000D01*
X13716000Y-46740000D02*
X16764000Y-46740000D01*
X9140000Y-46740000D02*
X11684000Y-46740000D01*
X19819050Y-40640000D02*
G75*
G03*
X19819050Y-40640000I-4579050J0D01*
G01*
X18796000Y-46740000D02*
X21340000Y-46740000D01*
X9140000Y-34540000D02*
X9140000Y-46740000D01*
X16764000Y-34540000D02*
X13716000Y-34540000D01*
X21340000Y-46740000D02*
X21340000Y-34540000D01*
X6100000Y-53090000D02*
X6100000Y-50546000D01*
X6100000Y-43434000D02*
X6100000Y-40890000D01*
X-6100000Y-45466000D02*
X-6100000Y-48514000D01*
X-6100000Y-40890000D02*
X-6100000Y-43434000D01*
X4579050Y-46990000D02*
G75*
G03*
X4579050Y-46990000I-4579050J0D01*
G01*
X-6100000Y-50546000D02*
X-6100000Y-53090000D01*
X6100000Y-40890000D02*
X-6100000Y-40890000D01*
X6100000Y-48514000D02*
X6100000Y-45466000D01*
X-6100000Y-53090000D02*
X6100000Y-53090000D01*
X6100000Y-40390000D02*
X6100000Y-37846000D01*
X6100000Y-30734000D02*
X6100000Y-28190000D01*
X-6100000Y-32766000D02*
X-6100000Y-35814000D01*
X-6100000Y-28190000D02*
X-6100000Y-30734000D01*
X4579050Y-34290000D02*
G75*
G03*
X4579050Y-34290000I-4579050J0D01*
G01*
X-6100000Y-37846000D02*
X-6100000Y-40390000D01*
X6100000Y-28190000D02*
X-6100000Y-28190000D01*
X6100000Y-35814000D02*
X6100000Y-32766000D01*
X-6100000Y-40390000D02*
X6100000Y-40390000D01*
D11*
X41973333Y-32789761D02*
X41830476Y-32837380D01*
X41592380Y-32837380D01*
X41497142Y-32789761D01*
X41449523Y-32742142D01*
X41401904Y-32646904D01*
X41401904Y-32551666D01*
X41449523Y-32456428D01*
X41497142Y-32408809D01*
X41592380Y-32361190D01*
X41782857Y-32313571D01*
X41878095Y-32265952D01*
X41925714Y-32218333D01*
X41973333Y-32123095D01*
X41973333Y-32027857D01*
X41925714Y-31932619D01*
X41878095Y-31885000D01*
X41782857Y-31837380D01*
X41544761Y-31837380D01*
X41401904Y-31885000D01*
X41068571Y-31837380D02*
X40830476Y-32837380D01*
X40640000Y-32123095D01*
X40449523Y-32837380D01*
X40211428Y-31837380D01*
X39687619Y-32265952D02*
X39782857Y-32218333D01*
X39830476Y-32170714D01*
X39878095Y-32075476D01*
X39878095Y-32027857D01*
X39830476Y-31932619D01*
X39782857Y-31885000D01*
X39687619Y-31837380D01*
X39497142Y-31837380D01*
X39401904Y-31885000D01*
X39354285Y-31932619D01*
X39306666Y-32027857D01*
X39306666Y-32075476D01*
X39354285Y-32170714D01*
X39401904Y-32218333D01*
X39497142Y-32265952D01*
X39687619Y-32265952D01*
X39782857Y-32313571D01*
X39830476Y-32361190D01*
X39878095Y-32456428D01*
X39878095Y-32646904D01*
X39830476Y-32742142D01*
X39782857Y-32789761D01*
X39687619Y-32837380D01*
X39497142Y-32837380D01*
X39401904Y-32789761D01*
X39354285Y-32742142D01*
X39306666Y-32646904D01*
X39306666Y-32456428D01*
X39354285Y-32361190D01*
X39401904Y-32313571D01*
X39497142Y-32265952D01*
X29273333Y-32789761D02*
X29130476Y-32837380D01*
X28892380Y-32837380D01*
X28797142Y-32789761D01*
X28749523Y-32742142D01*
X28701904Y-32646904D01*
X28701904Y-32551666D01*
X28749523Y-32456428D01*
X28797142Y-32408809D01*
X28892380Y-32361190D01*
X29082857Y-32313571D01*
X29178095Y-32265952D01*
X29225714Y-32218333D01*
X29273333Y-32123095D01*
X29273333Y-32027857D01*
X29225714Y-31932619D01*
X29178095Y-31885000D01*
X29082857Y-31837380D01*
X28844761Y-31837380D01*
X28701904Y-31885000D01*
X28368571Y-31837380D02*
X28130476Y-32837380D01*
X27940000Y-32123095D01*
X27749523Y-32837380D01*
X27511428Y-31837380D01*
X27225714Y-31837380D02*
X26559047Y-31837380D01*
X26987619Y-32837380D01*
X-39306666Y-32789761D02*
X-39449523Y-32837380D01*
X-39687619Y-32837380D01*
X-39782857Y-32789761D01*
X-39830476Y-32742142D01*
X-39878095Y-32646904D01*
X-39878095Y-32551666D01*
X-39830476Y-32456428D01*
X-39782857Y-32408809D01*
X-39687619Y-32361190D01*
X-39497142Y-32313571D01*
X-39401904Y-32265952D01*
X-39354285Y-32218333D01*
X-39306666Y-32123095D01*
X-39306666Y-32027857D01*
X-39354285Y-31932619D01*
X-39401904Y-31885000D01*
X-39497142Y-31837380D01*
X-39735238Y-31837380D01*
X-39878095Y-31885000D01*
X-40211428Y-31837380D02*
X-40449523Y-32837380D01*
X-40640000Y-32123095D01*
X-40830476Y-32837380D01*
X-41068571Y-31837380D01*
X-41878095Y-31837380D02*
X-41687619Y-31837380D01*
X-41592380Y-31885000D01*
X-41544761Y-31932619D01*
X-41449523Y-32075476D01*
X-41401904Y-32265952D01*
X-41401904Y-32646904D01*
X-41449523Y-32742142D01*
X-41497142Y-32789761D01*
X-41592380Y-32837380D01*
X-41782857Y-32837380D01*
X-41878095Y-32789761D01*
X-41925714Y-32742142D01*
X-41973333Y-32646904D01*
X-41973333Y-32408809D01*
X-41925714Y-32313571D01*
X-41878095Y-32265952D01*
X-41782857Y-32218333D01*
X-41592380Y-32218333D01*
X-41497142Y-32265952D01*
X-41449523Y-32313571D01*
X-41401904Y-32408809D01*
X-27876666Y-32281761D02*
X-28019523Y-32329380D01*
X-28257619Y-32329380D01*
X-28352857Y-32281761D01*
X-28400476Y-32234142D01*
X-28448095Y-32138904D01*
X-28448095Y-32043666D01*
X-28400476Y-31948428D01*
X-28352857Y-31900809D01*
X-28257619Y-31853190D01*
X-28067142Y-31805571D01*
X-27971904Y-31757952D01*
X-27924285Y-31710333D01*
X-27876666Y-31615095D01*
X-27876666Y-31519857D01*
X-27924285Y-31424619D01*
X-27971904Y-31377000D01*
X-28067142Y-31329380D01*
X-28305238Y-31329380D01*
X-28448095Y-31377000D01*
X-28781428Y-31329380D02*
X-29019523Y-32329380D01*
X-29210000Y-31615095D01*
X-29400476Y-32329380D01*
X-29638571Y-31329380D01*
X-30495714Y-31329380D02*
X-30019523Y-31329380D01*
X-29971904Y-31805571D01*
X-30019523Y-31757952D01*
X-30114761Y-31710333D01*
X-30352857Y-31710333D01*
X-30448095Y-31757952D01*
X-30495714Y-31805571D01*
X-30543333Y-31900809D01*
X-30543333Y-32138904D01*
X-30495714Y-32234142D01*
X-30448095Y-32281761D01*
X-30352857Y-32329380D01*
X-30114761Y-32329380D01*
X-30019523Y-32281761D01*
X-29971904Y-32234142D01*
X-13906666Y-32789761D02*
X-14049523Y-32837380D01*
X-14287619Y-32837380D01*
X-14382857Y-32789761D01*
X-14430476Y-32742142D01*
X-14478095Y-32646904D01*
X-14478095Y-32551666D01*
X-14430476Y-32456428D01*
X-14382857Y-32408809D01*
X-14287619Y-32361190D01*
X-14097142Y-32313571D01*
X-14001904Y-32265952D01*
X-13954285Y-32218333D01*
X-13906666Y-32123095D01*
X-13906666Y-32027857D01*
X-13954285Y-31932619D01*
X-14001904Y-31885000D01*
X-14097142Y-31837380D01*
X-14335238Y-31837380D01*
X-14478095Y-31885000D01*
X-14811428Y-31837380D02*
X-15049523Y-32837380D01*
X-15240000Y-32123095D01*
X-15430476Y-32837380D01*
X-15668571Y-31837380D01*
X-16478095Y-32170714D02*
X-16478095Y-32837380D01*
X-16240000Y-31789761D02*
X-16001904Y-32504047D01*
X-16620952Y-32504047D01*
X16573333Y-32789761D02*
X16430476Y-32837380D01*
X16192380Y-32837380D01*
X16097142Y-32789761D01*
X16049523Y-32742142D01*
X16001904Y-32646904D01*
X16001904Y-32551666D01*
X16049523Y-32456428D01*
X16097142Y-32408809D01*
X16192380Y-32361190D01*
X16382857Y-32313571D01*
X16478095Y-32265952D01*
X16525714Y-32218333D01*
X16573333Y-32123095D01*
X16573333Y-32027857D01*
X16525714Y-31932619D01*
X16478095Y-31885000D01*
X16382857Y-31837380D01*
X16144761Y-31837380D01*
X16001904Y-31885000D01*
X15668571Y-31837380D02*
X15430476Y-32837380D01*
X15240000Y-32123095D01*
X15049523Y-32837380D01*
X14811428Y-31837380D01*
X14525714Y-31837380D02*
X13906666Y-31837380D01*
X14240000Y-32218333D01*
X14097142Y-32218333D01*
X14001904Y-32265952D01*
X13954285Y-32313571D01*
X13906666Y-32408809D01*
X13906666Y-32646904D01*
X13954285Y-32742142D01*
X14001904Y-32789761D01*
X14097142Y-32837380D01*
X14382857Y-32837380D01*
X14478095Y-32789761D01*
X14525714Y-32742142D01*
X7389761Y-40449666D02*
X7437380Y-40592523D01*
X7437380Y-40830619D01*
X7389761Y-40925857D01*
X7342142Y-40973476D01*
X7246904Y-41021095D01*
X7151666Y-41021095D01*
X7056428Y-40973476D01*
X7008809Y-40925857D01*
X6961190Y-40830619D01*
X6913571Y-40640142D01*
X6865952Y-40544904D01*
X6818333Y-40497285D01*
X6723095Y-40449666D01*
X6627857Y-40449666D01*
X6532619Y-40497285D01*
X6485000Y-40544904D01*
X6437380Y-40640142D01*
X6437380Y-40878238D01*
X6485000Y-41021095D01*
X6437380Y-41354428D02*
X7437380Y-41592523D01*
X6723095Y-41783000D01*
X7437380Y-41973476D01*
X6437380Y-42211571D01*
X6532619Y-42544904D02*
X6485000Y-42592523D01*
X6437380Y-42687761D01*
X6437380Y-42925857D01*
X6485000Y-43021095D01*
X6532619Y-43068714D01*
X6627857Y-43116333D01*
X6723095Y-43116333D01*
X6865952Y-43068714D01*
X7437380Y-42497285D01*
X7437380Y-43116333D01*
X1333333Y-27836761D02*
X1190476Y-27884380D01*
X952380Y-27884380D01*
X857142Y-27836761D01*
X809523Y-27789142D01*
X761904Y-27693904D01*
X761904Y-27598666D01*
X809523Y-27503428D01*
X857142Y-27455809D01*
X952380Y-27408190D01*
X1142857Y-27360571D01*
X1238095Y-27312952D01*
X1285714Y-27265333D01*
X1333333Y-27170095D01*
X1333333Y-27074857D01*
X1285714Y-26979619D01*
X1238095Y-26932000D01*
X1142857Y-26884380D01*
X904761Y-26884380D01*
X761904Y-26932000D01*
X428571Y-26884380D02*
X190476Y-27884380D01*
X0Y-27170095D01*
X-190476Y-27884380D01*
X-428571Y-26884380D01*
X-1333333Y-27884380D02*
X-761904Y-27884380D01*
X-1047619Y-27884380D02*
X-1047619Y-26884380D01*
X-952380Y-27027238D01*
X-857142Y-27122476D01*
X-761904Y-27170095D01*
%LPC*%
D12*
X8410000Y-22480000D03*
X11910000Y-22480000D03*
X2540000Y-9610000D03*
X5080000Y-9610000D03*
X7620000Y-9610000D03*
X10160000Y-9610000D03*
X12700000Y-9610000D03*
X15240000Y-9610000D03*
X17780000Y-9610000D03*
X-11910000Y-22480000D03*
X-8410000Y-22480000D03*
X-17780000Y-9610000D03*
X-15240000Y-9610000D03*
X-12700000Y-9610000D03*
X-10160000Y-9610000D03*
X-7620000Y-9610000D03*
X-5080000Y-9610000D03*
X-2540000Y-9610000D03*
D13*
X-52070000Y-19050000D03*
X73914000Y23622000D03*
X-24765000Y-7620000D03*
D14*
X31750000Y25400000D03*
X26670000Y25400000D03*
X21590000Y25400000D03*
X16510000Y25400000D03*
D15*
X11430000Y25400000D03*
D13*
X68580000Y1270000D03*
X62230000Y1270000D03*
D16*
X38100000Y-46990000D03*
X43180000Y-46990000D03*
X38100000Y-34290000D03*
X43180000Y-34290000D03*
X25400000Y-46990000D03*
X30480000Y-46990000D03*
X25400000Y-34290000D03*
X30480000Y-34290000D03*
X-43180000Y-46990000D03*
X-38100000Y-46990000D03*
X-43180000Y-34290000D03*
X-38100000Y-34290000D03*
X-30480000Y-46990000D03*
X-25400000Y-46990000D03*
X-30480000Y-34290000D03*
X-25400000Y-34290000D03*
X-17780000Y-46990000D03*
X-12700000Y-46990000D03*
X-17780000Y-34290000D03*
X-12700000Y-34290000D03*
X12700000Y-46990000D03*
X17780000Y-46990000D03*
X12700000Y-34290000D03*
X17780000Y-34290000D03*
D17*
X-6350000Y-44450000D03*
X-6350000Y-49530000D03*
X6350000Y-44450000D03*
X6350000Y-49530000D03*
X-6350000Y-31750000D03*
X-6350000Y-36830000D03*
X6350000Y-31750000D03*
X6350000Y-36830000D03*
D13*
X-51435000Y-33655000D03*
D18*
X23287056Y-26242944D03*
X21590000Y-25540000D03*
X19892944Y-26242944D03*
X19190000Y-27940000D03*
X19892944Y-29637056D03*
X21590000Y-30340000D03*
X23287056Y-29637056D03*
X23990000Y-27940000D03*
D19*
X21590000Y-27940000D03*
D18*
X-19892944Y-26242944D03*
X-21590000Y-25540000D03*
X-23287056Y-26242944D03*
X-23990000Y-27940000D03*
X-23287056Y-29637056D03*
X-21590000Y-30340000D03*
X-19892944Y-29637056D03*
X-19190000Y-27940000D03*
D19*
X-21590000Y-27940000D03*
D20*
X26670000Y48260000D03*
X23270000Y48260000D03*
D21*
X48260000Y60980000D03*
D22*
X54610000Y50820000D03*
X52070000Y50820000D03*
X49530000Y50820000D03*
D23*
X46990000Y50820000D03*
G36*
G01*
X-5575000Y49550000D02*
X-3825000Y49550000D01*
G75*
G02*
X-2950000Y48675000I0J-875000D01*
G01*
X-2950000Y46925000D01*
G75*
G02*
X-3825000Y46050000I-875000J0D01*
G01*
X-5575000Y46050000D01*
G75*
G02*
X-6450000Y46925000I0J875000D01*
G01*
X-6450000Y48675000D01*
G75*
G02*
X-5575000Y49550000I875000J0D01*
G01*
G37*
G36*
G01*
X-1000000Y52300000D02*
X1000000Y52300000D01*
G75*
G02*
X1750000Y51550000I0J-750000D01*
G01*
X1750000Y50050000D01*
G75*
G02*
X1000000Y49300000I-750000J0D01*
G01*
X-1000000Y49300000D01*
G75*
G02*
X-1750000Y50050000I0J750000D01*
G01*
X-1750000Y51550000D01*
G75*
G02*
X-1000000Y52300000I750000J0D01*
G01*
G37*
D24*
X0Y44800000D03*
D22*
X43180000Y-27940000D03*
X45720000Y-27940000D03*
X48260000Y-27940000D03*
X50800000Y-27940000D03*
X53340000Y-27940000D03*
X43180000Y-25400000D03*
X45720000Y-25400000D03*
X48260000Y-25400000D03*
X50800000Y-25400000D03*
G36*
G01*
X52740000Y-24550000D02*
X53940000Y-24550000D01*
G75*
G02*
X54190000Y-24800000I0J-250000D01*
G01*
X54190000Y-26000000D01*
G75*
G02*
X53940000Y-26250000I-250000J0D01*
G01*
X52740000Y-26250000D01*
G75*
G02*
X52490000Y-26000000I0J250000D01*
G01*
X52490000Y-24800000D01*
G75*
G02*
X52740000Y-24550000I250000J0D01*
G01*
G37*
D13*
X-46990000Y48260000D03*
X-46990000Y43180000D03*
X-46990000Y38100000D03*
X-46990000Y33020000D03*
X-31750000Y36830000D03*
X74930000Y33020000D03*
X71120000Y27940000D03*
X55880000Y20320000D03*
X55880000Y12700000D03*
X-69850000Y-10160000D03*
X-74930000Y-10160000D03*
X-27940000Y36830000D03*
X-24130000Y36830000D03*
X-35560000Y33020000D03*
D25*
X-33020000Y-13970000D03*
X-35560000Y-13970000D03*
X-38100000Y-13970000D03*
D23*
X-40640000Y-13970000D03*
D25*
X-57150000Y26670000D03*
X-59690000Y26670000D03*
X-62230000Y26670000D03*
D23*
X-64770000Y26670000D03*
D18*
X67737056Y-46562944D03*
X66040000Y-45860000D03*
X64342944Y-46562944D03*
X63640000Y-48260000D03*
X64342944Y-49957056D03*
X66040000Y-50660000D03*
X67737056Y-49957056D03*
X68440000Y-48260000D03*
D19*
X66040000Y-48260000D03*
D18*
X76627056Y49957056D03*
X74930000Y50660000D03*
X73232944Y49957056D03*
X72530000Y48260000D03*
X73232944Y46562944D03*
X74930000Y45860000D03*
X76627056Y46562944D03*
X77330000Y48260000D03*
D19*
X74930000Y48260000D03*
D18*
X-64342944Y-46562944D03*
X-66040000Y-45860000D03*
X-67737056Y-46562944D03*
X-68440000Y-48260000D03*
X-67737056Y-49957056D03*
X-66040000Y-50660000D03*
X-64342944Y-49957056D03*
X-63640000Y-48260000D03*
D19*
X-66040000Y-48260000D03*
D18*
X-73232944Y49957056D03*
X-74930000Y50660000D03*
X-76627056Y49957056D03*
X-77330000Y48260000D03*
X-76627056Y46562944D03*
X-74930000Y45860000D03*
X-73232944Y46562944D03*
X-72530000Y48260000D03*
D19*
X-74930000Y48260000D03*
D26*
X43500000Y34290000D03*
D27*
X63500000Y34290000D03*
D28*
X-72390000Y21590000D03*
X-69850000Y21590000D03*
D29*
X-72390000Y-3810000D03*
D28*
X-26670000Y21590000D03*
X-69850000Y-3810000D03*
X-26670000Y-3810000D03*
X-67310000Y-3810000D03*
X-29210000Y-3810000D03*
X-64770000Y-3810000D03*
X-31750000Y-3810000D03*
X-62230000Y-3810000D03*
X-34290000Y-3810000D03*
X-59690000Y-3810000D03*
X-36830000Y-3810000D03*
X-57150000Y-3810000D03*
X-39370000Y-3810000D03*
X-54610000Y-3810000D03*
X-41910000Y-3810000D03*
X-52070000Y-3810000D03*
X-44450000Y-3810000D03*
X-49530000Y-3810000D03*
X-46990000Y-3810000D03*
X-29210000Y21590000D03*
X-31750000Y21590000D03*
X-34290000Y21590000D03*
X-36830000Y21590000D03*
X-39370000Y21590000D03*
X-41910000Y21590000D03*
X-44450000Y21590000D03*
X-46990000Y21590000D03*
X-49530000Y21590000D03*
X-52070000Y21590000D03*
X-54610000Y21590000D03*
X-57150000Y21590000D03*
X-59690000Y21590000D03*
X-62230000Y21590000D03*
X-64770000Y21590000D03*
X-67310000Y21590000D03*
M02*
