G04 #@! TF.GenerationSoftware,KiCad,Pcbnew,(5.1.9)-1*
G04 #@! TF.CreationDate,2021-04-11T14:45:32+02:00*
G04 #@! TF.ProjectId,Sunrise clock main board,53756e72-6973-4652-9063-6c6f636b206d,V1.0*
G04 #@! TF.SameCoordinates,Original*
G04 #@! TF.FileFunction,Soldermask,Bot*
G04 #@! TF.FilePolarity,Negative*
%FSLAX46Y46*%
G04 Gerber Fmt 4.6, Leading zero omitted, Abs format (unit mm)*
G04 Created by KiCad (PCBNEW (5.1.9)-1) date 2021-04-11 14:45:32*
%MOMM*%
%LPD*%
G01*
G04 APERTURE LIST*
%ADD10C,1.524000*%
%ADD11R,1.500000X1.500000*%
%ADD12C,2.600000*%
%ADD13R,2.600000X2.600000*%
%ADD14O,1.850000X3.048000*%
%ADD15O,3.048000X1.850000*%
%ADD16C,0.800000*%
%ADD17C,6.400000*%
%ADD18C,1.500000*%
%ADD19C,4.300000*%
%ADD20C,1.700000*%
%ADD21R,1.700000X1.700000*%
%ADD22R,3.500000X3.500000*%
%ADD23O,1.700000X1.700000*%
%ADD24C,2.100000*%
%ADD25R,2.100000X2.100000*%
%ADD26O,1.700000X2.100000*%
%ADD27R,1.700000X2.100000*%
G04 APERTURE END LIST*
D10*
X8410000Y-22480000D03*
X11910000Y-22480000D03*
X2540000Y-9610000D03*
X5080000Y-9610000D03*
X7620000Y-9610000D03*
X10160000Y-9610000D03*
X12700000Y-9610000D03*
X15240000Y-9610000D03*
X17780000Y-9610000D03*
X-11910000Y-22480000D03*
X-8410000Y-22480000D03*
X-17780000Y-9610000D03*
X-15240000Y-9610000D03*
X-12700000Y-9610000D03*
X-10160000Y-9610000D03*
X-7620000Y-9610000D03*
X-5080000Y-9610000D03*
X-2540000Y-9610000D03*
D11*
X-52070000Y-19050000D03*
X73914000Y23622000D03*
X-24765000Y-7620000D03*
D12*
X31750000Y25400000D03*
X26670000Y25400000D03*
X21590000Y25400000D03*
X16510000Y25400000D03*
D13*
X11430000Y25400000D03*
D11*
X68580000Y1270000D03*
X62230000Y1270000D03*
D14*
X38100000Y-46990000D03*
X43180000Y-46990000D03*
X38100000Y-34290000D03*
X43180000Y-34290000D03*
X25400000Y-46990000D03*
X30480000Y-46990000D03*
X25400000Y-34290000D03*
X30480000Y-34290000D03*
X-43180000Y-46990000D03*
X-38100000Y-46990000D03*
X-43180000Y-34290000D03*
X-38100000Y-34290000D03*
X-30480000Y-46990000D03*
X-25400000Y-46990000D03*
X-30480000Y-34290000D03*
X-25400000Y-34290000D03*
X-17780000Y-46990000D03*
X-12700000Y-46990000D03*
X-17780000Y-34290000D03*
X-12700000Y-34290000D03*
X12700000Y-46990000D03*
X17780000Y-46990000D03*
X12700000Y-34290000D03*
X17780000Y-34290000D03*
D15*
X-6350000Y-44450000D03*
X-6350000Y-49530000D03*
X6350000Y-44450000D03*
X6350000Y-49530000D03*
X-6350000Y-31750000D03*
X-6350000Y-36830000D03*
X6350000Y-31750000D03*
X6350000Y-36830000D03*
D11*
X-51435000Y-33655000D03*
D16*
X23287056Y-26242944D03*
X21590000Y-25540000D03*
X19892944Y-26242944D03*
X19190000Y-27940000D03*
X19892944Y-29637056D03*
X21590000Y-30340000D03*
X23287056Y-29637056D03*
X23990000Y-27940000D03*
D17*
X21590000Y-27940000D03*
D16*
X-19892944Y-26242944D03*
X-21590000Y-25540000D03*
X-23287056Y-26242944D03*
X-23990000Y-27940000D03*
X-23287056Y-29637056D03*
X-21590000Y-30340000D03*
X-19892944Y-29637056D03*
X-19190000Y-27940000D03*
D17*
X-21590000Y-27940000D03*
D18*
X26670000Y48260000D03*
X23270000Y48260000D03*
D19*
X48260000Y60980000D03*
D20*
X54610000Y50820000D03*
X52070000Y50820000D03*
X49530000Y50820000D03*
D21*
X46990000Y50820000D03*
G36*
G01*
X-5575000Y49550000D02*
X-3825000Y49550000D01*
G75*
G02*
X-2950000Y48675000I0J-875000D01*
G01*
X-2950000Y46925000D01*
G75*
G02*
X-3825000Y46050000I-875000J0D01*
G01*
X-5575000Y46050000D01*
G75*
G02*
X-6450000Y46925000I0J875000D01*
G01*
X-6450000Y48675000D01*
G75*
G02*
X-5575000Y49550000I875000J0D01*
G01*
G37*
G36*
G01*
X-1000000Y52300000D02*
X1000000Y52300000D01*
G75*
G02*
X1750000Y51550000I0J-750000D01*
G01*
X1750000Y50050000D01*
G75*
G02*
X1000000Y49300000I-750000J0D01*
G01*
X-1000000Y49300000D01*
G75*
G02*
X-1750000Y50050000I0J750000D01*
G01*
X-1750000Y51550000D01*
G75*
G02*
X-1000000Y52300000I750000J0D01*
G01*
G37*
D22*
X0Y44800000D03*
D20*
X43180000Y-27940000D03*
X45720000Y-27940000D03*
X48260000Y-27940000D03*
X50800000Y-27940000D03*
X53340000Y-27940000D03*
X43180000Y-25400000D03*
X45720000Y-25400000D03*
X48260000Y-25400000D03*
X50800000Y-25400000D03*
G36*
G01*
X52740000Y-24550000D02*
X53940000Y-24550000D01*
G75*
G02*
X54190000Y-24800000I0J-250000D01*
G01*
X54190000Y-26000000D01*
G75*
G02*
X53940000Y-26250000I-250000J0D01*
G01*
X52740000Y-26250000D01*
G75*
G02*
X52490000Y-26000000I0J250000D01*
G01*
X52490000Y-24800000D01*
G75*
G02*
X52740000Y-24550000I250000J0D01*
G01*
G37*
D11*
X-46990000Y48260000D03*
X-46990000Y43180000D03*
X-46990000Y38100000D03*
X-46990000Y33020000D03*
X-31750000Y36830000D03*
X74930000Y33020000D03*
X71120000Y27940000D03*
X55880000Y20320000D03*
X55880000Y12700000D03*
X-69850000Y-10160000D03*
X-74930000Y-10160000D03*
X-27940000Y36830000D03*
X-24130000Y36830000D03*
X-35560000Y33020000D03*
D23*
X-33020000Y-13970000D03*
X-35560000Y-13970000D03*
X-38100000Y-13970000D03*
D21*
X-40640000Y-13970000D03*
D23*
X-57150000Y26670000D03*
X-59690000Y26670000D03*
X-62230000Y26670000D03*
D21*
X-64770000Y26670000D03*
D16*
X67737056Y-46562944D03*
X66040000Y-45860000D03*
X64342944Y-46562944D03*
X63640000Y-48260000D03*
X64342944Y-49957056D03*
X66040000Y-50660000D03*
X67737056Y-49957056D03*
X68440000Y-48260000D03*
D17*
X66040000Y-48260000D03*
D16*
X76627056Y49957056D03*
X74930000Y50660000D03*
X73232944Y49957056D03*
X72530000Y48260000D03*
X73232944Y46562944D03*
X74930000Y45860000D03*
X76627056Y46562944D03*
X77330000Y48260000D03*
D17*
X74930000Y48260000D03*
D16*
X-64342944Y-46562944D03*
X-66040000Y-45860000D03*
X-67737056Y-46562944D03*
X-68440000Y-48260000D03*
X-67737056Y-49957056D03*
X-66040000Y-50660000D03*
X-64342944Y-49957056D03*
X-63640000Y-48260000D03*
D17*
X-66040000Y-48260000D03*
D16*
X-73232944Y49957056D03*
X-74930000Y50660000D03*
X-76627056Y49957056D03*
X-77330000Y48260000D03*
X-76627056Y46562944D03*
X-74930000Y45860000D03*
X-73232944Y46562944D03*
X-72530000Y48260000D03*
D17*
X-74930000Y48260000D03*
D24*
X43500000Y34290000D03*
D25*
X63500000Y34290000D03*
D26*
X-72390000Y21590000D03*
X-69850000Y21590000D03*
D27*
X-72390000Y-3810000D03*
D26*
X-26670000Y21590000D03*
X-69850000Y-3810000D03*
X-26670000Y-3810000D03*
X-67310000Y-3810000D03*
X-29210000Y-3810000D03*
X-64770000Y-3810000D03*
X-31750000Y-3810000D03*
X-62230000Y-3810000D03*
X-34290000Y-3810000D03*
X-59690000Y-3810000D03*
X-36830000Y-3810000D03*
X-57150000Y-3810000D03*
X-39370000Y-3810000D03*
X-54610000Y-3810000D03*
X-41910000Y-3810000D03*
X-52070000Y-3810000D03*
X-44450000Y-3810000D03*
X-49530000Y-3810000D03*
X-46990000Y-3810000D03*
X-29210000Y21590000D03*
X-31750000Y21590000D03*
X-34290000Y21590000D03*
X-36830000Y21590000D03*
X-39370000Y21590000D03*
X-41910000Y21590000D03*
X-44450000Y21590000D03*
X-46990000Y21590000D03*
X-49530000Y21590000D03*
X-52070000Y21590000D03*
X-54610000Y21590000D03*
X-57150000Y21590000D03*
X-59690000Y21590000D03*
X-62230000Y21590000D03*
X-64770000Y21590000D03*
X-67310000Y21590000D03*
M02*
