M48
; DRILL file {KiCad (5.1.9)-1} date 04/11/21 14:45:43
; FORMAT={-:-/ absolute / metric / decimal}
; #@! TF.CreationDate,2021-04-11T14:45:43+02:00
; #@! TF.GenerationSoftware,Kicad,Pcbnew,(5.1.9)-1
; #@! TF.FileFunction,Plated,1,2,PTH
FMAT,2
METRIC
T1C0.400
T2C0.500
T3C0.700
T4C0.762
T5C0.800
T6C1.000
T7C1.300
T8C3.000
T9C3.200
%
G90
G05
T1
X-75.438Y-26.416
X-70.993Y-6.223
X-70.104Y4.318
X-69.977Y12.319
X-69.596Y-13.208
X-69.215Y-28.956
X-68.58Y29.718
X-67.945Y-6.223
X-67.31Y19.177
X-67.31Y-32.004
X-66.29Y-22.479
X-65.698Y-21.392
X-65.278Y6.35
X-64.77Y19.558
X-64.262Y-31.242
X-62.357Y-28.067
X-62.23Y2.813
X-61.976Y38.989
X-60.833Y-14.986
X-60.452Y-31.623
X-59.817Y-9.271
X-59.727Y-16.036
X-59.69Y19.685
X-59.309Y-11.901
X-59.309Y-35.306
X-58.42Y-17.907
X-57.15Y19.304
X-57.023Y16.129
X-56.261Y-27.305
X-55.753Y-7.112
X-55.499Y6.096
X-54.737Y38.862
X-54.483Y12.954
X-54.229Y10.414
X-53.975Y-38.862
X-53.721Y5.334
X-53.34Y19.812
X-53.34Y15.875
X-53.34Y-11.176
X-52.832Y-37.973
X-52.324Y0.889
X-52.07Y-7.239
X-51.689Y-51.689
X-49.784Y9.779
X-49.149Y-31.877
X-48.641Y-33.655
X-48.387Y4.445
X-48.323Y1.079
X-48.26Y19.431
X-48.133Y8.89
X-47.842Y-6.35
X-47.752Y30.861
X-47.593Y-7.464
X-47.117Y23.622
X-46.355Y4.826
X-46.355Y-9.144
X-46.355Y-11.049
X-46.355Y-12.827
X-45.974Y13.716
X-45.974Y-6.35
X-45.72Y25.273
X-45.72Y19.431
X-45.651Y-7.639
X-45.593Y35.433
X-45.593Y-0.889
X-45.529Y4.263
X-44.976Y7.843
X-44.958Y30.48
X-44.704Y32.004
X-44.526Y9.906
X-44.45Y23.749
X-44.196Y44.069
X-44.196Y-24.13
X-44.196Y49.276
X-44.079Y4.806
X-44.022Y20.0
X-43.942Y30.697
X-43.434Y24.511
X-43.434Y0.635
X-43.434Y-10.287
X-43.434Y-29.591
X-43.307Y35.433
X-42.799Y47.117
X-42.672Y11.43
X-41.656Y24.003
X-41.529Y11.684
X-41.148Y48.514
X-40.513Y1.524
X-40.005Y45.085
X-39.878Y41.529
X-39.37Y6.604
X-39.243Y18.542
X-39.116Y10.795
X-38.735Y39.751
X-38.354Y-31.716
X-38.1Y35.306
X-38.1Y-41.91
X-36.83Y6.223
X-36.703Y-23.368
X-36.322Y18.415
X-36.195Y41.529
X-36.068Y10.795
X-35.652Y-23.637
X-34.843Y-31.892
X-34.29Y30.697
X-33.618Y-39.37
X-32.893Y-40.386
X-32.385Y-44.704
X-31.623Y-17.653
X-30.734Y-12.954
X-30.734Y-10.922
X-29.935Y-18.126
X-29.21Y-41.91
X-27.94Y-16.002
X-27.94Y-38.1
X-27.305Y-12.954
X-27.249Y-32.716
X-27.07Y-17.253
X-26.543Y17.653
X-26.416Y-22.987
X-25.4Y-20.193
X-24.87Y-19.038
X-23.427Y-17.473
X-22.86Y-7.493
X-22.606Y16.51
X-20.32Y-40.64
X-19.431Y-8.509
X-19.304Y-16.383
X-16.51Y21.59
X-16.383Y-19.939
X-15.807Y4.662
X-15.367Y42.037
X-15.367Y-14.986
X-10.414Y-19.14
X-8.763Y-16.51
X-8.128Y29.591
X-7.729Y-6.514
X-6.35Y-33.275
X-5.219Y-6.064
X-2.54Y-5.614
X1.27Y22.86
X2.413Y2.54
X3.81Y-13.843
X4.953Y10.795
X6.858Y-15.367
X7.874Y-14.605
X11.176Y-19.812
X11.303Y-16.51
X11.43Y-13.462
X12.594Y-6.514
X13.843Y-13.589
X13.97Y-8.128
X15.24Y-6.514
X15.494Y9.779
X16.51Y-13.462
X17.78Y-5.842
X17.907Y30.099
X19.812Y31.242
X20.066Y-13.335
X20.32Y-6.35
X21.463Y37.719
X24.391Y-11.271
X24.638Y-25.146
X25.273Y38.354
X25.273Y34.798
X26.035Y32.893
X26.857Y-11.721
X28.423Y-12.102
X28.702Y30.226
X29.337Y37.973
X34.227Y-26.479
X35.978Y28.321
X39.37Y16.891
X39.497Y12.954
X39.624Y-18.923
X40.64Y13.138
X40.704Y-19.875
X41.656Y13.372
X41.656Y-20.574
X42.672Y13.88
X42.672Y-21.717
X43.6Y14.329
X43.688Y-22.733
X44.45Y14.856
X44.45Y-23.749
X45.339Y15.494
X45.72Y-18.923
X49.53Y-21.717
X51.054Y15.494
X51.943Y-11.176
X51.943Y-14.224
X52.07Y29.247
X52.959Y6.477
X53.721Y-3.937
X57.404Y41.021
X57.404Y28.792
X58.293Y40.132
X58.293Y28.067
X63.754Y24.638
X63.881Y9.144
X66.04Y32.385
X66.294Y14.859
X67.437Y9.525
X67.437Y-1.905
X67.534Y6.634
X67.945Y24.638
X68.58Y9.525
X69.723Y-1.778
X70.231Y3.429
X73.152Y8.636
X73.279Y14.605
X73.406Y15.875
X74.803Y-12.827
T2
X-77.33Y48.26
X-76.627Y49.957
X-76.627Y46.563
X-74.93Y50.66
X-74.93Y45.86
X-73.233Y49.957
X-73.233Y46.563
X-72.53Y48.26
X-68.44Y-48.26
X-67.737Y-46.563
X-67.737Y-49.957
X-66.04Y-45.86
X-66.04Y-50.66
X-64.343Y-46.563
X-64.343Y-49.957
X-63.64Y-48.26
X-23.99Y-27.94
X-23.287Y-26.243
X-23.287Y-29.637
X-21.59Y-25.54
X-21.59Y-30.34
X-19.893Y-26.243
X-19.893Y-29.637
X-19.19Y-27.94
X19.19Y-27.94
X19.893Y-26.243
X19.893Y-29.637
X21.59Y-25.54
X21.59Y-30.34
X23.287Y-26.243
X23.287Y-29.637
X23.99Y-27.94
X63.64Y-48.26
X64.343Y-46.563
X64.343Y-49.957
X66.04Y-45.86
X66.04Y-50.66
X67.737Y-46.563
X67.737Y-49.957
X68.44Y-48.26
X72.53Y48.26
X73.233Y49.957
X73.233Y46.563
X74.93Y50.66
X74.93Y45.86
X76.627Y49.957
X76.627Y46.563
X77.33Y48.26
T3
X-74.93Y-10.16
X-69.85Y-10.16
X-52.07Y-19.05
X-51.435Y-33.655
X-46.99Y48.26
X-46.99Y43.18
X-46.99Y38.1
X-46.99Y33.02
X-35.56Y33.02
X-31.75Y36.83
X-27.94Y36.83
X-24.765Y-7.62
X-24.13Y36.83
X55.88Y20.32
X55.88Y12.7
X62.23Y1.27
X68.58Y1.27
X71.12Y27.94
X73.914Y23.622
X74.93Y33.02
T4
X-17.78Y-9.61
X-15.24Y-9.61
X-12.7Y-9.61
X-11.91Y-22.48
X-10.16Y-9.61
X-8.41Y-22.48
X-7.62Y-9.61
X-5.08Y-9.61
X-2.54Y-9.61
X2.54Y-9.61
X5.08Y-9.61
X7.62Y-9.61
X8.41Y-22.48
X10.16Y-9.61
X11.91Y-22.48
X12.7Y-9.61
X15.24Y-9.61
X17.78Y-9.61
T5
X-67.31Y8.89
X-63.5Y-26.561
X-62.23Y43.18
X-62.23Y-7.62
X-59.69Y8.89
X-59.69Y-36.83
X-58.42Y46.99
X-58.42Y34.29
X-54.61Y-33.02
X-47.625Y-28.448
X-45.72Y-17.78
X-45.72Y-21.59
X-42.444Y-9.297
X-41.91Y6.35
X-41.91Y0.0
X-41.801Y-19.685
X-36.449Y-25.908
X-34.163Y-17.145
X-30.861Y0.635
X-30.48Y6.35
X-28.575Y-8.89
X-24.257Y26.797
X-24.13Y44.45
X-21.59Y-4.064
X-21.463Y19.812
X-19.05Y35.56
X-19.05Y30.48
X-17.78Y6.35
X-17.272Y-2.413
X-13.843Y1.651
X-12.7Y6.35
X-12.009Y24.511
X-7.62Y24.13
X-6.35Y41.91
X-0.254Y21.463
X0.0Y8.908
X2.413Y-3.302
X3.429Y37.846
X6.858Y20.955
X8.89Y48.26
X10.795Y29.337
X13.97Y8.001
X14.478Y-3.81
X16.51Y48.26
X17.399Y3.937
X22.352Y4.826
X22.606Y-4.318
X23.27Y48.26
X23.622Y21.971
X24.13Y44.45
X26.67Y48.26
X30.099Y-20.32
X30.353Y-28.829
X30.734Y-4.318
X31.496Y22.352
X31.75Y8.001
X34.07Y19.016
X35.814Y5.461
X35.941Y-3.937
X36.83Y-20.447
X39.37Y27.94
X39.37Y20.32
X41.91Y20.32
X48.641Y30.48
X49.276Y-3.429
X49.403Y8.001
X49.53Y20.32
X49.53Y3.81
X53.34Y20.32
X60.071Y31.115
X60.325Y7.112
X60.96Y24.13
X62.484Y22.733
X68.199Y50.673
X71.12Y25.4
X73.66Y41.91
T6
X-72.39Y21.59
X-72.39Y-3.81
X-69.85Y21.59
X-69.85Y-3.81
X-67.31Y21.59
X-67.31Y-3.81
X-64.77Y26.67
X-64.77Y21.59
X-64.77Y-3.81
X-62.23Y26.67
X-62.23Y21.59
X-62.23Y-3.81
X-59.69Y26.67
X-59.69Y21.59
X-59.69Y-3.81
X-57.15Y26.67
X-57.15Y21.59
X-57.15Y-3.81
X-54.61Y21.59
X-54.61Y-3.81
X-52.07Y21.59
X-52.07Y-3.81
X-49.53Y21.59
X-49.53Y-3.81
X-46.99Y21.59
X-46.99Y-3.81
X-44.45Y21.59
X-44.45Y-3.81
X-41.91Y21.59
X-41.91Y-3.81
X-40.64Y-13.97
X-39.37Y21.59
X-39.37Y-3.81
X-38.1Y-13.97
X-36.83Y21.59
X-36.83Y-3.81
X-35.56Y-13.97
X-34.29Y21.59
X-34.29Y-3.81
X-33.02Y-13.97
X-31.75Y21.59
X-31.75Y-3.81
X-29.21Y21.59
X-29.21Y-3.81
X-26.67Y21.59
X-26.67Y-3.81
X43.18Y-25.4
X43.18Y-27.94
X45.72Y-25.4
X45.72Y-27.94
X46.99Y50.82
X48.26Y-25.4
X48.26Y-27.94
X49.53Y50.82
X50.8Y-25.4
X50.8Y-27.94
X52.07Y50.82
X53.34Y-25.4
X53.34Y-27.94
X54.61Y50.82
T7
X-43.18Y-34.29
X-43.18Y-46.99
X-38.1Y-34.29
X-38.1Y-46.99
X-30.48Y-34.29
X-30.48Y-46.99
X-25.4Y-34.29
X-25.4Y-46.99
X-17.78Y-34.29
X-17.78Y-46.99
X-12.7Y-34.29
X-12.7Y-46.99
X-6.35Y-31.75
X-6.35Y-36.83
X-6.35Y-44.45
X-6.35Y-49.53
X6.35Y-31.75
X6.35Y-36.83
X6.35Y-44.45
X6.35Y-49.53
X11.43Y25.4
X12.7Y-34.29
X12.7Y-46.99
X16.51Y25.4
X17.78Y-34.29
X17.78Y-46.99
X21.59Y25.4
X25.4Y-34.29
X25.4Y-46.99
X26.67Y25.4
X30.48Y-34.29
X30.48Y-46.99
X31.75Y25.4
X38.1Y-34.29
X38.1Y-46.99
X43.18Y-34.29
X43.18Y-46.99
X43.5Y34.29
X63.5Y34.29
T8
X48.26Y60.98
T9
X-74.93Y48.26
X-66.04Y-48.26
X-21.59Y-27.94
X21.59Y-27.94
X66.04Y-48.26
X74.93Y48.26
T6
X-4.7Y48.8G85X-4.7Y46.8
G05
X1.0Y50.8G85X-1.0Y50.8
G05
X1.0Y44.8G85X-1.0Y44.8
G05
T0
M30
